<?xml version="1.0" encoding="utf-8"?>
<!-- Generator: Adobe Illustrator 23.0.3, SVG Export Plug-In . SVG Version: 6.00 Build 0)  -->
<svg version="1.1" xmlns="http://www.w3.org/2000/svg" xmlns:xlink="http://www.w3.org/1999/xlink" x="0px" y="0px"
	 viewBox="0 0 60 50" style="enable-background:new 0 0 60 50;" xml:space="preserve">
<style type="text/css">
	.st0{display:none;}
	.st1{display:inline;}
	.st2{fill:#252525;}
	.st3{fill-rule:evenodd;clip-rule:evenodd;fill:#252525;}
</style>
<g id="Layer_1">
</g>
<g id="Layer_2" class="st0">
	<g transform="translate(0,-952.36218)" class="st1">
		<path class="st2" d="M54,952.4c-0.3,0-0.7,0.1-0.9,0.3l-4.7,4.7c-5.2-0.9-10.4-1.8-15.5-2.8c-0.3,0-0.7,0.1-0.9,0.3L5.3,981.5
			c-0.4,0.4-0.4,1.2,0,1.6l18.9,18.9c0.4,0.4,1.2,0.4,1.6,0l26.6-26.6c0.3-0.3,0.4-0.7,0.3-1L49.9,959l4.7-4.7
			c0.3-0.3,0.4-0.8,0.3-1.2S54.4,952.4,54,952.4L54,952.4z M46.4,959.4l-2.5,2.5c-0.9-0.6-2-0.9-3.1-0.9c-3.1,0-5.7,2.6-5.7,5.7
			c0,3.1,2.6,5.7,5.7,5.7c3.1,0,5.7-2.6,5.7-5.7c0-1.2-0.4-2.2-1-3.1L48,961l2.4,13.3L25,999.6L7.7,982.4L33.1,957L46.4,959.4z
			 M44.2,966.6c0,1.9-1.5,3.4-3.4,3.4c-1.9,0-3.4-1.5-3.4-3.4c0-1.9,1.5-3.4,3.4-3.4C42.7,963.2,44.2,964.7,44.2,966.6z"/>
	</g>
</g>
<g id="Layer_3" class="st0">
	<g class="st1">
		<path d="M17.5,39.3c-1,0-1.8,0.8-1.8,1.8c0,1,0.8,1.8,1.8,1.8c1,0,1.8-0.8,1.8-1.8C19.3,40.1,18.5,39.3,17.5,39.3z"/>
		<path d="M72.9,25L58.5,10.7l-10.6,0h-0.1V3.6c0-2-1.6-3.6-3.6-3.6H5C3,0,1.4,1.6,1.4,3.6h-12.5c-1,0-1.8,0.8-1.8,1.8
			s0.8,1.8,1.8,1.8H1.4l0,7.1h-8.9c-1,0-1.8,0.8-1.8,1.8c0,1,0.8,1.8,1.8,1.8h8.9V25h-5.4c-1,0-1.8,0.8-1.8,1.8s0.8,1.8,1.8,1.8h5.4
			v7.1h-1.8c-1,0-1.8,0.8-1.8,1.8s0.8,1.8,1.8,1.8h1.8c0,2,1.6,3.6,3.6,3.6h3.8c0.8,4.1,4.4,7.1,8.7,7.1c4.3,0,7.9-3.1,8.7-7.1h18
			h5.5c0.8,4.1,4.4,7.1,8.7,7.1c4.3,0,7.9-3.1,8.7-7.1h5.5L72.9,25z M17.5,46.4c-3,0-5.4-2.4-5.4-5.4c0-3,2.4-5.4,5.4-5.4
			c3,0,5.4,2.4,5.4,5.4C22.9,44,20.5,46.4,17.5,46.4z M44.3,39.3h-18c-0.8-4.1-4.4-7.1-8.7-7.1c-4.3,0-7.9,3.1-8.7,7.1H5L5,3.6h39.3
			v0L44.3,39.3z M58.6,46.4c-3,0-5.4-2.4-5.4-5.4c0-3,2.4-5.4,5.4-5.4c3,0,5.4,2.4,5.4,5.4C63.9,44,61.5,46.4,58.6,46.4z M69.3,39.3
			h-1.9c-0.8-4.1-4.4-7.1-8.7-7.1c-4.3,0-7.9,3.1-8.7,7.1h-2l0-25H48l9.1,0l12.2,12.2L69.3,39.3z"/>
		<path d="M58.6,39.3c-1,0-1.8,0.8-1.8,1.8c0,1,0.8,1.8,1.8,1.8s1.8-0.8,1.8-1.8C60.4,40.1,59.6,39.3,58.6,39.3z"/>
	</g>
</g>
<g id="Layer_4">
	<g>
		<g transform="translate(0,-288.53332)">
			<path class="st3" d="M36.7,301.5c-0.1,0-0.3,0-0.4,0.1l-2.6,1.3c-1.1,0.6-2.3,0.8-3.6,0.8h-7.2c-0.8,0-1.7,0.2-2.4,0.7
				c-0.7,0.5-1.2,1.4-1.2,2.4v0c0,1.1,0.5,2,1.3,2.7c-1.3,1-2,2.8-1.6,4.5l3,13.9c0,0,0,4,0,6c0,2.4,2,4.5,4.4,4.5h3.1
				c2.4,0,4.5-2,4.5-4.4l0-6.2l3-13.8c0.4-1.9-0.4-3.7-1.8-4.7c1.4-1,2.4-2.6,2.4-4.5v-2.7C37.6,301.9,37.2,301.5,36.7,301.5
				L36.7,301.5z M35.8,303.8v1.2c0,2-1.6,3.6-3.6,3.6c-3.1,0-6.3,0-9.4,0c-1,0-1.8-0.8-1.8-1.8c0-0.5,0.2-0.8,0.5-1
				c0.3-0.2,0.8-0.4,1.2-0.4c2.4,0,4.9,0,7.3,0c1.5,0,3-0.4,4.4-1L35.8,303.8z M23.2,310.4c3.2,0,6.3,0,9.5,0.1c1.8,0,3,1.6,2.6,3.3
				v0l-2.9,13.2l-5.1,0l0,1.8l4.9,0l0,5.4c0,1.5-1.2,2.7-2.7,2.7h-3.1c-1.5,0-2.7-1.2-2.7-2.7l0-5.4l1.8,0l0-1.8l-2,0l-2.9-13.2v0
				C20.3,312,21.5,310.5,23.2,310.4L23.2,310.4z"/>
			<path class="st2" d="M40.7,288.5c-1,0-1.8,0.8-1.8,1.8v1.3c0,1,0.8,1.8,1.8,1.8h3.4c0.5,0,1,0.2,1.3,0.4l0.5,0.4
				c0.3,0.2,0.6,0.4,1,0.4v2c-1,0.4-1.8,1.4-1.8,2.5v3.7c-2.5,0.4-4.5,2.6-4.5,5.3V335c0,2,1.6,3.6,3.6,3.6H55c2,0,3.6-1.6,3.6-3.6
				v-26.8c0-2.6-1.9-4.8-4.5-5.3v-3.7c0-1.2-0.8-2.1-1.8-2.5v-2.2c0.5-0.3,0.9-0.9,0.9-1.5v-2.7c0-1-0.8-1.8-1.8-1.8L40.7,288.5z
				 M40.7,290.3h10.7v2.7h-3.9c-0.2,0-0.4-0.1-0.5-0.2l-0.5-0.4c-0.7-0.5-1.5-0.8-2.4-0.8h-3.4V290.3z M48.7,294.8h1.8v1.8h-1.8
				L48.7,294.8z M47.9,298.4h3.6c0.5,0,0.9,0.4,0.9,0.9v3.6H47v-3.6C47,298.7,47.4,298.4,47.9,298.4z M46.1,304.6h7.2
				c2,0,3.6,1.6,3.6,3.6V335c0,1-0.8,1.8-1.8,1.8H44.3c-1,0-1.8-0.8-1.8-1.8v-26.8C42.5,306.2,44.1,304.6,46.1,304.6z"/>
			<path class="st2" d="M3.1,292.1c-0.9,0-1.7,0.7-1.7,1.7v4.7c0,0.9,0.8,1.7,1.7,1.7h2.3c0.3,0.4,2.8,3.6,4.3,5.7
				c-0.4,0.3-0.7,0.8-0.7,1.4v28.1c0,1.7,1.4,3.1,3.1,3.1c1.7,0,3.1-1.4,3.1-3.1v-28.1c0-0.6-0.3-1.1-0.7-1.4l4.3-5.7h2.3
				c0.9,0,1.7-0.7,1.7-1.7v-4.7c0-0.9-0.8-1.7-1.7-1.7L3.1,292.1z M3.2,293.9h17.9v4.5H3.2V293.9z M7.7,300.1h8.9l-3.8,5
				c-0.2,0.2-0.4,0.4-0.7,0.4c-0.3,0-0.5-0.1-0.7-0.4C10.2,303.5,8.6,301.3,7.7,300.1z M10.8,307.3h2.7v28.1c0,0.8-0.6,1.3-1.3,1.3
				c-0.8,0-1.3-0.6-1.3-1.3L10.8,307.3z"/>
			<path class="st3" d="M4.1,295.2v1.8h16.1v-1.8H4.1z"/>
			<path class="st3" d="M25.3,313.6l-1.8,0.3l1.8,9.8l1.8-0.3L25.3,313.6z"/>
			<path class="st3" d="M30.7,313.6l-1.8,9.8l1.8,0.3l1.8-9.8L30.7,313.6z"/>
		</g>
		<rect x="25.4" y="38.4" class="st2" width="2.2" height="1.8"/>
	</g>
</g>
</svg>
