<?xml version="1.0" encoding="utf-8"?>
<!-- Generator: Adobe Illustrator 23.0.3, SVG Export Plug-In . SVG Version: 6.00 Build 0)  -->
<svg version="1.1" id="Layer_1" xmlns="http://www.w3.org/2000/svg" xmlns:xlink="http://www.w3.org/1999/xlink" x="0px" y="0px"
	 viewBox="0 0 50 50" style="enable-background:new 0 0 50 50;" xml:space="preserve">
<style type="text/css">
	.st0{display:none;}
	.st1{display:inline;}
	.st2{fill:#252525;}
	.st3{fill-rule:evenodd;clip-rule:evenodd;}
</style>
<g class="st0">
	<g class="st1">
		<path d="M39.2,32.5c-1.2-1.5-1.8-3.3-1.8-5.2V23c0-6.3-4.7-11.4-10.7-12.2V8.6c0-0.8-0.7-1.5-1.5-1.5s-1.5,0.7-1.5,1.5v2.2
			C17.7,11.5,13,16.7,13,23v4.3c0,1.9-0.6,3.7-1.8,5.2l-1.9,2.3c-1,1.2-1.2,2.8-0.5,4.3c0.7,1.4,2.1,2.3,3.6,2.3h5.9
			c0.3,3.5,3.3,6.4,6.9,6.4s6.7-2.8,7-6.4h5.9c1.6,0,2.9-0.9,3.6-2.3c0.7-1.4,0.5-3.1-0.5-4.3L39.2,32.5z M25,44.7
			c-1.9,0-3.6-1.4-3.9-3.3h7.8C28.6,43.2,27,44.7,25,44.7z M38.8,37.8c-0.1,0.2-0.3,0.5-0.8,0.5H12.1c-0.5,0-0.8-0.4-0.8-0.5
			c-0.1-0.2-0.2-0.6,0.1-1l1.9-2.3c1.6-2,2.5-4.5,2.5-7.1v-4.3c0-5.1,4.2-9.2,9.2-9.2s9.2,4.2,9.2,9.2v4.3c0,2.6,0.9,5.1,2.5,7.1
			l0,0l1.9,2.3C39,37.1,38.8,37.6,38.8,37.8z"/>
		<path d="M36.4,8.1c-0.7-0.5-1.6-0.4-2.2,0.3c-0.5,0.7-0.4,1.6,0.3,2.2c2.7,2.1,4.7,5,5.6,8.3c0.2,0.7,0.8,1.1,1.5,1.1
			c0.2,0,0.3,0,0.4-0.1c0.8-0.2,1.3-1.1,1.1-1.9C42,14.1,39.7,10.5,36.4,8.1z"/>
		<path d="M9.9,18.8c0.9-3.3,2.9-6.2,5.6-8.3c0.7-0.5,0.8-1.5,0.3-2.2c-0.5-0.7-1.5-0.8-2.2-0.3c-3.3,2.5-5.6,6-6.7,9.9
			c-0.2,0.8,0.3,1.7,1.1,1.9c0.2,0.1,0.3,0.1,0.4,0.1C9,19.9,9.6,19.5,9.9,18.8z"/>
		<path d="M50,18.5c-1.2-6.4-4.7-12.1-10-16c-0.7-0.5-1.6-0.4-2.2,0.3S37.5,4.5,38.2,5c4.7,3.4,7.8,8.4,8.8,14
			c0.2,0.7,0.8,1.3,1.5,1.3c0.1,0,0.2,0,0.3,0C49.6,20.2,50.1,19.4,50,18.5z"/>
		<path d="M11.9,5c0.7-0.5,0.8-1.5,0.3-2.2S10.7,2,10,2.5c-5.3,3.9-8.8,9.6-10,16c-0.2,0.8,0.4,1.6,1.3,1.8c0.1,0,0.2,0,0.3,0
			c0.7,0,1.4-0.5,1.5-1.3C4.1,13.4,7.2,8.4,11.9,5z"/>
	</g>
</g>
<g id="Layer_3">
	<path class="st2" d="M45.8,6.7h-4.2V3.3c0-1.8-1.5-3.3-3.3-3.3S35,1.5,35,3.3v3.3H15V3.3C15,1.5,13.5,0,11.7,0S8.3,1.5,8.3,3.3v3.3
		H4.2C1.9,6.7,0,8.5,0,10.8v35C0,48.1,1.9,50,4.2,50h41.7c2.3,0,4.2-1.9,4.2-4.2v-35C50,8.5,48.1,6.7,45.8,6.7z M36.7,3.3
		c0-0.9,0.7-1.7,1.7-1.7c0.9,0,1.7,0.7,1.7,1.7V10c0,0.9-0.7,1.7-1.7,1.7c-0.9,0-1.7-0.7-1.7-1.7V3.3z M10,3.3
		c0-0.9,0.7-1.7,1.7-1.7s1.7,0.7,1.7,1.7V10c0,0.9-0.7,1.7-1.7,1.7C10.8,11.7,10,11,10,10V3.3z M4.2,8.3h4.2V10
		c0,1.8,1.5,3.3,3.3,3.3S15,11.8,15,10V8.3h20V10c0,1.8,1.5,3.3,3.3,3.3s3.3-1.5,3.3-3.3V8.3h4.2c1.4,0,2.5,1.1,2.5,2.5v5.8H1.7
		v-5.8C1.7,9.5,2.8,8.3,4.2,8.3z M45.8,48.3H4.2c-1.4,0-2.5-1.1-2.5-2.5V18.3h46.7v27.5C48.3,47.2,47.2,48.3,45.8,48.3z"/>
	<rect x="24.2" y="13.3" class="st2" width="1.7" height="1.7"/>
	<rect x="27.5" y="13.3" class="st2" width="1.7" height="1.7"/>
	<rect x="20.8" y="13.3" class="st2" width="1.7" height="1.7"/>
	<path class="st2" d="M24.2,45c-5.3,0-9.9-3.7-11.3-8.7l3.5,1.2l0.5-1.6l-5-1.7c-0.3-0.1-0.6,0-0.9,0.2l-3.3,3.3l1.2,1.2l2.3-2.3
		c1.5,5.8,6.8,10.1,12.9,10.1c6.6,0,12.3-5,13.2-11.6l-1.7-0.2C34.9,40.7,30,45,24.2,45z"/>
	<path class="st2" d="M37.1,30.1C35.6,24.2,30.3,20,24.2,20c-6.6,0-12.3,5-13.2,11.6l1.7,0.2c0.8-5.8,5.7-10.1,11.6-10.1
		c5.3,0,9.9,3.7,11.3,8.7l-3.5-1.2l-0.5,1.6l5,1.7c0.1,0,0.2,0,0.3,0c0.2,0,0.4-0.1,0.6-0.2l3.3-3.3l-1.2-1.2L37.1,30.1z"/>
	<path class="st2" d="M23.9,37.3l5.8-5.8l-1.2-1.2l-5.2,5.2l-1.9-1.9l-1.2,1.2l2.5,2.5c0.2,0.2,0.4,0.2,0.6,0.2S23.8,37.4,23.9,37.3
		z"/>
</g>
<g id="Layer_4" class="st0">
	<g class="st1">
		<g>
			<g>
				<g>
					<g>
						<path d="M26.5,13.9c0.3,0.1,0.6,0.3,0.8,0.6c0.2,0.3,0.3,0.6,0.3,1.1c0,0.4-0.1,0.7-0.3,1c-0.2,0.3-0.5,0.5-0.8,0.7
							c-0.4,0.2-0.8,0.3-1.3,0.3v0.8c0,0.1,0,0.1-0.1,0.2c0,0-0.1,0.1-0.2,0.1s-0.1,0-0.2-0.1c0,0-0.1-0.1-0.1-0.2v-0.8
							c-0.8,0-1.5-0.2-2.2-0.5c-0.1,0-0.1-0.1-0.2-0.2s-0.1-0.2-0.1-0.2c0-0.1,0-0.2,0.1-0.3c0.1-0.1,0.2-0.1,0.3-0.1
							c0.1,0,0.1,0,0.2,0c0.5,0.2,1.2,0.4,1.8,0.4v-2.4c-0.5-0.1-0.9-0.3-1.2-0.4c-0.3-0.1-0.6-0.3-0.8-0.6c-0.2-0.3-0.3-0.6-0.3-1
							s0.1-0.7,0.3-1c0.2-0.3,0.5-0.6,0.8-0.8c0.4-0.2,0.8-0.3,1.3-0.3V9.5c0-0.1,0-0.1,0.1-0.2c0,0,0.1-0.1,0.2-0.1s0.1,0,0.2,0.1
							c0,0,0.1,0.1,0.1,0.2v0.8c0.6,0,1.2,0.1,1.8,0.3c0.2,0.1,0.3,0.2,0.3,0.4c0,0.1,0,0.2-0.1,0.3s-0.2,0.1-0.3,0.1
							c0,0-0.1,0-0.2,0c-0.5-0.2-1-0.3-1.5-0.3v2.5C25.8,13.7,26.2,13.8,26.5,13.9z M23.7,13c0.2,0.2,0.6,0.3,1.1,0.4v-2.3
							c-0.4,0-0.8,0.2-1.1,0.4c-0.3,0.2-0.4,0.5-0.4,0.8C23.3,12.6,23.5,12.8,23.7,13z M26.7,15.6c0-0.3-0.1-0.5-0.4-0.6
							c-0.2-0.2-0.6-0.3-1.1-0.4v2.2C26.2,16.7,26.7,16.3,26.7,15.6z"/>
					</g>
				</g>
			</g>
		</g>
		<g>
			<path d="M48.7,0H1.3C0.6,0,0,0.6,0,1.4v25.2C0,27.4,0.6,28,1.4,28h2.3c0,6.5,0,10.5,0,18.8c0,1.8,1.5,3.3,3.3,3.3h36.3
				c1.8,0,3.3-1.5,3.3-3.3c0-11.1,0-2.1,0-18.8h2.3c0.8,0,1.4-0.6,1.4-1.4V1.4C50,0.6,49.4,0,48.7,0z M42.1,22.6H7.9
				c-0.6-1.5-1.9-2.7-3.6-2.9V8.2c2-0.3,3.6-1.9,3.9-3.9h33.7c0.3,2,1.9,3.6,3.9,3.9v11.5C44.1,19.9,42.7,21.1,42.1,22.6z
				 M43.2,23.8c1.1,0,2.1,0.9,2.1,2.1V28H4.8v-2.1c0-1.1,0.9-2.1,2.1-2.1C6.8,23.8,43.2,23.8,43.2,23.8z M45.2,33.8H4.8v-4.7h40.5
				L45.2,33.8L45.2,33.8z M43.2,48.8H6.8c-1.1,0-2.1-0.9-2.1-2.1V35h40.5v11.8C45.2,47.9,44.3,48.8,43.2,48.8z M48.9,26.5
				c0,0.1-0.1,0.2-0.2,0.2h-2.3v-0.9c0-1.7-1.3-3.1-3-3.2c0.6-1,1.6-1.8,2.9-1.8c0.3,0,0.6-0.3,0.6-0.6V7.6c0-0.3-0.3-0.6-0.6-0.6
				C44.5,7,43,5.6,43,3.7c0-0.3-0.3-0.6-0.6-0.6H7.6C7.3,3.1,7,3.4,7,3.7C7,5.6,5.5,7,3.7,7C3.4,7,3.1,7.3,3.1,7.6v12.6
				c0,0.3,0.3,0.6,0.6,0.6c1.3,0,2.3,0.7,2.9,1.8c-1.7,0.1-3,1.5-3,3.2v0.9H1.3c-0.1,0-0.2-0.1-0.2-0.2V1.4c0-0.1,0.1-0.2,0.2-0.2
				h47.3c0.1,0,0.2,0.1,0.2,0.2v25.1H48.9z"/>
			<path d="M25,6c-3.5,0-6.4,3.6-6.4,7.9s2.9,7.9,6.4,7.9s6.4-3.6,6.4-7.9S28.5,6,25,6z M25,20.7c-2.9,0-5.2-3-5.2-6.8
				s2.3-6.8,5.2-6.8s5.2,3,5.2,6.8S27.9,20.7,25,20.7z"/>
			<path d="M10.8,11c-1.6,0-2.9,1.3-2.9,2.9s1.3,2.9,2.9,2.9s2.9-1.3,2.9-2.9C13.7,12.3,12.4,11,10.8,11z M10.8,15.7
				c-1,0-1.7-0.8-1.7-1.7c0-1,0.8-1.7,1.7-1.7s1.7,0.8,1.7,1.7S11.7,15.7,10.8,15.7z"/>
			<path d="M39.2,11c-1.6,0-2.9,1.3-2.9,2.9s1.3,2.9,2.9,2.9s2.9-1.3,2.9-2.9C42.1,12.3,40.8,11,39.2,11z M39.2,15.7
				c-1,0-1.7-0.8-1.7-1.7c0-1,0.8-1.7,1.7-1.7S41,13,41,14C41,14.9,40.2,15.7,39.2,15.7z"/>
			<path d="M30.3,39.2H9.1c-0.3,0-0.6,0.3-0.6,0.6v4.3c0,0.3,0.3,0.6,0.6,0.6h21.3c0.3,0,0.6-0.3,0.6-0.6v-4.3
				C30.9,39.4,30.6,39.2,30.3,39.2z M29.7,43.5H9.6v-3.2h20.1V43.5z"/>
			<path d="M40.9,39.2h-6.7c-0.3,0-0.6,0.3-0.6,0.6v4.3c0,0.3,0.3,0.6,0.6,0.6h6.7c0.3,0,0.6-0.3,0.6-0.6v-4.3
				C41.5,39.4,41.2,39.2,40.9,39.2z M40.3,43.5h-5.6v-3.2h5.6V43.5z"/>
		</g>
	</g>
</g>
<g id="Layer_5" class="st0">
	<g class="st1">
		<g transform="translate(0,-288.53332)">
			<path class="st3" d="M31.7,301.5c-0.1,0-0.3,0-0.4,0.1l-2.6,1.3c-1.1,0.6-2.3,0.8-3.6,0.8h-7.2c-0.8,0-1.7,0.2-2.4,0.7
				c-0.7,0.5-1.2,1.4-1.2,2.4l0,0c0,1.1,0.5,2,1.3,2.7c-1.3,1-2,2.8-1.6,4.5l3,13.9c0,0,0,4,0,6c0,2.4,2,4.5,4.4,4.5h3.1
				c2.4,0,4.5-2,4.5-4.4v-6.2l3-13.8c0.4-1.9-0.4-3.7-1.8-4.7c1.4-1,2.4-2.6,2.4-4.5v-2.7C32.6,301.9,32.2,301.5,31.7,301.5
				L31.7,301.5z M30.8,303.8v1.2c0,2-1.6,3.6-3.6,3.6c-3.1,0-6.3,0-9.4,0c-1,0-1.8-0.8-1.8-1.8c0-0.5,0.2-0.8,0.5-1
				c0.3-0.2,0.8-0.4,1.2-0.4c2.4,0,4.9,0,7.3,0c1.5,0,3-0.4,4.4-1L30.8,303.8z M18.2,310.4c3.2,0,6.3,0,9.5,0.1c1.8,0,3,1.6,2.6,3.3
				l0,0L27.4,327h-5.1v1.8h4.9v5.4c0,1.5-1.2,2.7-2.7,2.7h-3.1c-1.5,0-2.7-1.2-2.7-2.7v-5.4h1.8V327h-2l-2.9-13.2l0,0
				C15.3,312,16.5,310.5,18.2,310.4L18.2,310.4z"/>
			<path d="M35.7,288.5c-1,0-1.8,0.8-1.8,1.8v1.3c0,1,0.8,1.8,1.8,1.8h3.4c0.5,0,1,0.2,1.3,0.4l0.5,0.4c0.3,0.2,0.6,0.4,1,0.4v2
				c-1,0.4-1.8,1.4-1.8,2.5v3.7c-2.5,0.4-4.5,2.6-4.5,5.3V335c0,2,1.6,3.6,3.6,3.6H50c2,0,3.6-1.6,3.6-3.6v-26.8
				c0-2.6-1.9-4.8-4.5-5.3v-3.7c0-1.2-0.8-2.1-1.8-2.5v-2.2c0.5-0.3,0.9-0.9,0.9-1.5v-2.7c0-1-0.8-1.8-1.8-1.8H35.7z M35.7,290.3
				h10.7v2.7h-3.9c-0.2,0-0.4-0.1-0.5-0.2l-0.5-0.4c-0.7-0.5-1.5-0.8-2.4-0.8h-3.4C35.7,291.6,35.7,290.3,35.7,290.3z M43.7,294.8
				h1.8v1.8h-1.8V294.8z M42.9,298.4h3.6c0.5,0,0.9,0.4,0.9,0.9v3.6H42v-3.6C42,298.7,42.4,298.4,42.9,298.4z M41.1,304.6h7.2
				c2,0,3.6,1.6,3.6,3.6V335c0,1-0.8,1.8-1.8,1.8H39.3c-1,0-1.8-0.8-1.8-1.8v-26.8C37.5,306.2,39.1,304.6,41.1,304.6z"/>
			<path d="M-1.9,292.1c-0.9,0-1.7,0.7-1.7,1.7v4.7c0,0.9,0.8,1.7,1.7,1.7h2.3c0.3,0.4,2.8,3.6,4.3,5.7c-0.4,0.3-0.7,0.8-0.7,1.4
				v28.1c0,1.7,1.4,3.1,3.1,3.1s3.1-1.4,3.1-3.1v-28.1c0-0.6-0.3-1.1-0.7-1.4l4.3-5.7h2.3c0.9,0,1.7-0.7,1.7-1.7v-4.7
				c0-0.9-0.8-1.7-1.7-1.7H-1.9z M-1.8,293.9h17.9v4.5H-1.8V293.9z M2.7,300.1h8.9l-3.8,5c-0.2,0.2-0.4,0.4-0.7,0.4
				c-0.3,0-0.5-0.1-0.7-0.4C5.2,303.5,3.6,301.3,2.7,300.1z M5.8,307.3h2.7v28.1c0,0.8-0.6,1.3-1.3,1.3c-0.8,0-1.3-0.6-1.3-1.3
				L5.8,307.3z"/>
			<path class="st3" d="M-0.9,295.2v1.8h16.1v-1.8H-0.9z"/>
			<path class="st3" d="M20.3,313.6l-1.8,0.3l1.8,9.8l1.8-0.3L20.3,313.6z"/>
			<path class="st3" d="M25.7,313.6l-1.8,9.8l1.8,0.3l1.8-9.8L25.7,313.6z"/>
		</g>
		<rect x="20.4" y="38.4" width="2.2" height="1.8"/>
	</g>
</g>
</svg>
