<?xml version="1.0" encoding="utf-8"?>
<!-- Generator: Adobe Illustrator 23.0.3, SVG Export Plug-In . SVG Version: 6.00 Build 0)  -->
<svg version="1.1" xmlns="http://www.w3.org/2000/svg" xmlns:xlink="http://www.w3.org/1999/xlink" x="0px" y="0px"
	 viewBox="0 0 70 50" style="enable-background:new 0 0 70 50;" xml:space="preserve">
<style type="text/css">
	.st0{display:none;}
	.st1{display:inline;}
	.st2{fill:#252525;}
	.st3{display:inline;fill:#252525;}
	.st4{fill-rule:evenodd;clip-rule:evenodd;fill:#252525;}
</style>
<g id="Layer_1">
</g>
<g id="Layer_2" class="st0">
	<g transform="translate(0,-952.36218)" class="st1">
		<path class="st2" d="M59,952.4c-0.3,0-0.7,0.1-0.9,0.3l-4.7,4.7c-5.2-0.9-10.4-1.8-15.5-2.8c-0.3,0-0.7,0.1-0.9,0.3l-26.6,26.6
			c-0.4,0.4-0.4,1.2,0,1.6l18.9,18.9c0.4,0.4,1.2,0.4,1.6,0l26.6-26.6c0.3-0.3,0.4-0.7,0.3-1L54.9,959l4.7-4.7
			c0.3-0.3,0.4-0.8,0.3-1.2S59.4,952.4,59,952.4L59,952.4z M51.4,959.4l-2.5,2.5c-0.9-0.6-2-0.9-3.1-0.9c-3.1,0-5.7,2.6-5.7,5.7
			c0,3.1,2.6,5.7,5.7,5.7c3.1,0,5.7-2.6,5.7-5.7c0-1.2-0.4-2.2-1-3.1L53,961l2.4,13.3L30,999.6l-17.3-17.3L38.1,957L51.4,959.4z
			 M49.2,966.6c0,1.9-1.5,3.4-3.4,3.4c-1.9,0-3.4-1.5-3.4-3.4c0-1.9,1.5-3.4,3.4-3.4C47.7,963.2,49.2,964.7,49.2,966.6z"/>
	</g>
</g>
<g id="Layer_3" class="st0">
	<g class="st1">
		<path d="M22.5,39.3c-1,0-1.8,0.8-1.8,1.8c0,1,0.8,1.8,1.8,1.8c1,0,1.8-0.8,1.8-1.8C24.3,40.1,23.5,39.3,22.5,39.3z"/>
		<path d="M77.9,25L63.5,10.7l-10.6,0h-0.1V3.6c0-2-1.6-3.6-3.6-3.6H10C8,0,6.4,1.6,6.4,3.6H-6.1c-1,0-1.8,0.8-1.8,1.8
			s0.8,1.8,1.8,1.8H6.4l0,7.1h-8.9c-1,0-1.8,0.8-1.8,1.8c0,1,0.8,1.8,1.8,1.8h8.9V25H1.1c-1,0-1.8,0.8-1.8,1.8s0.8,1.8,1.8,1.8h5.4
			v7.1H4.6c-1,0-1.8,0.8-1.8,1.8s0.8,1.8,1.8,1.8h1.8c0,2,1.6,3.6,3.6,3.6h3.8c0.8,4.1,4.4,7.1,8.7,7.1c4.3,0,7.9-3.1,8.7-7.1h18
			h5.5c0.8,4.1,4.4,7.1,8.7,7.1c4.3,0,7.9-3.1,8.7-7.1h5.5L77.9,25z M22.5,46.4c-3,0-5.4-2.4-5.4-5.4c0-3,2.4-5.4,5.4-5.4
			c3,0,5.4,2.4,5.4,5.4C27.9,44,25.5,46.4,22.5,46.4z M49.3,39.3h-18c-0.8-4.1-4.4-7.1-8.7-7.1c-4.3,0-7.9,3.1-8.7,7.1H10l0-35.7
			h39.3v0L49.3,39.3z M63.6,46.4c-3,0-5.4-2.4-5.4-5.4c0-3,2.4-5.4,5.4-5.4c3,0,5.4,2.4,5.4,5.4C68.9,44,66.5,46.4,63.6,46.4z
			 M74.3,39.3h-1.9c-0.8-4.1-4.4-7.1-8.7-7.1c-4.3,0-7.9,3.1-8.7,7.1h-2l0-25H53l9.1,0l12.2,12.2L74.3,39.3z"/>
		<path d="M63.6,39.3c-1,0-1.8,0.8-1.8,1.8c0,1,0.8,1.8,1.8,1.8s1.8-0.8,1.8-1.8C65.4,40.1,64.6,39.3,63.6,39.3z"/>
	</g>
</g>
<g id="Layer_5" class="st0">
	<path class="st3" d="M67.4,17.1c-1.2-2.4-3.7-4-6.4-4H49v-8C49,2.3,46.7,0,43.9,0H10.7C7.8,0,5.6,2.3,5.5,5.1v1.7h2.9V5.1
		c0-1.2,1-2.2,2.2-2.2h33.2c1.2,0,2.2,1,2.2,2.2v35.8h-20c-0.8-4.1-4.8-6.8-8.9-6c-3.1,0.6-5.4,3-6,6H4.7c-0.8,0-1.5,0.7-1.5,1.5
		c0,0.8,0.7,1.5,1.5,1.5h6.4c0.8,4.1,4.8,6.8,8.9,6c3.1-0.6,5.4-3,6-6h24.8c0.8,4.1,4.8,6.8,8.9,6c3.1-0.6,5.4-3,6-6h4.9
		c0.8,0,1.5-0.7,1.5-1.5c0,0,0,0,0,0V26.9c0-0.2-0.1-0.4-0.2-0.7L67.4,17.1z M18.6,47.1c-2.6,0-4.7-2.1-4.7-4.7
		c0-2.6,2.1-4.7,4.7-4.7c2.6,0,4.7,2.1,4.7,4.7c0,0,0,0,0,0C23.3,45,21.2,47.1,18.6,47.1z M61,16.1c1.6,0,3.1,0.9,3.8,2.3l4.4,8.9v1
		H49V16.1H61z M58.3,47.1c-2.6,0-4.7-2.1-4.7-4.7c0-2.6,2.1-4.7,4.7-4.7c2.6,0,4.7,2.1,4.7,4.7c0,0,0,0,0,0
		C63,45,60.9,47.1,58.3,47.1z M65.8,40.9c-0.8-4.1-4.8-6.8-8.9-6c-3.1,0.6-5.4,3-6,6H49v-9.7h20.2v9.7L65.8,40.9z M2,14.1
		c0-0.8,0.7-1.5,1.5-1.5c0,0,0,0,0,0h20.9c0.8,0,1.5,0.6,1.5,1.5c0,0.8-0.6,1.5-1.5,1.5c0,0,0,0,0,0H3.4C2.6,15.5,2,14.9,2,14.1
		C2,14.1,2,14.1,2,14.1z M-2.1,22c0-0.8,0.7-1.5,1.5-1.5c0,0,0,0,0,0h21.1c0.8,0,1.5,0.6,1.5,1.5c0,0.8-0.6,1.5-1.5,1.5c0,0,0,0,0,0
		H-0.7C-1.5,23.5-2.1,22.8-2.1,22C-2.1,22-2.1,22-2.1,22z M21.9,29.9c0,0.8-0.7,1.5-1.5,1.5c0,0,0,0,0,0h-15c-0.8,0-1.5-0.6-1.5-1.5
		c0-0.8,0.6-1.5,1.5-1.5c0,0,0,0,0,0h15C21.3,28.5,21.9,29.1,21.9,29.9C21.9,29.9,21.9,29.9,21.9,29.9z"/>
</g>
<g id="Layer_4" class="st0">
	<g class="st1">
		<g transform="translate(0,-288.53332)">
			<path class="st4" d="M41.7,301.5c-0.1,0-0.3,0-0.4,0.1l-2.6,1.3c-1.1,0.6-2.3,0.8-3.6,0.8h-7.2c-0.8,0-1.7,0.2-2.4,0.7
				c-0.7,0.5-1.2,1.4-1.2,2.4v0c0,1.1,0.5,2,1.3,2.7c-1.3,1-2,2.8-1.6,4.5l3,13.9c0,0,0,4,0,6c0,2.4,2,4.5,4.4,4.5h3.1
				c2.4,0,4.5-2,4.5-4.4l0-6.2l3-13.8c0.4-1.9-0.4-3.7-1.8-4.7c1.4-1,2.4-2.6,2.4-4.5v-2.7C42.6,301.9,42.2,301.5,41.7,301.5
				L41.7,301.5z M40.8,303.8v1.2c0,2-1.6,3.6-3.6,3.6c-3.1,0-6.3,0-9.4,0c-1,0-1.8-0.8-1.8-1.8c0-0.5,0.2-0.8,0.5-1
				c0.3-0.2,0.8-0.4,1.2-0.4c2.4,0,4.9,0,7.3,0c1.5,0,3-0.4,4.4-1L40.8,303.8z M28.2,310.4c3.2,0,6.3,0,9.5,0.1c1.8,0,3,1.6,2.6,3.3
				v0l-2.9,13.2l-5.1,0l0,1.8l4.9,0l0,5.4c0,1.5-1.2,2.7-2.7,2.7h-3.1c-1.5,0-2.7-1.2-2.7-2.7l0-5.4l1.8,0l0-1.8l-2,0l-2.9-13.2v0
				C25.3,312,26.5,310.5,28.2,310.4L28.2,310.4z"/>
			<path class="st2" d="M45.7,288.5c-1,0-1.8,0.8-1.8,1.8v1.3c0,1,0.8,1.8,1.8,1.8h3.4c0.5,0,1,0.2,1.3,0.4l0.5,0.4
				c0.3,0.2,0.6,0.4,1,0.4v2c-1,0.4-1.8,1.4-1.8,2.5v3.7c-2.5,0.4-4.5,2.6-4.5,5.3V335c0,2,1.6,3.6,3.6,3.6H60c2,0,3.6-1.6,3.6-3.6
				v-26.8c0-2.6-1.9-4.8-4.5-5.3v-3.7c0-1.2-0.8-2.1-1.8-2.5v-2.2c0.5-0.3,0.9-0.9,0.9-1.5v-2.7c0-1-0.8-1.8-1.8-1.8L45.7,288.5z
				 M45.7,290.3h10.7v2.7h-3.9c-0.2,0-0.4-0.1-0.5-0.2l-0.5-0.4c-0.7-0.5-1.5-0.8-2.4-0.8h-3.4V290.3z M53.7,294.8h1.8v1.8h-1.8
				L53.7,294.8z M52.9,298.4h3.6c0.5,0,0.9,0.4,0.9,0.9v3.6H52v-3.6C52,298.7,52.4,298.4,52.9,298.4z M51.1,304.6h7.2
				c2,0,3.6,1.6,3.6,3.6V335c0,1-0.8,1.8-1.8,1.8H49.3c-1,0-1.8-0.8-1.8-1.8v-26.8C47.5,306.2,49.1,304.6,51.1,304.6z"/>
			<path class="st2" d="M8.1,292.1c-0.9,0-1.7,0.7-1.7,1.7v4.7c0,0.9,0.8,1.7,1.7,1.7h2.3c0.3,0.4,2.8,3.6,4.3,5.7
				c-0.4,0.3-0.7,0.8-0.7,1.4v28.1c0,1.7,1.4,3.1,3.1,3.1c1.7,0,3.1-1.4,3.1-3.1v-28.1c0-0.6-0.3-1.1-0.7-1.4l4.3-5.7h2.3
				c0.9,0,1.7-0.7,1.7-1.7v-4.7c0-0.9-0.8-1.7-1.7-1.7L8.1,292.1z M8.2,293.9h17.9v4.5H8.2V293.9z M12.7,300.1h8.9l-3.8,5
				c-0.2,0.2-0.4,0.4-0.7,0.4c-0.3,0-0.5-0.1-0.7-0.4C15.2,303.5,13.6,301.3,12.7,300.1z M15.8,307.3h2.7v28.1
				c0,0.8-0.6,1.3-1.3,1.3c-0.8,0-1.3-0.6-1.3-1.3L15.8,307.3z"/>
			<path class="st4" d="M9.1,295.2v1.8h16.1v-1.8H9.1z"/>
			<path class="st4" d="M30.3,313.6l-1.8,0.3l1.8,9.8l1.8-0.3L30.3,313.6z"/>
			<path class="st4" d="M35.7,313.6l-1.8,9.8l1.8,0.3l1.8-9.8L35.7,313.6z"/>
		</g>
		<rect x="30.4" y="38.4" class="st2" width="2.2" height="1.8"/>
	</g>
</g>
<g id="Layer_6" class="st0">
	<path class="st3" d="M14.9,42.1h6.1c0.2,0,0.4,0,0.5-0.1c0.5,3.1,3.1,5.5,6.3,5.5s5.9-2.4,6.3-5.4c0.1,0,0.2,0,0.4,0h21.5h3.8
		c0.5,3,3.1,5.4,6.3,5.4c3.2,0,5.9-2.4,6.3-5.4h5c0.8,0,1.6-0.7,1.6-1.6V23.4c0-4.4-1.2-8-3.6-10.5c-2.2-2.4-5.3-3.7-8.7-3.7h-9.2
		V4.1c0-0.8-0.7-1.6-1.6-1.6H14.9c-0.8,0-1.6,0.7-1.6,1.6v36.5C13.4,41.4,14.1,42.1,14.9,42.1z M66.3,44.3c-1.8,0-3.3-1.5-3.3-3.3
		s1.5-3.3,3.3-3.3s3.3,1.5,3.3,3.3C69.6,42.8,68.1,44.3,66.3,44.3z M57.7,12.3h9.2c5.7,0,9.2,4.2,9.2,11v15.6h-3.8
		c-0.9-2.5-3.3-4.3-6-4.3c-2.8,0-5.2,1.8-6,4.3h-2.4L57.7,12.3L57.7,12.3z M28,44.3c-1.8,0-3.3-1.5-3.3-3.3s1.5-3.3,3.3-3.3
		s3.3,1.5,3.3,3.3C31.2,42.8,29.8,44.3,28,44.3z M16.5,5.6h38v5.1v28.1H34.6c-0.2,0-0.4,0-0.5,0.1c-0.8-2.6-3.3-4.4-6.1-4.4
		c-2.8,0-5.3,1.9-6.1,4.5c-0.2-0.1-0.5-0.2-0.7-0.2h-4.6V5.6z M-9.2,13.3c0-0.8,0.7-1.6,1.6-1.6h15c0.8,0,1.6,0.7,1.6,1.6
		s-0.7,1.6-1.6,1.6h-15C-8.4,14.9-9.2,14.1-9.2,13.3z M7.4,23.9H-5.2c-0.8,0-1.6-0.7-1.6-1.6c0-0.8,0.7-1.6,1.6-1.6H7.4
		c0.8,0,1.6,0.7,1.6,1.6C9,23.1,8.2,23.9,7.4,23.9z M-4.7,31.2c0-0.8,0.7-1.6,1.6-1.6H7.3c0.8,0,1.6,0.7,1.6,1.6
		c0,0.8-0.7,1.6-1.6,1.6H-3.1C-4,32.8-4.7,32.1-4.7,31.2z"/>
</g>
<g id="Layer_7">
	<g>
		<g>
			<path class="st2" d="M17.5,15.4H1.4c-0.6,0-1.1-0.5-1.1-1.1s0.5-1.1,1.1-1.1h16.1c0.6,0,1.1,0.5,1.1,1.1S18.1,15.4,17.5,15.4z"/>
			<path class="st2" d="M17.5,28.2H1.4c-0.6,0-1.1-0.5-1.1-1.1c0-0.6,0.5-1.1,1.1-1.1h16.1c0.6,0,1.1,0.5,1.1,1.1
				C18.6,27.7,18.1,28.2,17.5,28.2z"/>
			<path class="st2" d="M22.9,20.7c0-0.6-0.5-1.1-1.1-1.1H5.7c-0.6,0-1.1,0.5-1.1,1.1c0,0.6,0.5,1.1,1.1,1.1h16.1
				C22.4,21.8,22.9,21.3,22.9,20.7z"/>
			<path class="st2" d="M55.7,15.4h-7.5V4.6c0-1.2-1-2.1-2.1-2.1H8.9c-1.2,0-2.1,1-2.1,2.1V10c0,0.6,0.5,1.1,1.1,1.1
				s1.1-0.5,1.1-1.1V4.6h37.1v22.5c0,0.6,0.5,1.1,1.1,1.1s1.1-0.5,1.1-1.1v-9.6h7.5c6.5,0,11.8,5.3,11.8,11.8v9.6H65
				c-1.2-3.3-4.9-5.1-8.2-3.8c-1.8,0.6-3.2,2.1-3.8,3.8h-4.7v-5.4c0-0.6-0.5-1.1-1.1-1.1s-1.1,0.5-1.1,1.1v5.4H27.8
				c-1.2-3.3-4.9-5.1-8.2-3.8c-1.8,0.6-3.2,2.1-3.8,3.8H8.9v-7.5c0-0.6-0.5-1.1-1.1-1.1s-1.1,0.5-1.1,1.1v7.5c0,1.2,1,2.1,2.1,2.1
				h6.4c0,3.6,2.9,6.4,6.4,6.4s6.4-2.9,6.4-6.4h24.3c0,3.6,2.9,6.4,6.4,6.4c3.6,0,6.4-2.9,6.4-6.4h2.1c1.2,0,2.1-1,2.1-2.1v-9.6
				C69.6,21.6,63.4,15.4,55.7,15.4z M21.8,45.4c-2.4,0-4.3-1.9-4.3-4.3c0-0.7,0.2-1.5,0.6-2.1c1.2-2,3.8-2.7,5.9-1.5
				c0.6,0.4,1.1,0.9,1.5,1.5c1.2,2,0.5,4.7-1.6,5.9C23.3,45.2,22.5,45.4,21.8,45.4z M58.9,45.4c-2.4,0-4.3-1.9-4.3-4.3
				c0-0.7,0.2-1.5,0.6-2.1c1.2-2,3.8-2.7,5.9-1.5c0.6,0.4,1.1,0.9,1.5,1.5c1.2,2,0.5,4.7-1.6,5.9C60.4,45.2,59.7,45.4,58.9,45.4z"/>
		</g>
	</g>
</g>
</svg>
