<?xml version="1.0" encoding="utf-8"?>
<!-- Generator: Adobe Illustrator 23.0.3, SVG Export Plug-In . SVG Version: 6.00 Build 0)  -->
<svg version="1.1" id="Layer_1" xmlns="http://www.w3.org/2000/svg" xmlns:xlink="http://www.w3.org/1999/xlink" x="0px" y="0px"
	 viewBox="0 0 60 50" style="enable-background:new 0 0 60 50;" xml:space="preserve">
<style type="text/css">
	.st0{fill:#252525;}
	.st1{display:none;}
	.st2{display:inline;}
	.st3{fill-rule:evenodd;clip-rule:evenodd;}
</style>
<g>
	<g>
		<path class="st0" d="M44,32.4c-1.2-1.4-1.8-3.2-1.8-5.1V23c0-6.2-4.6-11.3-10.6-12.1V8.8c0-0.8-0.7-1.5-1.5-1.5S28.6,8,28.6,8.8
			v2.2c-5.9,0.7-10.6,5.9-10.6,12.1v4.2c0,1.9-0.6,3.7-1.8,5.1l-1.9,2.3c-1,1.2-1.2,2.8-0.5,4.2c0.6,1.4,2.1,2.3,3.6,2.3h5.9
			c0.3,3.5,3.2,6.3,6.8,6.3c3.6,0,6.6-2.8,6.9-6.3h5.9c1.5,0,2.9-0.9,3.6-2.3c0.7-1.4,0.5-3-0.5-4.2L44,32.4z M30,44.4
			c-1.9,0-3.5-1.4-3.9-3.2h7.7C33.5,43,31.9,44.4,30,44.4z M43.6,37.6c-0.1,0.2-0.3,0.5-0.8,0.5H17.3c-0.5,0-0.8-0.4-0.8-0.5
			s-0.2-0.5,0.1-1l1.9-2.3c1.6-2,2.5-4.5,2.5-7v-4.2c0-5,4.1-9.1,9.1-9.1s9.1,4.1,9.1,9.1v4.2c0,2.5,0.9,5,2.5,7l0,0l1.9,2.3
			C43.9,37,43.7,37.4,43.6,37.6z"/>
		<path class="st0" d="M41.3,8.2c-0.7-0.5-1.6-0.4-2.2,0.3c-0.5,0.7-0.4,1.6,0.3,2.2c2.6,2.1,4.6,5,5.6,8.2c0.2,0.7,0.8,1.1,1.4,1.1
			c0.2,0,0.3,0,0.5-0.1c0.8-0.2,1.3-1.1,1.1-1.9C46.8,14.2,44.5,10.7,41.3,8.2z"/>
		<path class="st0" d="M15,18.9c0.9-3.2,2.9-6.1,5.6-8.2c0.7-0.5,0.8-1.4,0.3-2.2s-1.4-0.8-2.2-0.3c-3.2,2.4-5.6,5.9-6.7,9.8
			c-0.2,0.8,0.3,1.6,1.1,1.9c0.2,0.1,0.3,0.1,0.5,0.1C14.2,19.9,14.8,19.5,15,18.9z"/>
		<path class="st0" d="M54.7,18.6c-1.2-6.3-4.6-12-9.9-15.9C44,2.2,43.1,2.4,42.6,3s-0.4,1.6,0.3,2.2c4.6,3.4,7.7,8.3,8.6,13.9
			c0.2,0.7,0.8,1.3,1.5,1.3c0.1,0,0.2,0,0.3,0C54.3,20.2,54.8,19.4,54.7,18.6z"/>
		<path class="st0" d="M17,5.3c0.7-0.5,0.8-1.4,0.3-2.2s-1.4-0.8-2.2-0.3c-5.2,3.9-8.7,9.5-9.9,15.9c-0.2,0.8,0.5,1.6,1.3,1.8
			c0.1,0,0.2,0,0.3,0c0.7,0,1.4-0.5,1.5-1.3C9.3,13.6,12.4,8.6,17,5.3z"/>
	</g>
</g>
<g id="Layer_3" class="st1">
	<path class="st2" d="M50.8,6.7h-4.2V3.3c0-1.8-1.5-3.3-3.3-3.3S40,1.5,40,3.3v3.3H20V3.3C20,1.5,18.5,0,16.7,0s-3.3,1.5-3.3,3.3
		v3.3H9.2C6.9,6.7,5,8.5,5,10.8v35C5,48.1,6.9,50,9.2,50h41.7c2.3,0,4.2-1.9,4.2-4.2v-35C55,8.5,53.1,6.7,50.8,6.7z M41.7,3.3
		c0-0.9,0.7-1.7,1.7-1.7c0.9,0,1.7,0.7,1.7,1.7V10c0,0.9-0.7,1.7-1.7,1.7c-0.9,0-1.7-0.7-1.7-1.7V3.3z M15,3.3
		c0-0.9,0.7-1.7,1.7-1.7c0.9,0,1.7,0.7,1.7,1.7V10c0,0.9-0.7,1.7-1.7,1.7C15.8,11.7,15,11,15,10V3.3z M9.2,8.3h4.2V10
		c0,1.8,1.5,3.3,3.3,3.3S20,11.8,20,10V8.3h20V10c0,1.8,1.5,3.3,3.3,3.3s3.3-1.5,3.3-3.3V8.3h4.2c1.4,0,2.5,1.1,2.5,2.5v5.8H6.7
		v-5.8C6.7,9.5,7.8,8.3,9.2,8.3z M50.8,48.3H9.2c-1.4,0-2.5-1.1-2.5-2.5V18.3h46.7v27.5C53.3,47.2,52.2,48.3,50.8,48.3z"/>
	<rect x="29.2" y="13.3" class="st2" width="1.7" height="1.7"/>
	<rect x="32.5" y="13.3" class="st2" width="1.7" height="1.7"/>
	<rect x="25.8" y="13.3" class="st2" width="1.7" height="1.7"/>
	<path class="st2" d="M29.2,45c-5.3,0-9.9-3.7-11.3-8.7l3.5,1.2l0.5-1.6l-5-1.7c-0.3-0.1-0.6,0-0.9,0.2l-3.3,3.3l1.2,1.2l2.3-2.3
		c1.5,5.8,6.8,10.1,12.9,10.1c6.6,0,12.3-5,13.2-11.6l-1.7-0.2C39.9,40.7,35,45,29.2,45z"/>
	<path class="st2" d="M42.1,30.1C40.6,24.2,35.3,20,29.2,20c-6.6,0-12.3,5-13.2,11.6l1.7,0.2c0.8-5.8,5.7-10.1,11.6-10.1
		c5.3,0,9.9,3.7,11.3,8.7l-3.5-1.2l-0.5,1.6l5,1.7c0.1,0,0.2,0,0.3,0c0.2,0,0.4-0.1,0.6-0.2l3.3-3.3l-1.2-1.2L42.1,30.1z"/>
	<path class="st2" d="M28.9,37.3l5.8-5.8l-1.2-1.2l-5.2,5.2l-1.9-1.9l-1.2,1.2l2.5,2.5c0.2,0.2,0.4,0.2,0.6,0.2S28.8,37.4,28.9,37.3
		z"/>
</g>
<g id="Layer_4" class="st1">
	<g class="st2">
		<g>
			<g>
				<g>
					<g>
						<path d="M31.5,13.9c0.3,0.1,0.6,0.3,0.8,0.6s0.3,0.6,0.3,1.1c0,0.4-0.1,0.7-0.3,1s-0.5,0.5-0.8,0.7c-0.4,0.2-0.8,0.3-1.3,0.3
							v0.8c0,0.1,0,0.1-0.1,0.2c0,0-0.1,0.1-0.2,0.1s-0.1,0-0.2-0.1c0,0-0.1-0.1-0.1-0.2v-0.8c-0.8,0-1.5-0.2-2.2-0.5
							c-0.1,0-0.1-0.1-0.2-0.2s-0.1-0.2-0.1-0.2c0-0.1,0-0.2,0.1-0.3c0.1-0.1,0.2-0.1,0.3-0.1c0.1,0,0.1,0,0.2,0
							c0.5,0.2,1.2,0.4,1.8,0.4v-2.4c-0.5-0.1-0.9-0.3-1.2-0.4c-0.3-0.1-0.6-0.3-0.8-0.6c-0.2-0.3-0.3-0.6-0.3-1s0.1-0.7,0.3-1
							c0.2-0.3,0.5-0.6,0.8-0.8c0.4-0.2,0.8-0.3,1.3-0.3V9.5c0-0.1,0-0.1,0.1-0.2c0,0,0.1-0.1,0.2-0.1s0.1,0,0.2,0.1
							c0,0,0.1,0.1,0.1,0.2v0.8c0.6,0,1.2,0.1,1.8,0.3c0.2,0.1,0.3,0.2,0.3,0.4c0,0.1,0,0.2-0.1,0.3s-0.2,0.1-0.3,0.1
							c0,0-0.1,0-0.2,0c-0.5-0.2-1-0.3-1.5-0.3v2.5C30.8,13.7,31.2,13.8,31.5,13.9z M28.7,13c0.2,0.2,0.6,0.3,1.1,0.4v-2.3
							c-0.4,0-0.8,0.2-1.1,0.4c-0.3,0.2-0.4,0.5-0.4,0.8C28.3,12.6,28.5,12.8,28.7,13z M31.7,15.6c0-0.3-0.1-0.5-0.4-0.6
							c-0.2-0.2-0.6-0.3-1.1-0.4v2.2C31.2,16.7,31.7,16.3,31.7,15.6z"/>
					</g>
				</g>
			</g>
		</g>
		<g>
			<path d="M53.7,0H6.3C5.6,0,5,0.6,5,1.4v25.2C5,27.4,5.6,28,6.4,28h2.3c0,6.5,0,10.5,0,18.8c0,1.8,1.5,3.3,3.3,3.3h36.3
				c1.8,0,3.3-1.5,3.3-3.3c0-11.1,0-2.1,0-18.8h2.3c0.8,0,1.4-0.6,1.4-1.4V1.4C55,0.6,54.4,0,53.7,0z M47.1,22.6H12.9
				c-0.6-1.5-1.9-2.7-3.6-2.9V8.2c2-0.3,3.6-1.9,3.9-3.9h33.7c0.3,2,1.9,3.6,3.9,3.9v11.5C49.1,19.9,47.7,21.1,47.1,22.6z
				 M48.2,23.8c1.1,0,2.1,0.9,2.1,2.1V28H9.8v-2.1c0-1.1,0.9-2.1,2.1-2.1C11.8,23.8,48.2,23.8,48.2,23.8z M50.2,33.8H9.8v-4.7h40.5
				L50.2,33.8L50.2,33.8z M48.2,48.8H11.8c-1.1,0-2.1-0.9-2.1-2.1V35h40.5v11.8C50.2,47.9,49.3,48.8,48.2,48.8z M53.9,26.5
				c0,0.1-0.1,0.2-0.2,0.2h-2.3v-0.9c0-1.7-1.3-3.1-3-3.2c0.6-1,1.6-1.8,2.9-1.8c0.3,0,0.6-0.3,0.6-0.6V7.6c0-0.3-0.3-0.6-0.6-0.6
				C49.5,7,48,5.6,48,3.7c0-0.3-0.3-0.6-0.6-0.6H12.6c-0.3,0-0.6,0.3-0.6,0.6C12,5.6,10.5,7,8.7,7C8.4,7,8.1,7.3,8.1,7.6v12.6
				c0,0.3,0.3,0.6,0.6,0.6c1.3,0,2.3,0.7,2.9,1.8c-1.7,0.1-3,1.5-3,3.2v0.9H6.3c-0.1,0-0.2-0.1-0.2-0.2V1.4c0-0.1,0.1-0.2,0.2-0.2
				h47.3c0.1,0,0.2,0.1,0.2,0.2v25.1H53.9z"/>
			<path d="M30,6c-3.5,0-6.4,3.6-6.4,7.9s2.9,7.9,6.4,7.9s6.4-3.6,6.4-7.9S33.5,6,30,6z M30,20.7c-2.9,0-5.2-3-5.2-6.8
				s2.3-6.8,5.2-6.8s5.2,3,5.2,6.8S32.9,20.7,30,20.7z"/>
			<path d="M15.8,11c-1.6,0-2.9,1.3-2.9,2.9s1.3,2.9,2.9,2.9s2.9-1.3,2.9-2.9C18.7,12.3,17.4,11,15.8,11z M15.8,15.7
				c-1,0-1.7-0.8-1.7-1.7c0-1,0.8-1.7,1.7-1.7c0.9,0,1.7,0.8,1.7,1.7S16.7,15.7,15.8,15.7z"/>
			<path d="M44.2,11c-1.6,0-2.9,1.3-2.9,2.9s1.3,2.9,2.9,2.9s2.9-1.3,2.9-2.9C47.1,12.3,45.8,11,44.2,11z M44.2,15.7
				c-1,0-1.7-0.8-1.7-1.7c0-1,0.8-1.7,1.7-1.7S46,13,46,14C46,14.9,45.2,15.7,44.2,15.7z"/>
			<path d="M35.3,39.2H14.1c-0.3,0-0.6,0.3-0.6,0.6v4.3c0,0.3,0.3,0.6,0.6,0.6h21.3c0.3,0,0.6-0.3,0.6-0.6v-4.3
				C35.9,39.4,35.6,39.2,35.3,39.2z M34.7,43.5H14.6v-3.2h20.1V43.5z"/>
			<path d="M45.9,39.2h-6.7c-0.3,0-0.6,0.3-0.6,0.6v4.3c0,0.3,0.3,0.6,0.6,0.6h6.7c0.3,0,0.6-0.3,0.6-0.6v-4.3
				C46.5,39.4,46.2,39.2,45.9,39.2z M45.3,43.5h-5.6v-3.2h5.6V43.5z"/>
		</g>
	</g>
</g>
<g id="Layer_5" class="st1">
	<g class="st2">
		<g transform="translate(0,-288.53332)">
			<path class="st3" d="M36.7,301.5c-0.1,0-0.3,0-0.4,0.1l-2.6,1.3c-1.1,0.6-2.3,0.8-3.6,0.8h-7.2c-0.8,0-1.7,0.2-2.4,0.7
				c-0.7,0.5-1.2,1.4-1.2,2.4l0,0c0,1.1,0.5,2,1.3,2.7c-1.3,1-2,2.8-1.6,4.5l3,13.9c0,0,0,4,0,6c0,2.4,2,4.5,4.4,4.5h3.1
				c2.4,0,4.5-2,4.5-4.4v-6.2l3-13.8c0.4-1.9-0.4-3.7-1.8-4.7c1.4-1,2.4-2.6,2.4-4.5v-2.7C37.6,301.9,37.2,301.5,36.7,301.5
				L36.7,301.5z M35.8,303.8v1.2c0,2-1.6,3.6-3.6,3.6c-3.1,0-6.3,0-9.4,0c-1,0-1.8-0.8-1.8-1.8c0-0.5,0.2-0.8,0.5-1s0.8-0.4,1.2-0.4
				c2.4,0,4.9,0,7.3,0c1.5,0,3-0.4,4.4-1L35.8,303.8z M23.2,310.4c3.2,0,6.3,0,9.5,0.1c1.8,0,3,1.6,2.6,3.3l0,0L32.4,327h-5.1v1.8
				h4.9v5.4c0,1.5-1.2,2.7-2.7,2.7h-3.1c-1.5,0-2.7-1.2-2.7-2.7v-5.4h1.8V327h-2l-2.9-13.2l0,0C20.3,312,21.5,310.5,23.2,310.4
				L23.2,310.4z"/>
			<path d="M40.7,288.5c-1,0-1.8,0.8-1.8,1.8v1.3c0,1,0.8,1.8,1.8,1.8h3.4c0.5,0,1,0.2,1.3,0.4l0.5,0.4c0.3,0.2,0.6,0.4,1,0.4v2
				c-1,0.4-1.8,1.4-1.8,2.5v3.7c-2.5,0.4-4.5,2.6-4.5,5.3V335c0,2,1.6,3.6,3.6,3.6H55c2,0,3.6-1.6,3.6-3.6v-26.8
				c0-2.6-1.9-4.8-4.5-5.3v-3.7c0-1.2-0.8-2.1-1.8-2.5v-2.2c0.5-0.3,0.9-0.9,0.9-1.5v-2.7c0-1-0.8-1.8-1.8-1.8H40.7z M40.7,290.3
				h10.7v2.7h-3.9c-0.2,0-0.4-0.1-0.5-0.2l-0.5-0.4c-0.7-0.5-1.5-0.8-2.4-0.8h-3.4C40.7,291.6,40.7,290.3,40.7,290.3z M48.7,294.8
				h1.8v1.8h-1.8V294.8z M47.9,298.4h3.6c0.5,0,0.9,0.4,0.9,0.9v3.6H47v-3.6C47,298.7,47.4,298.4,47.9,298.4z M46.1,304.6h7.2
				c2,0,3.6,1.6,3.6,3.6V335c0,1-0.8,1.8-1.8,1.8H44.3c-1,0-1.8-0.8-1.8-1.8v-26.8C42.5,306.2,44.1,304.6,46.1,304.6z"/>
			<path d="M3.1,292.1c-0.9,0-1.7,0.7-1.7,1.7v4.7c0,0.9,0.8,1.7,1.7,1.7h2.3c0.3,0.4,2.8,3.6,4.3,5.7c-0.4,0.3-0.7,0.8-0.7,1.4
				v28.1c0,1.7,1.4,3.1,3.1,3.1s3.1-1.4,3.1-3.1v-28.1c0-0.6-0.3-1.1-0.7-1.4l4.3-5.7h2.3c0.9,0,1.7-0.7,1.7-1.7v-4.7
				c0-0.9-0.8-1.7-1.7-1.7H3.1z M3.2,293.9h17.9v4.5H3.2V293.9z M7.7,300.1h8.9l-3.8,5c-0.2,0.2-0.4,0.4-0.7,0.4s-0.5-0.1-0.7-0.4
				C10.2,303.5,8.6,301.3,7.7,300.1z M10.8,307.3h2.7v28.1c0,0.8-0.6,1.3-1.3,1.3c-0.8,0-1.3-0.6-1.3-1.3L10.8,307.3z"/>
			<path class="st3" d="M4.1,295.2v1.8h16.1v-1.8H4.1z"/>
			<path class="st3" d="M25.3,313.6l-1.8,0.3l1.8,9.8l1.8-0.3L25.3,313.6z"/>
			<path class="st3" d="M30.7,313.6l-1.8,9.8l1.8,0.3l1.8-9.8L30.7,313.6z"/>
		</g>
		<rect x="25.4" y="38.4" width="2.2" height="1.8"/>
	</g>
</g>
</svg>
