<?xml version="1.0" encoding="utf-8"?>
<!-- Generator: Adobe Illustrator 23.0.3, SVG Export Plug-In . SVG Version: 6.00 Build 0)  -->
<svg version="1.1" xmlns="http://www.w3.org/2000/svg" xmlns:xlink="http://www.w3.org/1999/xlink" x="0px" y="0px"
	 viewBox="0 0 60 50" style="enable-background:new 0 0 60 50;" xml:space="preserve">
<style type="text/css">
	.st0{fill:#252525;}
</style>
<g id="Layer_1">
</g>
<g id="Layer_2">
	<g transform="translate(0,-952.36218)">
		<path class="st0" d="M54,952.4c-0.3,0-0.7,0.1-0.9,0.3l-4.7,4.7c-5.2-0.9-10.4-1.8-15.5-2.8c-0.3,0-0.7,0.1-0.9,0.3L5.3,981.5
			c-0.4,0.4-0.4,1.2,0,1.6l18.9,18.9c0.4,0.4,1.2,0.4,1.6,0l26.6-26.6c0.3-0.3,0.4-0.7,0.3-1L49.9,959l4.7-4.7
			c0.3-0.3,0.4-0.8,0.3-1.2S54.4,952.4,54,952.4L54,952.4z M46.4,959.4l-2.5,2.5c-0.9-0.6-2-0.9-3.1-0.9c-3.1,0-5.7,2.6-5.7,5.7
			c0,3.1,2.6,5.7,5.7,5.7c3.1,0,5.7-2.6,5.7-5.7c0-1.2-0.4-2.2-1-3.1L48,961l2.4,13.3L25,999.6L7.7,982.4L33.1,957L46.4,959.4z
			 M44.2,966.6c0,1.9-1.5,3.4-3.4,3.4c-1.9,0-3.4-1.5-3.4-3.4c0-1.9,1.5-3.4,3.4-3.4C42.7,963.2,44.2,964.7,44.2,966.6z"/>
	</g>
</g>
</svg>
