<?xml version="1.0" encoding="utf-8"?>
<!-- Generator: Adobe Illustrator 23.0.3, SVG Export Plug-In . SVG Version: 6.00 Build 0)  -->
<svg version="1.1" id="Layer_1" xmlns="http://www.w3.org/2000/svg" xmlns:xlink="http://www.w3.org/1999/xlink" x="0px" y="0px"
	 viewBox="0 0 126 90" style="enable-background:new 0 0 126 90;" xml:space="preserve">
<style type="text/css">
	.st0{fill:#1565C0;}
	.st1{fill:#FFFFFF;}
	.st2{fill:#FFC107;}
</style>
<g>
	<path class="st0" d="M126,78c0,6.6-5.4,12-12,12H12C5.4,90,0,84.6,0,78V12C0,5.4,5.4,0,12,0h102c6.6,0,12,5.4,12,12V78z"/>
	<path class="st1" d="M36.6,30l-7.9,23.5c0,0-2-9.9-2.2-11.2c-4.5-10.2-11.1-9.7-11.1-9.7L23.2,63v0h9.5l13.1-33H36.6z M44.1,63h8.6
		l5.2-33h-8.7L44.1,63z M105,30H96L81.8,63h8.6l1.8-4.7h10.8l0.9,4.7h7.8L105,30z M94.5,52l4.7-12.5l2.5,12.5H94.5z M70.1,39.6
		c0-1.8,1.5-3.2,5.8-3.2c2.8,0,6,2,6,2l1.4-6.9c0,0-4.1-1.5-8.1-1.5c-9.1,0-13.7,4.3-13.7,9.8c0,9.9,11.9,8.6,11.9,13.7
		c0,0.9-0.7,2.9-5.7,2.9c-5,0-8.3-1.8-8.3-1.8L58,61.2c0,0,3.2,1.8,9.4,1.8c6.2,0,14.7-4.6,14.7-11.3C82.1,43.8,70.1,43.2,70.1,39.6
		z"/>
	<path class="st2" d="M27.6,47.8l-2.9-14.2c0,0-1.3-3.1-4.7-3.1s-13.3,0-13.3,0S23.7,35.5,27.6,47.8z"/>
</g>
</svg>
