<?xml version="1.0" encoding="utf-8"?>
<!-- Generator: Adobe Illustrator 23.0.3, SVG Export Plug-In . SVG Version: 6.00 Build 0)  -->
<svg version="1.1" xmlns="http://www.w3.org/2000/svg" xmlns:xlink="http://www.w3.org/1999/xlink" x="0px" y="0px"
	 viewBox="0 0 100 100" style="enable-background:new 0 0 100 100;" xml:space="preserve">
<style type="text/css">
	.st0{display:none;}
	.st1{display:inline;}
	.st2{fill:#ACACAC;}
	.st3{fill:#B69E75;}
	.st4{display:inline;fill:#B69E75;}
</style>
<g id="Layer_1">
</g>
<g id="Layer_2" class="st0">
	<g class="st1">
		<path class="st2" d="M7.5,2C3.4,2,0,5.3,0,9.5c0,4.1,3.4,7.5,7.5,7.5S15,13.6,15,9.5C15,5.3,11.6,2,7.5,2z M7.5,14.4
			c-2.7,0-4.9-2.2-4.9-4.9s2.2-4.9,4.9-4.9c2.7,0,4.9,2.2,4.9,4.9S10.2,14.4,7.5,14.4z"/>
		<path class="st2" d="M27.4,2c-4.1,0-7.5,3.4-7.5,7.5c0,4.1,3.4,7.5,7.5,7.5c4.1,0,7.5-3.4,7.5-7.5C34.8,5.3,31.5,2,27.4,2z
			 M27.4,14.4c-2.7,0-4.9-2.2-4.9-4.9s2.2-4.9,4.9-4.9s4.9,2.2,4.9,4.9S30.1,14.4,27.4,14.4z"/>
		<path class="st2" d="M47.2,16.9c4.1,0,7.5-3.4,7.5-7.5c0-4.1-3.4-7.5-7.5-7.5c-4.1,0-7.5,3.4-7.5,7.5
			C39.8,13.6,43.1,16.9,47.2,16.9z M47.2,4.5c2.7,0,4.9,2.2,4.9,4.9s-2.2,4.9-4.9,4.9s-4.9-2.2-4.9-4.9S44.5,4.5,47.2,4.5z"/>
		<path class="st2" d="M7.5,21.4c-4.1,0-7.5,3.4-7.5,7.5s3.4,7.5,7.5,7.5S15,33,15,28.8S11.6,21.4,7.5,21.4z M7.5,33.8
			c-2.7,0-4.9-2.2-4.9-4.9c0-2.7,2.2-4.9,4.9-4.9c2.7,0,4.9,2.2,4.9,4.9C12.4,31.6,10.2,33.8,7.5,33.8z"/>
		<path class="st2" d="M27.4,21.4c-4.1,0-7.5,3.4-7.5,7.5s3.4,7.5,7.5,7.5c4.1,0,7.5-3.4,7.5-7.5S31.5,21.4,27.4,21.4z M27.4,33.8
			c-2.7,0-4.9-2.2-4.9-4.9c0-2.7,2.2-4.9,4.9-4.9s4.9,2.2,4.9,4.9C32.3,31.6,30.1,33.8,27.4,33.8z"/>
		<path class="st2" d="M47.2,36.3c4.1,0,7.5-3.4,7.5-7.5s-3.4-7.5-7.5-7.5c-4.1,0-7.5,3.4-7.5,7.5S43.1,36.3,47.2,36.3z M47.2,23.9
			c2.7,0,4.9,2.2,4.9,4.9c0,2.7-2.2,4.9-4.9,4.9s-4.9-2.2-4.9-4.9C42.3,26.1,44.5,23.9,47.2,23.9z"/>
		<path class="st2" d="M7.5,40.7c-4.1,0-7.5,3.4-7.5,7.5c0,4.1,3.4,7.5,7.5,7.5s7.5-3.4,7.5-7.5C15,44.1,11.6,40.7,7.5,40.7z
			 M7.5,53.1c-2.7,0-4.9-2.2-4.9-4.9c0-2.7,2.2-4.9,4.9-4.9c2.7,0,4.9,2.2,4.9,4.9C12.4,50.9,10.2,53.1,7.5,53.1z"/>
		<path class="st2" d="M27.4,40.7c-4.1,0-7.5,3.4-7.5,7.5c0,4.1,3.4,7.5,7.5,7.5c4.1,0,7.5-3.4,7.5-7.5
			C34.8,44.1,31.5,40.7,27.4,40.7z M27.4,53.1c-2.7,0-4.9-2.2-4.9-4.9c0-2.7,2.2-4.9,4.9-4.9s4.9,2.2,4.9,4.9
			C32.3,50.9,30.1,53.1,27.4,53.1z"/>
		<path class="st2" d="M97.9,69.6l-10.4-18c-1.6-2.8-5.5-3.8-8.3-2.2c-1.3,0.8-2.3,2-2.7,3.3c-1.9-1.4-4.5-1.5-6.6-0.4
			c-1.3,0.7-2.3,1.9-2.7,3.3c-1.9-1.4-4.6-1.5-6.6-0.4c-1.1,0.6-2,1.6-2.5,2.7l-8.2-14.2c-1.6-2.8-5.3-3.9-8.2-2.2
			c-2,1.2-2.7,2.8-2.9,4c-0.3,1.4,0,2.9,0.7,4.2l16.2,28c-5.6-1.1-9.2-1.4-11.2-0.9c-2.6,0.6-3,2.3-3,3c-0.2,2.7,3,5.9,7.7,7.8
			c3,1.2,5.8,2.7,8.6,4.2c6,3.1,11.7,6.1,17.6,6.1l0,0c3,0,5.8-0.8,8.6-2.3l8.2-4.7C99.6,86.6,102.2,77,97.9,69.6z M90.9,88.7
			l-8.2,4.7c-2.3,1.3-4.7,2-7.3,2l0,0c-5.3,0-10.7-2.8-16.5-5.8c-2.8-1.5-5.8-3-8.9-4.2c-4.1-1.7-6.2-4.2-6.1-5.3
			c0-0.4,0.6-0.6,1.1-0.7c0.3-0.1,0.7-0.1,1.6-0.1c2.4,0,6.2,0.6,11.3,1.6c0.5,0.1,1-0.1,1.3-0.5c0.3-0.4,0.3-1,0.1-1.4L41.7,48.6
			c-0.4-0.7-0.6-1.7-0.4-2.5c0.2-1,0.8-1.7,1.7-2.3c0.6-0.3,1.2-0.5,1.8-0.5c1.4,0,2.5,1,2.9,1.8l10.7,18.5c0.4,0.6,1.1,0.8,1.7,0.5
			c0.6-0.4,0.8-1.1,0.5-1.7c-0.5-0.8-0.6-1.8-0.4-2.7c0.2-0.9,0.8-1.7,1.6-2.1c1.6-0.9,3.9-0.3,4.8,1.3l1,1.8c0,0,0,0,0,0
			c0.4,0.6,1.1,0.8,1.7,0.5c0.6-0.4,0.8-1.1,0.5-1.7l0,0c-0.5-0.8-0.6-1.8-0.3-2.7c0.2-0.9,0.8-1.7,1.6-2.1c1.6-0.9,3.9-0.3,4.8,1.3
			l1,1.8l0,0c0.4,0.6,1.1,0.8,1.7,0.5s0.8-1.1,0.5-1.7c-1-1.7-0.4-3.8,1.3-4.8c1.6-0.9,3.9-0.3,4.8,1.3l10.4,18
			C99.3,77.1,97.1,85.1,90.9,88.7z"/>
	</g>
</g>
<g id="Layer_3" class="st0">
	<g class="st1">
		<path class="st3" d="M72.1,23.9c-2.4-0.8-4.7-1.6-4.9-3.9c-0.2-1.6,1-3.3,2.6-3.7c1.6-0.5,3.9-0.3,6,0.5c0.5,0.2,0.8,0,1-0.5
			c0.2-0.5,0-0.8-0.5-1c-1.3-0.5-2.4-0.8-3.7-0.8v-2.3c0-0.5-0.3-0.8-0.8-0.8c-0.5,0-0.8,0.3-0.8,0.8v2.3c-0.7,0-1.1,0.2-1.6,0.3
			c-2.4,0.7-4.1,3.1-3.7,5.5c0.5,3.3,3.4,4.4,6,5.2c1.5,0.5,2.9,1,3.7,1.8c0.8,0.8,1.3,1.6,1.1,2.8c0,1-0.5,2-1.3,2.6
			C74.3,33.6,73,34,71.6,34c-1.1,0-2.4,0-3.9-0.3c-0.3,0-0.8-0.2-1.1-0.3c-0.5-0.2-0.8,0.2-1,0.5c-0.2,0.5,0.2,0.8,0.5,1
			c0.5,0.2,0.8,0.2,1.3,0.3c1.3,0.2,2.4,0.3,3.4,0.3v2.3c0,0.5,0.3,0.8,0.8,0.8c0.5,0,0.8-0.3,0.8-0.8v-2.3c1.6-0.2,2.8-0.8,3.7-1.6
			c1.1-1,1.8-2.4,1.8-3.9s-0.7-2.9-1.8-3.9C75.3,25.1,73.7,24.6,72.1,23.9z"/>
		<path class="st3" d="M10.5,100L10.5,100c7.2,0,14.2,0,21.5,0c6.5,0,13.4,0,21,0c2.8,0,5.4-1.1,7.3-2.9c1.8-1.8,2.8-4.4,2.8-7
			c0-1.8,0-17.8,0-31.1v-6.7h-1.8l-2.4,2.3v25.1H4.6V9.9c0-3.6,2.1-5.7,5.7-5.7h14.2c6.4,0,11.2,0,17.6,0h0.2V4.1
			C43.1,2.9,44.1,2,45.2,1c0.2-0.2,0.2-0.2,0.3-0.3c0.2-0.2,0.2-0.2,0.3-0.3L46.3,0h-0.7C38,0,32.2,0,24.5,0h-14
			c-6,0-9.9,3.9-9.9,9.9v59.6c0,4.1,0,16.1,0,20.4c0,2.9,1,5.4,2.8,7.2C5.1,98.9,7.7,100,10.5,100z M4.6,89.7c0-2,0-4.1,0-6h54.2
			c0,0.8,0,1.6,0,2.3c0,1.3,0,2.6,0,3.7c0,1.6-0.5,2.9-1.6,4.1c-1.1,1.1-2.6,1.8-4.2,1.8l0,0c-7.7,0-14.5,0-21,0
			c-7.3,0-14.3,0-21.5,0c-1.8,0-3.3-0.7-4.4-1.6C5.1,93,4.6,91.5,4.6,89.7L4.6,89.7z"/>
		<path class="st3" d="M31.8,93.5c2,0,3.6-1.6,3.6-3.7c0-2-1.6-3.6-3.6-3.6s-3.6,1.6-3.6,3.6C28.1,91.9,29.7,93.5,31.8,93.5z
			 M31.8,87.8c1.1,0,2,0.8,2,2c0,1.1-1,2.1-2,2.1c-1.1,0-2-1-2-2.1C29.7,88.8,30.7,87.8,31.8,87.8z"/>
		<path class="st3" d="M37.1,10.6H26.5c-1.3,0-2.4,1.1-2.4,2.4s1.1,2.4,2.4,2.4h10.6c0.7,0,1.5-0.3,1.8-0.8c0.3-0.5,0.5-1,0.5-1.5
			c0-0.3,0-0.7-0.2-1v-0.2C38.8,11.1,38,10.6,37.1,10.6z"/>
		<path class="st3" d="M99.4,36V13.5c0-6.5-5.2-11.7-11.7-11.7H56.3c-6,0-10.9,4.6-11.7,10.3c-0.3,2.6-0.3,5-0.3,7.7
			c0,1.8,0,3.4,0,5.2c0,2.3,0,4.6,0,6.8c0,2.4,0,5,0,7.5s0,4.9,0,7.2c0,2,0,4.1,0,6c0,1.3,0,2.6,0,4.1c0,0.3,0,0.8,0,1.1
			c0,1.3,1,2.3,2.3,2.3c0.7,0,1.3-0.3,1.6-0.7l6.2-6.2c1.8-1.8,3.4-3.4,4.7-4.7l0.3-0.3c0-0.2,0.3-0.2,0.3-0.2h2.9
			c5.5,0,24.8-0.2,24.8-0.2C94.1,47.9,99.4,42.5,99.4,36z M95,36c0,4.1-3.3,7.3-7.3,7.3h-3.1H74.2c-3.7,0-7.7,0.2-11.4,0.2h-2.9
			c-1.3,0-2.6,0.5-3.6,1.5l-0.2,0.2c-1.1,1.5-2.9,3.3-4.7,4.9l-2.8,2.8c0-0.7,0-1.3,0-2c0-1.8,0-3.4,0-5.2c0-2.3,0-4.7,0-7
			c0-2.6,0-5,0-7.7c0-2.3,0-4.7,0-7c0-1.6,0-3.4,0-5c0-2.4,0-4.7,0.5-7C49.8,8.6,52.7,6,56.3,6h31.4c3.6,0,6.5,2.4,7.2,5.9H95v5.2
			l0,0V36z"/>
	</g>
</g>
<g id="Layer_4" class="st0">
	<path class="st4" d="M71.6,100H28.2c-4.7,0-8.6-3.8-8.6-8.6V8.6c0-4.7,3.8-8.6,8.6-8.6h43.6c4.7,0,8.6,3.8,8.6,8.6v83
		C80.2,96.2,76.4,100,71.6,100z M28.2,5.3c-1.8,0-3.3,1.4-3.3,3.3v83c0,1.8,1.4,3.3,3.3,3.3h43.6c1.8,0,3.3-1.4,3.3-3.3v-83
		c0-1.8-1.4-3.3-3.3-3.3H28.2z"/>
	<path class="st4" d="M77.6,81.6H22.3c-1.4,0-2.6-1.2-2.6-2.6c0-1.4,1.2-2.6,2.6-2.6h55.3c1.4,0,2.6,1.2,2.6,2.6
		C80.2,80.4,79,81.6,77.6,81.6z"/>
	<path class="st4" d="M77.6,23.7H22.3c-1.4,0-2.6-1.2-2.6-2.6s1.2-2.6,2.6-2.6h55.3c1.4,0,2.6,1.2,2.6,2.6S79,23.7,77.6,23.7z"/>
	<path class="st4" d="M49.9,67.1c-1.4,0-2.6-1.2-2.6-2.6v-2.2c0-1.4,1.2-2.6,2.6-2.6s2.6,1.2,2.6,2.6v2.2
		C52.6,65.9,51.4,67.1,49.9,67.1z"/>
	<path class="st4" d="M49.9,39.5c-1.4,0-2.6-1.2-2.6-2.6v-2.6c0-1.4,1.2-2.6,2.6-2.6s2.6,1.2,2.6,2.6v2.6
		C52.6,38.3,51.4,39.5,49.9,39.5z"/>
	<path class="st4" d="M49.9,63c-5.3,0-8.6-3-8.9-3.4c-1.1-1.1-1.1-2.6,0-3.7s2.6-1.1,3.7,0c0.1,0.1,2,1.8,5.1,1.8
		c1.7,0,4.3-0.7,4.3-2.6c0-1.3-1.3-2-5.1-3.2c-3.7-1.2-8.8-2.8-8.8-8.2c0-4.6,4.1-7.9,9.6-7.9c4.2,0,7.2,2,7.6,2.2
		c1.2,0.8,1.6,2.5,0.7,3.7c-0.8,1.2-2.5,1.6-3.7,0.7c0,0-2.1-1.3-4.6-1.3c-1.7,0-4.3,0.7-4.3,2.6c0,1.3,1.3,2,5.1,3.2
		c3.7,1.2,8.8,2.8,8.8,8.2C59.5,59.7,55.6,63,49.9,63z"/>
	<path class="st4" d="M59.1,14.5H48.6c-1.4,0-2.6-1.2-2.6-2.6s1.2-2.6,2.6-2.6h10.5c1.4,0,2.6,1.2,2.6,2.6S60.6,14.5,59.1,14.5z"/>
	<path class="st4" d="M49.9,92.1c-2.2,0-3.9-1.7-3.9-3.9c0-2.2,1.7-3.9,3.9-3.9s3.9,1.7,3.9,3.9C53.9,90.4,52.2,92.1,49.9,92.1z"/>
	<circle class="st4" cx="40.7" cy="11.8" r="2.6"/>
</g>
<g id="Layer_5">
	<g>
		<path class="st3" d="M93.8,76.6c0-4.1-3.4-7.4-7.4-7.4c-1.5,0-2.8,0.4-4.1,1.3c-1.2-2.6-3.8-4.5-6.8-4.5c-1.5,0-2.8,0.4-4.1,1.3
			c-1.1-2.7-3.7-4.6-6.7-4.6c-1.3,0-2.4,0.3-3.5,0.8V47.2c0-2-0.7-3.9-2.2-5.3c-1.4-1.4-3.3-2.2-5.3-2.2l0,0c-4.1,0-7.4,3.4-7.4,7.5
			V84l-4.7-4.7c-2.5-2.5-6.5-2.9-9.5-0.9c-1.8,1.2-2.9,3.1-3.3,5.2c-0.3,2.1,0.3,4.2,1.7,5.9l8.3,9.9c0.4,0.4,0.9,0.7,1.5,0.7
			c0.4,0,0.9-0.1,1.3-0.4c0.8-0.7,0.9-2,0.2-2.8l-8.2-9.9c-0.6-0.7-0.9-1.8-0.7-2.7c0.1-0.9,0.6-1.9,1.5-2.4
			c1.4-0.9,3.3-0.7,4.4,0.4l6,5.9c0.9,0.9,2.3,1.2,3.6,0.7c1.3-0.5,2-1.7,2-3.1V47.2c0-1.9,1.6-3.5,3.5-3.5c0.9,0,1.8,0.3,2.4,1.1
			c0.6,0.6,1.1,1.5,1.1,2.4v26.5c0,1.1,0.8,2,2,2c1.1,0,2-0.8,2-2v-3.6c0-1.9,1.6-3.5,3.5-3.5s3.5,1.6,3.5,3.5v6.8c0,1.1,0.8,2,2,2
			c1.2,0,2-0.8,2-2v-3.6c0-1.9,1.6-3.5,3.5-3.5c1.9,0,3.5,1.6,3.5,3.5v6.8c0,1.1,0.8,2,2,2s2-0.8,2-2v-3.4c0-0.1,0-0.1,0-0.2
			c0-1.9,1.6-3.5,3.5-3.5c1.9,0,3.5,1.6,3.5,3.5V98c0,1.1,0.8,2,2,2c1.2,0,2-0.8,2-2L93.8,76.6z"/>
		<path class="st3" d="M13.6,0C9.4,0,5.9,3.5,5.9,7.7s3.5,7.7,7.7,7.7s7.7-3.5,7.7-7.7S17.9,0,13.6,0z M13.6,11.4
			c-2,0-3.7-1.7-3.7-3.7S11.6,4,13.6,4s3.7,1.7,3.7,3.7S15.7,11.4,13.6,11.4z"/>
		<path class="st3" d="M33.8,15.4c4.2,0,7.7-3.5,7.7-7.7S38,0,33.8,0s-7.7,3.5-7.7,7.7C26.1,11.9,29.5,15.4,33.8,15.4z M33.8,4
			c2,0,3.7,1.7,3.7,3.7s-1.7,3.7-3.7,3.7c-2,0-3.7-1.7-3.7-3.7S31.7,4,33.8,4z"/>
		<path class="st3" d="M13.6,20.1c-4.2,0-7.7,3.5-7.7,7.7s3.5,7.7,7.7,7.7s7.7-3.5,7.7-7.7S17.9,20.1,13.6,20.1z M13.6,31.5
			c-2,0-3.7-1.7-3.7-3.7s1.7-3.7,3.7-3.7s3.7,1.7,3.7,3.7S15.7,31.5,13.6,31.5z"/>
		<path class="st3" d="M33.8,35.5c4.2,0,7.7-3.5,7.7-7.7s-3.5-7.7-7.7-7.7s-7.7,3.5-7.7,7.7C26.1,32,29.5,35.5,33.8,35.5z
			 M33.8,24.1c2,0,3.7,1.7,3.7,3.7s-1.7,3.7-3.7,3.7c-2,0-3.7-1.7-3.7-3.7S31.7,24.1,33.8,24.1z"/>
		<path class="st3" d="M13.6,40.2c-4.2,0-7.7,3.5-7.7,7.7s3.5,7.7,7.7,7.7s7.7-3.5,7.7-7.7S17.9,40.2,13.6,40.2z M13.6,51.6
			c-2,0-3.7-1.6-3.7-3.7c0-2,1.7-3.7,3.7-3.7s3.7,1.7,3.7,3.7C17.4,50,15.7,51.6,13.6,51.6z"/>
		<path class="st3" d="M41.5,47.9c0-4.2-3.5-7.7-7.7-7.7s-7.7,3.5-7.7,7.7s3.5,7.7,7.7,7.7S41.5,52.1,41.5,47.9z M30,47.9
			c0-2,1.7-3.7,3.7-3.7c2,0,3.7,1.7,3.7,3.7s-1.7,3.7-3.7,3.7C31.7,51.6,30,50,30,47.9z"/>
		<path class="st3" d="M53.9,15.4c4.2,0,7.7-3.5,7.7-7.7S58.1,0,53.9,0s-7.7,3.5-7.7,7.7S49.6,15.4,53.9,15.4z M53.9,4
			c2,0,3.7,1.7,3.7,3.7s-1.7,3.7-3.7,3.7c-2,0-3.7-1.7-3.7-3.7S51.8,4,53.9,4z"/>
		<path class="st3" d="M53.9,35.5c4.2,0,7.7-3.5,7.7-7.7s-3.5-7.7-7.7-7.7s-7.7,3.5-7.7,7.7S49.6,35.5,53.9,35.5z M53.9,24.1
			c2,0,3.7,1.7,3.7,3.7s-1.7,3.7-3.7,3.7c-2,0-3.7-1.7-3.7-3.7S51.8,24.1,53.9,24.1z"/>
	</g>
</g>
</svg>
