<?xml version="1.0" encoding="utf-8"?>
<!-- Generator: Adobe Illustrator 23.0.3, SVG Export Plug-In . SVG Version: 6.00 Build 0)  -->
<svg version="1.1" id="Layer_1" xmlns="http://www.w3.org/2000/svg" xmlns:xlink="http://www.w3.org/1999/xlink" x="0px" y="0px"
	 viewBox="0 0 126 90" style="enable-background:new 0 0 126 90;" xml:space="preserve">
<style type="text/css">
	.st0{fill:#3F51B5;}
	.st1{fill:#FFC107;}
	.st2{fill:#FF3D00;}
</style>
<g>
	<path class="st0" d="M126,78c0,6.6-5.4,12-12,12H12C5.4,90,0,84.6,0,78V12C0,5.4,5.4,0,12,0h102c6.6,0,12,5.4,12,12V78z"/>
	<path class="st1" d="M81,15c-16.6,0-30,13.4-30,30s13.4,30,30,30s30-13.4,30-30S97.6,15,81,15z"/>
	<path class="st2" d="M57,63c-1.4-1.9-2.6-3.9-3.5-6h16c0.8-1.9,1.5-3.9,1.9-6H51.6c-0.4-1.9-0.6-3.9-0.6-6h21c0-2.1-0.2-4.1-0.6-6
		H51.6c0.4-2.1,1.1-4.1,1.9-6h16c-0.9-2.1-2.1-4.1-3.5-6H57c1.3-1.7,2.8-3.4,4.4-4.8C56.2,17.7,49.4,15,42,15c-16.6,0-30,13.4-30,30
		s13.4,30,30,30c9.8,0,18.5-4.7,24-12H57z"/>
</g>
</svg>
