<?xml version="1.0" encoding="utf-8"?>
<!-- Generator: Adobe Illustrator 23.0.3, SVG Export Plug-In . SVG Version: 6.00 Build 0)  -->
<svg version="1.1" id="Layer_1" xmlns="http://www.w3.org/2000/svg" xmlns:xlink="http://www.w3.org/1999/xlink" x="0px" y="0px"
	 viewBox="0 0 512 512" style="enable-background:new 0 0 512 512;" xml:space="preserve">
<style type="text/css">
	.st0{display:none;}
	.st1{display:inline;}
	.st2{clip-path:url(#SVGID_2_);}
	.st3{fill:#FFFFFF;}
	.st4{fill:#BD0034;}
	.st5{fill:#1A237B;}
	.st6{clip-path:url(#SVGID_4_);}
</style>
<g class="st0">
	<g class="st1">
		<g>
			<defs>
				<circle id="SVGID_1_" cx="256" cy="256" r="256"/>
			</defs>
			<clipPath id="SVGID_2_">
				<use xlink:href="#SVGID_1_"  style="overflow:visible;"/>
			</clipPath>
			<g class="st2">
				<rect x="-182.8" class="st3" width="877.6" height="512"/>
				<polygon class="st4" points="404.8,185.1 694.8,22.6 694.8,0 674.8,0 344.1,185.1 				"/>
				<polygon class="st4" points="391.1,337.2 694.8,507 694.8,473.1 451.7,337.2 				"/>
				<polygon class="st4" points="-182.8,38.9 76.9,185.1 137.7,185.1 -182.8,4.8 				"/>
				<polygon class="st4" points="123.8,337.2 -182.8,508.9 -182.8,512 -127.4,512 184.7,337.2 				"/>
				<polygon class="st5" points="634.8,0 327.5,0 327.5,172.1 				"/>
				<polygon class="st5" points="191.7,0 -114.2,0 191.7,172.1 				"/>
				<polygon class="st5" points="694.8,185.1 694.8,67.5 486.4,185.1 				"/>
				<polygon class="st5" points="694.8,453.2 694.8,337.2 486.4,337.2 				"/>
				<polygon class="st5" points="-96.9,512 191.7,512 191.7,350 				"/>
				<polygon class="st5" points="327.5,512 617,512 327.5,350 				"/>
				<polygon class="st5" points="-182.8,337.2 -182.8,458.5 32.8,337.2 				"/>
				<polygon class="st5" points="-182.8,185.1 32.8,185.1 -182.8,63.4 				"/>
				<polygon class="st4" points="219,0 219,215.5 -182.8,215.5 -182.8,306.7 219,306.7 219,512 300.4,512 300.4,306.7 694.8,306.7 
					694.8,215.5 300.4,215.5 300.4,0 				"/>
			</g>
		</g>
	</g>
</g>
<g>
	<defs>
		<circle id="SVGID_3_" cx="256" cy="256" r="256"/>
	</defs>
	<clipPath id="SVGID_4_">
		<use xlink:href="#SVGID_3_"  style="overflow:visible;"/>
	</clipPath>
	<g class="st6">
		<rect x="-182.8" y="0.1" class="st3" width="877.6" height="512"/>
		<polygon class="st4" points="404.8,185.2 694.8,22.7 694.8,0.1 674.8,0.1 344.1,185.2 		"/>
		<polygon class="st4" points="391.1,337.2 694.8,507.1 694.8,473.1 451.7,337.2 		"/>
		<polygon class="st4" points="-182.8,39 76.9,185.2 137.7,185.2 -182.8,4.8 		"/>
		<polygon class="st4" points="123.8,337.2 -182.8,509 -182.8,512 -127.4,512 184.7,337.2 		"/>
		<polygon class="st5" points="634.8,0.1 327.5,0.1 327.5,172.1 		"/>
		<polygon class="st5" points="191.7,0.1 -114.2,0.1 191.7,172.1 		"/>
		<polygon class="st5" points="694.8,185.2 694.8,67.6 486.4,185.2 		"/>
		<polygon class="st5" points="694.8,453.3 694.8,337.2 486.4,337.2 		"/>
		<polygon class="st5" points="-96.9,512 191.7,512 191.7,350.1 		"/>
		<polygon class="st5" points="327.5,512 617,512 327.5,350.1 		"/>
		<polygon class="st5" points="-182.8,337.2 -182.8,458.6 32.8,337.2 		"/>
		<polygon class="st5" points="-182.8,185.2 32.8,185.2 -182.8,63.5 		"/>
		<polygon class="st4" points="219,0.1 219,215.5 -182.8,215.5 -182.8,306.7 219,306.7 219,512 300.4,512 300.4,306.7 694.8,306.7 
			694.8,215.5 300.4,215.5 300.4,0.1 		"/>
	</g>
</g>
</svg>
