<?xml version="1.0" encoding="utf-8"?>
<!-- Generator: Adobe Illustrator 23.0.3, SVG Export Plug-In . SVG Version: 6.00 Build 0)  -->
<svg version="1.1" id="Layer_1" xmlns="http://www.w3.org/2000/svg" xmlns:xlink="http://www.w3.org/1999/xlink" x="0px" y="0px"
	 viewBox="0 0 30 30" style="enable-background:new 0 0 30 30;" xml:space="preserve">
<style type="text/css">
	.st0{fill:#ACACAC;}
</style>
<g>
	<g>
		<path class="st0" d="M22.1,16c0,0.5-0.4,1-1,1h-4.3v4.1c0,0.5-0.4,1-1,1H14c-0.5,0-1-0.4-1-1V17H9c-0.5,0-1-0.4-1-1v-1.9
			c0-0.5,0.4-1,1-1h4.1V9c0-0.5,0.4-1,1-1H16c0.5,0,1,0.4,1,1v4.1h4.1c0.5,0,1,0.4,1,1V16L22.1,16z"/>
	</g>
</g>
</svg>
