<?xml version="1.0" encoding="utf-8"?>
<!-- Generator: Adobe Illustrator 23.0.3, SVG Export Plug-In . SVG Version: 6.00 Build 0)  -->
<svg version="1.1" id="Layer_1" xmlns="http://www.w3.org/2000/svg" xmlns:xlink="http://www.w3.org/1999/xlink" x="0px" y="0px"
	 viewBox="0 0 30 30" style="enable-background:new 0 0 30 30;" xml:space="preserve">
<style type="text/css">
	.st0{enable-background:new    ;}
	.st1{fill:#ACACAC;}
</style>
<g class="st0">
	<path class="st1" d="M11.1,14.3l6.5-6.5c0.1-0.1,0.2-0.1,0.3-0.1c0.1,0,0.3,0,0.4,0.1L19,8.5c0.1,0.1,0.1,0.2,0.1,0.3s0,0.2,0,0.3
		l-5.6,5.6l5.6,5.5c0.1,0.1,0.1,0.2,0.1,0.3s-0.1,0.2-0.1,0.3l-0.7,0.7c-0.1,0.1-0.2,0.1-0.3,0.1c-0.1,0-0.2,0-0.3-0.1L11.2,15
		c-0.1-0.1-0.2-0.3-0.2-0.4C11,14.5,11.1,14.4,11.1,14.3z"/>
</g>
</svg>
