<?xml version="1.0" encoding="utf-8"?>
<!-- Generator: Adobe Illustrator 23.0.3, SVG Export Plug-In . SVG Version: 6.00 Build 0)  -->
<svg version="1.1" id="Layer_1" xmlns="http://www.w3.org/2000/svg" xmlns:xlink="http://www.w3.org/1999/xlink" x="0px" y="0px"
	 viewBox="0 0 30 30" style="enable-background:new 0 0 30 30;" xml:space="preserve">
<style type="text/css">
	.st0{enable-background:new    ;}
	.st1{fill:#323434;}
</style>
<g class="st0">
	<path class="st1" d="M20.1,15l-6.5,6.5c-0.1,0.1-0.2,0.1-0.3,0.1s-0.3,0-0.4-0.1l-0.7-0.7C12,20.7,12,20.6,12,20.5s0.1-0.2,0.1-0.3
		l5.6-5.6l-5.6-5.5C12,9,12,8.9,12,8.8c0-0.1,0.1-0.2,0.1-0.3l0.7-0.7c0.1-0.1,0.2-0.1,0.3-0.1s0.2,0,0.3,0.1l6.5,6.5
		c0.1,0.1,0.2,0.3,0.2,0.4C20.2,14.8,20.1,14.9,20.1,15z"/>
</g>
</svg>
