<?xml version="1.0" encoding="utf-8"?>
<!-- Generator: Adobe Illustrator 23.0.3, SVG Export Plug-In . SVG Version: 6.00 Build 0)  -->
<svg version="1.1" id="Layer_1" xmlns="http://www.w3.org/2000/svg" xmlns:xlink="http://www.w3.org/1999/xlink" x="0px" y="0px"
	 viewBox="0 0 40 40" style="enable-background:new 0 0 40 40;" xml:space="preserve">
<style type="text/css">
	.st0{fill:#252525;}
</style>
<path class="st0" d="M37.4,10.7c0-0.1,0-0.1,0-0.2c0,0,0-0.1,0-0.1c0-0.1,0-0.1-0.1-0.2c0,0,0-0.1-0.1-0.1c0-0.1-0.1-0.1-0.1-0.2
	c0,0,0-0.1-0.1-0.1c-0.1-0.1-0.2-0.1-0.3-0.2L20.4,0.2c-0.4-0.2-0.9-0.2-1.3,0L3.3,9.4h0c0,0,0,0,0,0l0,0c0,0-0.1,0.1-0.1,0.1
	C3.1,9.5,3.1,9.6,3,9.6c0,0-0.1,0.1-0.1,0.1c0,0-0.1,0.1-0.1,0.1c0,0,0,0.1-0.1,0.1c0,0.1,0,0.1-0.1,0.2c0,0.1,0,0.1,0,0.2
	c0,0.1,0,0.1,0,0.2L2.6,29.3c0,0.5,0.2,0.9,0.6,1.1l16.4,9.4c0.2,0.1,0.4,0.2,0.6,0.2c0.1,0,0.2,0,0.3,0c0,0,0,0,0.1,0
	c0.1,0,0.2-0.1,0.2-0.1c0,0,0,0,0,0c0,0,0,0,0,0l15.9-9.2c0.4-0.2,0.6-0.6,0.6-1.1L37.4,10.7C37.4,10.7,37.4,10.7,37.4,10.7
	C37.4,10.7,37.4,10.7,37.4,10.7z M19.8,2.7l13.8,8l-8.5,4.9l-4.9,2.8l-13.8-8L19.8,2.7z M5.2,12.7l13.8,8l0,13.4l0,2.5l-13.8-8
	L5.2,12.7z M34.8,28.8l-13.4,7.8l0-7.8l0-8.1l13.4-7.8L34.8,28.8z"/>
</svg>
