<?xml version="1.0" encoding="utf-8"?>
<!-- Generator: Adobe Illustrator 23.0.3, SVG Export Plug-In . SVG Version: 6.00 Build 0)  -->
<svg version="1.1" id="Layer_1" xmlns="http://www.w3.org/2000/svg" xmlns:xlink="http://www.w3.org/1999/xlink" x="0px" y="0px"
	 viewBox="0 0 20 20" style="enable-background:new 0 0 20 20;" xml:space="preserve">
<style type="text/css">
	.st0{fill:#CCCCCC;}
</style>
<g>
	<path class="st0" d="M14.8,13.8l-1.1,1.1c-0.2,0.2-0.4,0.2-0.6,0.2c-0.2,0-0.4-0.1-0.6-0.2L10,12.5l-2.5,2.5
		c-0.2,0.2-0.4,0.2-0.6,0.2s-0.4-0.1-0.6-0.2l-1.1-1.1C5.1,13.7,5,13.4,5,13.2s0.1-0.4,0.2-0.6l2.5-2.5L5.2,7.7C5.1,7.6,5,7.3,5,7.1
		c0-0.2,0.1-0.4,0.2-0.6l1.1-1.1C6.5,5.3,6.7,5.2,7,5.2s0.4,0.1,0.6,0.2L10,7.9l2.5-2.5c0.2-0.2,0.4-0.2,0.6-0.2
		c0.2,0,0.4,0.1,0.6,0.2l1.1,1.1C14.9,6.7,15,6.9,15,7.1c0,0.2-0.1,0.4-0.2,0.6l-2.5,2.5l2.5,2.5c0.2,0.2,0.2,0.4,0.2,0.6
		S14.9,13.7,14.8,13.8z"/>
</g>
</svg>
