<?xml version="1.0" standalone="no"?>
<!DOCTYPE svg PUBLIC "-//W3C//DTD SVG 1.1//EN" "http://www.w3.org/Graphics/SVG/1.1/DTD/svg11.dtd" >
<svg xmlns="http://www.w3.org/2000/svg">
<metadata></metadata>
<defs>
<font id="thaisans_neuesemi_bold" horiz-adv-x="0" >
<font-face units-per-em="2048" ascent="1548" descent="-500" />
<missing-glyph horiz-adv-x="922" />
<glyph unicode="&#x3b;&#x3b;arm&#x3b;&#x3b;" horiz-adv-x="2993" d="M106 1778v115h458v229q-32 0 -63 18.5t-55.5 50t-38.5 73.5t-14 87q0 51 20 93t51.5 72.5t73.5 47t84 16.5q109 0 169 -60t60 -169q0 -38 -11 -78t-33 -73t-53.5 -54t-74.5 -24v-229h459v-115h-459v-344l308 -689h-115l-250 574l-250 -574h-114l306 689v344h-458zM221 0 q0 32 11.5 68t36 66t61.5 48t91 18q86 0 143.5 -57.5t57.5 -142.5q0 -20 -10 -71.5t-67 -92.5l63 -292l158 316h57l157 -316l101 599h143l-45 -241l31 57l186 44q0 148 17.5 253t51.5 168t89 92t129 29q85 0 128.5 -57.5t43.5 -143.5h-57q0 44 -22 79.5t-64 35.5 q-109 0 -155 -106.5t-46 -320.5l210 51l25 -105l-235 -61v-114q0 -173 -8.5 -315t-41.5 -245t-96 -159t-169 -56q-86 0 -143.5 43t-57.5 130h58q0 -44 35.5 -65.5t79.5 -21.5q85 0 131 51.5t67 142t25.5 216.5t4.5 279v85l-228 -57l-98 -516h-75l-201 430l-200 -430h-75 l-92 458l52 35q-6 -3 -17 -3q-11 -2 -41 -2q-25 0 -61.5 9.5t-66.5 32.5t-51 60.5t-21 94.5zM336 0q0 -32 21 -57.5t64 -25.5q86 0 86 83q0 85 -86 85q-43 0 -64 -25t-21 -60zM507 2351q0 -44 24.5 -79.5t90.5 -35.5q65 0 89.5 36.5t24.5 78.5q0 65 -35.5 89.5t-78.5 24.5 q-44 0 -79.5 -24.5t-35.5 -89.5zM1168 745l652 1778h494l573 -1778h-458l-175 546h-771l-202 -546h-113zM1540 1434h665l-312 974zM1910 57l57 287h85l-85 -287h-57zM1989 2437l38 -112l66 112h-104zM2047 2274l24 -80l148 243h-71zM2052 57l58 287h87l-87 -287h-58z M2090 2139l32 -103l160 270l-31 96zM2150 1950l17 -57l161 266l-17 57zM2191 1824l17 -57l161 266l-18 57zM2227 -284q0 106 26 205t72.5 173.5t109.5 120t137 45.5q152 0 233.5 -104t81.5 -296q0 -281 -100 -413t-273 -132q-54 0 -106 22.5t-92 70t-64.5 123.5t-24.5 185z M2233 1691l18 -57l160 264l-20 61zM2271 1576l19 -68l161 267l-19 69zM2311 1445l20 -58l158 268l-15 57zM2342 -227l402 172q-6 55 -22 98q-17 38 -50.5 69t-99.5 31q-74 0 -120.5 -59t-68.5 -127q-28 -80 -41 -184zM2342 -370q0 -32 10.5 -67.5t31.5 -65.5t54 -49t76 -19 q86 0 132 57.5t69 129.5q25 80 29 187zM2351 1316l18 -46l159 262l-14 54zM2388 1204l17 -46l161 264l-17 49zM2426 1089l17 -54l164 261l-18 61zM2463 974l21 -65l159 270l-19 63zM2500 860l9 -28h38l134 226l-20 69zM2591 832h58l70 117l-21 58zM2695 832h57l-19 63z" />
<glyph unicode="&#xd;" horiz-adv-x="922" />
<glyph unicode=" "  horiz-adv-x="922" />
<glyph unicode="&#x09;" horiz-adv-x="922" />
<glyph unicode="&#xa0;" horiz-adv-x="922" />
<glyph unicode="!" horiz-adv-x="424" d="M106 0v210h212v-210h-212zM106 370v1152h212v-1152h-212z" />
<glyph unicode="&#x22;" horiz-adv-x="767" d="M106 1032v490h206v-490h-206zM454 1032v490h208v-490h-208z" />
<glyph unicode="#" horiz-adv-x="1617" d="M106 419l49 177h217l69 261h-217l42 180h224l109 399h206l-108 -399h361l110 399h205l-109 -399h247l-49 -180h-247l-68 -261h246l-52 -177h-243l-111 -419h-207l112 419h-361l-112 -419h-206l110 419h-217zM580 596h361l68 261h-361z" />
<glyph unicode="$" horiz-adv-x="1169" d="M106 95v175q63 -35 135 -60q60 -22 137.5 -39.5t160.5 -17.5q158 0 235 72.5t77 190.5q0 92 -56 144.5t-137 87t-179 64.5t-179.5 75t-137.5 119t-56 197q0 74 31.5 136.5t86.5 106.5t125 73t147 40v218h204v-218q74 -6 131.5 -21.5t98.5 -29.5q46 -16 77 -37v-175 q-49 22 -112 43q-55 17 -130.5 31.5t-176.5 14.5q-46 0 -93.5 -13t-86 -37.5t-64.5 -57.5t-26 -70q0 -74 56 -118.5t138 -77.5t179 -64.5t179 -83.5t138 -134t56 -213q0 -74 -17.5 -145t-59 -129.5t-112 -98.5t-175.5 -57v-224h-204v213q-93 3 -165.5 21t-120.5 42 q-57 25 -104 57z" />
<glyph unicode="%" horiz-adv-x="1682" d="M106 1210q0 203 82 318.5t219 115.5q129 0 208 -108t79 -305q0 -198 -86 -312t-215 -114q-131 0 -209 108t-78 297zM287 0l986 1757h224l-983 -1757h-227zM312 1215q0 -74 7 -119.5t19 -70t29 -33.5t35 -9q17 0 33 9t28.5 35t21 71.5t8.5 119.5q0 148 -27.5 198t-63.5 50 q-41 0 -65.5 -49t-24.5 -202zM990 361q0 203 81 319.5t220 116.5q129 0 207 -108.5t78 -307.5q0 -198 -87.5 -308.5t-213.5 -110.5q-128 0 -206.5 105t-78.5 294zM1193 370q0 -138 26 -185.5t66 -47.5q41 0 66 47.5t25 187.5t-26 193.5t-65 53.5q-40 0 -66 -52.5t-26 -196.5 z" />
<glyph unicode="&#x26;" horiz-adv-x="1628" d="M106 378q0 158 78.5 264.5t242.5 180.5q-66 44 -122 119.5t-56 184.5q0 77 31.5 140t85 106.5t128 68t160.5 24.5q77 0 146 -23t121.5 -65t83 -99.5t30.5 -123.5q0 -132 -73 -206t-205 -137q72 -43 125 -85t94.5 -85t73 -85.5t66.5 -88.5q82 134 119.5 264t42.5 240l3 65 h213q-9 -169 -77.5 -366.5t-183.5 -358.5q49 -60 115 -95.5t174 -35.5v-181q-146 0 -249 44t-170 120q-103 -95 -227 -142t-282 -47q-224 0 -356 96t-132 307zM318 378q0 -66 21.5 -110t60 -70t89 -35.5t107.5 -9.5q126 0 216.5 38.5t174.5 112.5q-43 60 -84 119 t-87.5 110.5t-105.5 95.5t-139 77q-57 -26 -103.5 -51.5t-79 -62t-51.5 -87.5t-19 -127zM462 1127q0 -74 35.5 -130t98.5 -94q121 46 174 109t53 137q0 33 -17.5 57.5t-42 39.5t-54.5 23.5t-55 8.5q-98 0 -145 -47t-47 -104z" />
<glyph unicode="'" horiz-adv-x="424" d="M106 1032v490h212v-490h-212z" />
<glyph unicode="(" horiz-adv-x="644" d="M63 550q0 290 91.5 536.5t261.5 447.5h208q-169 -205 -265 -456.5t-96 -524.5q0 -281 96.5 -517t264.5 -438h-205q-175 200 -265.5 434t-90.5 518z" />
<glyph unicode=")" horiz-adv-x="644" d="M20 -402q169 200 266.5 437.5t97.5 514.5q0 284 -97.5 530.5t-266.5 453.5h210q169 -200 260.5 -447t91.5 -537q0 -287 -93 -525t-262 -427h-207z" />
<glyph unicode="*" horiz-adv-x="827" d="M106 1119l233 120l-233 120l94 129l164 -155l-31 227h160l-34 -230l170 158l93 -129l-235 -120l235 -120l-93 -129l-170 157l34 -230h-160l31 227l-164 -154z" />
<glyph unicode="+" horiz-adv-x="1111" d="M106 514v180h359v376h183v-376h359v-180h-359v-342h-183v342h-359z" />
<glyph unicode="," horiz-adv-x="424" d="M-92 -312q54 46 98 96q37 47 68.5 105.5t31.5 124.5v189h212v-189q0 -74 -34.5 -134.5t-73.5 -103.5q-49 -52 -106 -88h-196z" />
<glyph unicode="-" horiz-adv-x="810" d="M106 545v175h600v-175h-600z" />
<glyph unicode="." horiz-adv-x="424" d="M106 0v203h212v-203h-212z" />
<glyph unicode="/" horiz-adv-x="712" d="M20 0l470 1757h204l-473 -1757h-201z" />
<glyph unicode="0" horiz-adv-x="1226" d="M63 689q0 186 40 330t113.5 243.5t173.5 151.5t223 52q115 0 217 -47.5t175 -141t115.5 -234t42.5 -323.5q0 -181 -45.5 -320.5t-124.5 -234t-183 -142.5t-222 -48q-232 0 -378.5 180.5t-146.5 533.5zM276 697q0 -145 25 -250t70 -169.5t105 -94.5t126 -30q69 0 132 31.5 t112 97t77.5 172t28.5 252.5q0 152 -28.5 260.5t-77.5 180t-112 105t-132 33.5q-66 0 -126 -35t-105 -105t-70 -182t-25 -266z" />
<glyph unicode="1" horiz-adv-x="695" d="M63 1021v180q66 25 126 64.5t106 79.5q52 44 98 91h198v-1436h-213v1155q-49 -32 -136 -73.5t-179 -60.5z" />
<glyph unicode="2" horiz-adv-x="1010" d="M63 0v155q0 86 49 163.5t122 150.5t159 143t158.5 142t121.5 147t49 157q0 126 -67 176.5t-159 50.5q-93 0 -198.5 -33.5t-177.5 -99.5v178q61 63 158 99.5t218 36.5q194 0 316.5 -105t122.5 -286q0 -106 -43.5 -195t-110.5 -164.5t-147.5 -142t-152 -131t-126 -129 t-68.5 -132.5h706v-181h-930z" />
<glyph unicode="3" horiz-adv-x="1040" d="M106 63v189q69 -57 158 -78t183 -21q57 0 114.5 12.5t102 41t73.5 72.5t29 105q0 68 -27.5 118.5t-87.5 83.5t-159 49t-243 16v175q129 0 230 25q85 20 157 70.5t72 145.5q0 63 -17.5 104t-47.5 67t-67 36.5t-80 10.5q-89 0 -177.5 -21.5t-154.5 -70.5v178q66 43 149 69 t183 26q79 0 155.5 -26t136.5 -72t96 -112t36 -143q0 -155 -85.5 -241.5t-226.5 -122.5q68 -8 134.5 -36t119 -72.5t84 -104.5t31.5 -137q0 -197 -144 -310.5t-386 -113.5q-101 0 -190.5 26.5t-150.5 61.5z" />
<glyph unicode="4" horiz-adv-x="1071" d="M20 339v172l653 925h205v-911h175v-186h-175l-3 -339h-210v339h-645zM263 525h402v575z" />
<glyph unicode="5" horiz-adv-x="982" d="M106 35v195q38 -23 83 -41q41 -14 91 -25t106 -11q146 0 234 63t88 205q0 126 -79 209.5t-227 83.5q-66 0 -120.5 -7t-95.5 -13q-46 -8 -80 -18v760h717v-180h-505v-375h95q227 0 367 -116.5t140 -331.5q0 -216 -138.5 -337t-395.5 -121q-100 0 -166.5 18t-113.5 42z" />
<glyph unicode="6" horiz-adv-x="1080" d="M63 631q0 416 165 625.5t434 209.5q66 0 143.5 -6.5t129.5 -28.5v-184q-38 9 -81 17q-38 6 -86 13.5t-106 7.5q-180 -3 -279 -132.5t-104 -353.5q51 72 136.5 95t155.5 23q88 0 170 -34.5t143.5 -96t97.5 -146t36 -186.5q0 -104 -36 -193t-100 -152t-150.5 -98.5 t-189.5 -35.5q-104 0 -193 44t-152 127.5t-98.5 206.5t-35.5 278zM287 473q0 -164 73 -242t182 -78q49 0 98 21t86 61.5t60 95.5t23 123q0 152 -76 218.5t-191 66.5q-69 0 -116.5 -28.5t-79 -68.5t-45.5 -85.5t-14 -83.5z" />
<glyph unicode="7" horiz-adv-x="996" d="M20 1256v180h957v-85l-509 -1351h-213l473 1256h-708z" />
<glyph unicode="8" horiz-adv-x="1054" d="M63 386q0 126 56 224t176 164q-85 58 -130 139t-45 173q0 77 29 146.5t83.5 121.5t128.5 82t167 30q85 0 158.5 -32.5t129.5 -85t87.5 -121.5t31.5 -141q0 -100 -46 -177t-126 -135q112 -57 171 -163.5t59 -224.5q0 -194 -128.5 -302.5t-333.5 -108.5q-224 0 -346 108.5 t-122 302.5zM276 419q0 -129 70 -197.5t182 -68.5q109 0 180.5 67t71.5 196q0 109 -67.5 189t-184.5 80q-104 0 -178 -69t-74 -197zM333 1070q0 -93 51 -149t144 -56q74 0 135.5 56t61.5 149q0 82 -53 148.5t-144 66.5q-55 0 -92 -19t-60 -49t-33 -68.5t-10 -78.5z" />
<glyph unicode="9" horiz-adv-x="1080" d="M63 983q0 106 37 195t101.5 152t150.5 99.5t187 36.5q109 0 198 -47.5t150.5 -134t96 -209.5t34.5 -276q0 -410 -163 -617t-450 -207q-66 0 -137 5.5t-122 25.5v180q32 -8 72 -17q35 -5 82 -10.5t105 -5.5q158 0 268 116.5t126 367.5q-25 -35 -60.5 -58t-76 -35.5 t-80.5 -18.5t-75 -6q-93 0 -172.5 36t-140 97.5t-96 146t-35.5 184.5zM273 983q0 -132 66 -209t200 -77q69 0 118 30t79 70t44 84t14 77q0 134 -61.5 230.5t-193.5 96.5q-57 0 -106 -26t-85 -68t-55.5 -96.5t-19.5 -111.5z" />
<glyph unicode=":" horiz-adv-x="424" d="M106 0v210h212v-210h-212zM106 826v209h212v-209h-212z" />
<glyph unicode=";" horiz-adv-x="424" d="M-92 -312q54 49 98 102q37 46 68.5 105t31.5 119v192h212v-192q0 -69 -34.5 -127.5t-73.5 -104.5q-49 -52 -106 -94h-196zM106 826v209h212v-209h-212z" />
<glyph unicode="&#x3c;" horiz-adv-x="1075" d="M63 438v98l993 553v-203l-703 -396l703 -342v-197z" />
<glyph unicode="=" horiz-adv-x="1111" d="M106 330v177h901v-177h-901zM106 668v180h901v-180h-901z" />
<glyph unicode="&#x3e;" horiz-adv-x="1075" d="M20 -49v197l700 342l-700 396v203l992 -553v-98z" />
<glyph unicode="?" horiz-adv-x="939" d="M106 1161v175q28 35 77 63q41 22 105.5 44.5t155.5 22.5q74 0 144.5 -23t125.5 -66.5t87.5 -105t32.5 -138.5q0 -75 -25.5 -131t-63 -98t-83.5 -74.5t-83 -64t-63 -64.5t-26 -72v-259h-211v264q0 58 25.5 100.5t63 78t83 68.5t83 67.5t63 75t25.5 92.5q0 88 -54 126.5 t-135 38.5q-77 0 -137.5 -18t-103.5 -42q-52 -28 -86 -60zM279 0v210h211v-210h-211z" />
<glyph unicode="@" horiz-adv-x="1874" d="M106 550q0 170 70 317.5t188 258t274 173.5t328 63q167 0 313 -53t255.5 -147.5t172.5 -222t63 -277.5q0 -115 -38 -210.5t-98 -164.5t-136 -108t-153 -39q-117 0 -167.5 49t-64.5 147q-46 -92 -110.5 -144t-176.5 -52q-69 0 -135.5 24.5t-117.5 75t-81 126t-30 176.5 t40 184t104.5 143.5t146 94.5t164.5 34q80 0 142 -37.5t85 -85.5l24 115h183l-84 -471q-3 -60 6 -109q5 -40 22.5 -73t55.5 -33q60 0 105.5 37t77 90t47.5 116t16 115q0 83 -42 181t-120 181t-196 138.5t-273 55.5t-282.5 -64.5t-218 -161.5t-138.5 -216t-48 -226 q0 -115 42.5 -224.5t127 -197t206.5 -142.5t280 -55q112 0 219 26t194 57v-148q-98 -33 -201.5 -56t-211.5 -23q-172 0 -322.5 57.5t-262.5 159.5t-178 241t-66 305zM673 542q0 -63 16.5 -104.5t39.5 -67.5t49.5 -36.5t53.5 -10.5q120 0 174.5 92t54.5 261q0 74 -34 112 t-95 38q-114 0 -186.5 -77.5t-72.5 -206.5z" />
<glyph unicode="A" horiz-adv-x="1297" d="M20 0l530 1436h199l529 -1436h-211l-137 370h-566l-140 -370h-204zM427 550h438l-217 623z" />
<glyph unicode="B" horiz-adv-x="1141" d="M106 0v1436h419q197 0 310.5 -98.5t113.5 -248.5q0 -129 -79 -215t-194 -108q69 -9 134 -34.5t114.5 -69t80 -105t30.5 -141.5q0 -95 -40 -172t-108.5 -132t-162 -83.5t-196.5 -28.5h-422zM318 181h193q137 0 224.5 67t87.5 168q0 112 -83 183.5t-256 71.5h-166v-490z M318 851h144q129 0 201.5 53.5t72.5 156.5q0 101 -71 148t-181 47h-166v-405z" />
<glyph unicode="C" horiz-adv-x="1218" d="M63 703q0 175 53 316.5t149 240.5t227.5 152.5t290.5 53.5q123 0 235 -17t180 -50l-71 -178q-83 40 -167.5 52t-176.5 12q-126 0 -220.5 -49t-159 -131t-96 -186t-31.5 -216q0 -126 35.5 -228.5t103 -173.5t160.5 -109.5t208 -38.5q109 0 183 25t158 68l72 -177 q-83 -49 -195 -71.5t-238 -22.5q-155 0 -284 52.5t-222 147.5t-143.5 229.5t-50.5 298.5z" />
<glyph unicode="D" horiz-adv-x="1355" d="M106 0v1436h408q367 0 573.5 -170.5t206.5 -534.5q0 -170 -60.5 -304t-167 -228.5t-252.5 -146.5t-318 -52h-390zM318 181h178q137 0 244.5 39.5t184 113t116.5 174t40 223.5q0 257 -142 391t-428 134h-193v-1075z" />
<glyph unicode="E" horiz-adv-x="996" d="M106 0v1436h786v-180h-574v-447h516v-180h-516v-448h574v-181h-786z" />
<glyph unicode="F" horiz-adv-x="911" d="M106 0v1436h786v-180h-574v-447h516v-180h-516v-629h-212z" />
<glyph unicode="G" horiz-adv-x="1384" d="M63 689q0 166 57.5 309t160.5 246.5t243.5 162.5t309.5 59q110 0 188 -16t130 -33q58 -20 98 -46v-192q-8 8 -38 25t-85 34.5t-134 32t-181 14.5q-126 0 -225.5 -49t-168 -132t-105.5 -191t-37 -224q0 -118 34 -217.5t98.5 -170.5t159 -109.5t217.5 -38.5q93 0 154.5 11 t127.5 46v361h-315v181h526v-672q-109 -60 -239 -82.5t-268 -22.5q-152 0 -281 49.5t-223.5 141.5t-149 225.5t-54.5 297.5z" />
<glyph unicode="H" horiz-adv-x="1311" d="M106 0v1436h212v-599h677v599h212v-1436h-212v657h-677l-3 -657h-209z" />
<glyph unicode="I" horiz-adv-x="424" d="M106 0v1436h212v-1436h-212z" />
<glyph unicode="J" horiz-adv-x="770" d="M20 20l72 161q20 -9 45 -14q49 -14 107 -14q106 0 159 85t53 269v929h209v-929q0 -273 -122 -402.5t-305 -129.5q-55 0 -94.5 7t-69.5 15q-32 11 -54 23z" />
<glyph unicode="K" horiz-adv-x="1163" d="M106 0v1436h212v-670l539 670h253l-402 -501l436 -935h-221l-355 763l-250 -312v-451h-212z" />
<glyph unicode="L" horiz-adv-x="911" d="M106 0v1436h212v-1255h574v-181h-786z" />
<glyph unicode="M" horiz-adv-x="1713" d="M106 0v1436h261l476 -1113l502 1113h264v-1436h-213v1086l-499 -1086h-112l-467 1075v-1075h-212z" />
<glyph unicode="N" horiz-adv-x="1398" d="M106 0v1436h244l731 -1129v1129h213v-1436h-247l-729 1116v-1116h-212z" />
<glyph unicode="O" horiz-adv-x="1513" d="M63 697q0 175 49 316.5t139.5 242.5t220.5 155.5t294 54.5q155 0 281 -54.5t216.5 -152.5t138.5 -232.5t48 -298.5q0 -175 -49.5 -315t-141 -238t-224 -149t-299.5 -51q-155 0 -277.5 51t-211.5 145.5t-136.5 228t-47.5 297.5zM276 697q0 -129 34 -231t96 -172 t146 -105.5t184 -35.5q112 0 204 37t157.5 108.5t103.5 179t38 250.5q0 129 -35.5 232.5t-99.5 175t-151.5 110.5t-186.5 39q-224 0 -357 -152.5t-133 -435.5z" />
<glyph unicode="P" horiz-adv-x="1068" d="M106 0v1436h405q224 0 360 -112t136 -334q0 -115 -38.5 -204t-111 -149t-169.5 -91.5t-218 -31.5h-152l-3 -514h-209zM318 694h152q170 0 247 81.5t77 211.5q0 63 -12.5 112.5t-44 84t-86.5 53.5t-140 19h-193v-562z" />
<glyph unicode="Q" horiz-adv-x="1513" d="M63 697q0 175 49 316.5t139.5 242.5t217.5 155.5t288 54.5q159 0 287.5 -54.5t219 -152.5t138.5 -232.5t48 -298.5q0 -241 -91.5 -411.5t-245.5 -256.5q35 -14 73 -35.5t68.5 -53t50 -73t19.5 -95.5h-197q0 40 -21.5 71t-52 54t-64.5 40.5t-59 25.5q-47 -11 -98.5 -15 t-103.5 -4q-148 0 -271.5 51t-211 145.5t-135 228t-47.5 297.5zM276 697q0 -260 128.5 -402t334.5 -142q109 0 201 37t157.5 108.5t103.5 179t38 250.5q0 129 -35.5 232.5t-101 175t-153 110.5t-192.5 39q-106 0 -193.5 -39t-152 -114.5t-100 -185t-35.5 -249.5z" />
<glyph unicode="R" horiz-adv-x="1198" d="M106 0v1436h444q88 0 171.5 -25.5t147 -75.5t101 -125t37.5 -175q0 -75 -27.5 -132t-73.5 -100t-103.5 -70t-120.5 -39q66 -22 123 -106t115 -175l259 -413h-241l-232 375q-72 115 -135.5 169.5t-140.5 54.5h-112l-3 -599h-209zM318 780h199q126 0 201.5 64.5t75.5 190.5 q0 98 -70 156.5t-207 61.5l-199 3v-476z" />
<glyph unicode="S" horiz-adv-x="1169" d="M106 95v178q58 -35 126 -60q58 -23 133.5 -41.5t159.5 -18.5q153 0 239.5 64t86.5 199q0 92 -56 144.5t-137 87t-179 63t-179.5 75t-137.5 119t-56 198.5q0 83 40 151t107.5 115.5t153.5 72t178 24.5q109 0 189 -16t132 -33q60 -20 101 -46v-181q-49 25 -112 46 q-55 17 -132.5 33t-177.5 16q-49 0 -98 -13t-86 -37.5t-60 -57.5t-23 -74q0 -74 56 -118t138 -75.5t179 -63t179 -83.5t138 -134t56 -213q0 -88 -24.5 -168.5t-84.5 -141t-160.5 -96t-249.5 -35.5q-110 0 -189.5 18t-137.5 42q-65 25 -112 60z" />
<glyph unicode="T" horiz-adv-x="1040" d="M20 1256v180h1001v-180h-387v-1256h-213v1256h-401z" />
<glyph unicode="U" horiz-adv-x="1311" d="M106 547v889h212v-877q0 -216 79 -311t246 -95q158 0 255 88.5t97 300.5v894h212v-868q0 -309 -149 -451t-418 -142q-258 0 -396 138.5t-138 433.5z" />
<glyph unicode="V" horiz-adv-x="1297" d="M20 1436h212l416 -1160l419 1160h211l-529 -1436h-199z" />
<glyph unicode="W" horiz-adv-x="1897" d="M20 1436h212l315 -1146l345 1146h143l287 -1143l344 1143h211l-441 -1436h-232l-244 1056l-298 -1056h-229z" />
<glyph unicode="X" horiz-adv-x="1229" d="M20 0l470 717l-441 719h246l321 -539l347 539h247l-471 -719l471 -717h-247l-350 539l-347 -539h-246z" />
<glyph unicode="Y" horiz-adv-x="1163" d="M20 1436h215l333 -691l359 691h217l-471 -911v-525h-211v519z" />
<glyph unicode="Z" horiz-adv-x="1141" d="M20 0v69l785 1187h-728v180h1044v-68l-788 -1187h756l3 -181h-1072z" />
<glyph unicode="[" horiz-adv-x="602" d="M106 -402v1939h476v-178h-281v-1583h281v-178h-476z" />
<glyph unicode="\" horiz-adv-x="712" d="M20 1757h201l473 -1757h-204z" />
<glyph unicode="]" horiz-adv-x="602" d="M20 -224h281v1583h-281v178h476v-1939h-476v178z" />
<glyph unicode="^" horiz-adv-x="1360" d="M106 553l496 984h98l556 -984h-206l-399 694l-342 -694h-203z" />
<glyph unicode="_" horiz-adv-x="1111" d="M106 32h901v-172h-901v172z" />
<glyph unicode="`" horiz-adv-x="687" d="M106 1611h224l252 -350h-191z" />
<glyph unicode="a" horiz-adv-x="1054" d="M106 875q28 55 83 99q46 41 124 72.5t194 31.5q82 0 162 -23t143 -71.5t100 -126t37 -184.5v-673h-194v129q-41 -46 -116 -98.5t-183 -52.5q-152 0 -252 81q-95 77 -95 217v14q3 95 41.5 151.5t93 89.5t117.5 45t118 12q74 0 127 5.5t86 14.5q37 11 60 23 q0 159 -71 219.5t-177 60.5q-88 0 -151 -28.5t-104 -62.5q-49 -40 -80 -89zM304 290q0 -93 60 -123t134 -30q75 0 148.5 40.5t108.5 88.5v213q-38 -11 -79 -20q-35 -5 -76 -11.5t-83 -6.5q-35 0 -73.5 -10t-69 -28.5t-50.5 -47.5t-20 -65z" />
<glyph unicode="b" horiz-adv-x="1198" d="M106 0v1522h198v-619q28 49 77 90q40 32 102 60t148 28q75 0 163.5 -31.5t164.5 -96t126 -164.5t50 -239q0 -152 -47.5 -258t-120 -173t-163 -98.5t-175.5 -31.5q-86 0 -148 26t-103 56q-46 38 -74 87v-158h-198zM304 298q38 -43 89 -74q44 -28 102 -49.5t127 -21.5 q54 0 110 21t102.5 68.5t75 121.5t28.5 183q0 86 -28.5 154t-75 114.5t-102.5 71t-110 24.5q-69 0 -128 -23t-101 -48q-51 -32 -89 -71v-471z" />
<glyph unicode="c" horiz-adv-x="914" d="M63 501q0 129 41.5 237t115 182.5t170.5 116t212 41.5q60 0 113.5 -14t93.5 -29q46 -17 86 -40l-75 -166q-28 22 -63 40q-32 14 -70.5 28t-84.5 14q-74 0 -135.5 -31.5t-108 -86t-72.5 -128.5t-26 -164q0 -172 99.5 -260t245.5 -88q46 0 83 12.5t69 26.5q33 17 63 43 l75 -166q-41 -23 -90 -41q-41 -14 -96 -26.5t-115 -12.5q-112 0 -209.5 33t-168 98.5t-112 160t-41.5 220.5z" />
<glyph unicode="d" horiz-adv-x="1198" d="M63 550q0 132 49 232.5t122 165t159 97.5t160 33q85 0 149 -28.5t107 -59.5q52 -38 86 -87v619h197v-1522h-197v158q-35 -49 -83 -87q-43 -32 -106 -57t-150 -25q-86 0 -173.5 33t-158.5 101.5t-116 175t-45 251.5zM260 547q0 -100 27.5 -174.5t71 -123.5t98 -72.5 t107.5 -23.5q74 0 136.5 21t104.5 50q52 32 90 74v471q-38 40 -90 71q-43 25 -104 48t-137 23q-54 0 -108 -25.5t-97.5 -74t-71 -115.5t-27.5 -149z" />
<glyph unicode="e" horiz-adv-x="1048" d="M63 514q0 117 35.5 220t98.5 179.5t150.5 120.5t194.5 44q213 0 329 -136.5t116 -380.5v-91h-727q0 -155 89 -236t231 -81q77 0 130 15t84 35q38 22 60 52l69 -157q-44 -32 -94 -55q-46 -22 -110.5 -38t-147.5 -16q-112 0 -205 30t-161 94.5t-105 163t-37 237.5zM266 637 h517q-6 118 -69 196t-172 78q-55 0 -102 -23t-83 -60t-60 -86.5t-31 -104.5z" />
<glyph unicode="f" horiz-adv-x="709" d="M20 869v168h186v136q0 167 69 272.5t239 105.5q49 0 83 -2.5t57 -8.5q25 -6 38 -11v-172q-17 5 -35 14q-17 5 -39 9.5t-50 4.5q-74 0 -120 -44.5t-46 -167.5v-136h290v-168h-287l-3 -869h-196v869h-186z" />
<glyph unicode="g" horiz-adv-x="1198" d="M63 514q0 145 46 251.5t117.5 176.5t160.5 103t174 33q86 0 149.5 -28.5t104.5 -59.5q49 -38 80 -87v161h197v-1018q0 -287 -140 -415.5t-433 -128.5q-85 0 -151.5 16.5t-115.5 40.5q-55 25 -94 57l72 160q28 -32 71 -55q38 -22 90.5 -38t127.5 -16q173 0 274.5 76 t101.5 274v141q-33 -49 -80 -87q-41 -32 -102.5 -58.5t-148.5 -26.5q-80 0 -167.5 33t-161.5 97.5t-123 163t-49 234.5zM260 514q0 -77 27.5 -143.5t71 -115.5t96 -75.5t106.5 -26.5q75 0 137 21t104 50q52 32 93 71v471q-41 40 -93 71q-43 25 -104 48.5t-137 23.5 q-54 0 -106.5 -24.5t-96 -73t-71 -123.5t-27.5 -174z" />
<glyph unicode="h" horiz-adv-x="1111" d="M106 0v1522h198v-647q28 55 71 99q38 41 95.5 72.5t139.5 31.5q104 0 179.5 -31.5t123 -84.5t71 -126t23.5 -154v-682h-198v692q0 92 -68 148.5t-177 56.5q-66 0 -115.5 -24.5t-81.5 -52.5q-38 -32 -63 -75v-745h-198z" />
<glyph unicode="i" horiz-adv-x="408" d="M106 0v1064h198v-1064h-198zM106 1221v196h198v-196h-198z" />
<glyph unicode="j" horiz-adv-x="408" d="M-295 -441l68 160q20 -14 41 -26q17 -8 37 -15.5t40 -7.5q98 0 156.5 76t58.5 254v1064h198v-1032q0 -246 -106 -388t-310 -142q-49 0 -82 8t-55 20q-28 11 -46 29zM106 1221v196h198v-196h-198z" />
<glyph unicode="k" horiz-adv-x="996" d="M106 0v1522h198v-994l413 515h227l-290 -358l318 -685h-192l-247 536l-229 -290v-246h-198z" />
<glyph unicode="l" horiz-adv-x="408" d="M106 0v1522h198v-1522h-198z" />
<glyph unicode="m" horiz-adv-x="1814" d="M106 0v1064h198v-189q0 3 19 36t56 70t95.5 67t141.5 30q146 0 230 -63t123 -153q11 17 38.5 52t70.5 72t102 64.5t133 27.5q104 0 179.5 -31.5t123 -86t70.5 -126t23 -152.5v-682h-198v692q0 85 -64.5 145t-173.5 60q-66 0 -114.5 -24.5t-83.5 -52.5q-40 -32 -68 -75 v-745h-198v692q0 92 -68 148.5t-177 56.5q-66 0 -114 -24.5t-80 -52.5q-38 -32 -66 -75v-745h-198z" />
<glyph unicode="n" horiz-adv-x="1111" d="M106 0v1064h198v-189q25 55 71 99q38 41 98 72.5t143 31.5q104 0 176.5 -31.5t120 -86t71 -126t23.5 -152.5v-682h-198v692q0 85 -66.5 145t-168.5 60q-66 0 -116.5 -24.5t-85.5 -52.5q-40 -32 -68 -75v-745h-198z" />
<glyph unicode="o" horiz-adv-x="1166" d="M63 517q0 260 139.5 410.5t388.5 150.5q117 0 211.5 -38.5t162 -110.5t103 -171t35.5 -219q0 -260 -141.5 -406.5t-390.5 -146.5q-115 0 -208 37t-161 105.5t-103.5 168t-35.5 220.5zM260 517q0 -161 79.5 -262.5t231.5 -101.5q164 0 249.5 104t85.5 282q0 164 -82 268 t-233 104q-164 0 -247.5 -109.5t-83.5 -284.5z" />
<glyph unicode="p" horiz-adv-x="1198" d="M106 -456v1520h198v-161q35 49 82 87q41 32 100 60t138 28q96 0 186 -33t163.5 -103t117.5 -176.5t44 -251.5q0 -135 -49 -234t-123 -163.5t-161.5 -97.5t-161.5 -33q-86 0 -151 27.5t-105 57.5q-49 38 -80 87v-614h-198zM304 295q38 -43 89 -74q44 -28 103.5 -50.5 t134.5 -22.5q44 0 98 23.5t100 69.5t77.5 113t31.5 160q0 115 -31.5 190.5t-79 121.5t-103.5 65.5t-102 19.5q-69 0 -126.5 -23t-99.5 -51q-52 -32 -92 -71v-471z" />
<glyph unicode="q" horiz-adv-x="1198" d="M63 514q0 145 45 251.5t113.5 176.5t156 103t172.5 33q86 0 151 -28.5t108 -59.5q52 -38 86 -87v161h197v-1520h-197v614q-33 -49 -80 -87q-41 -32 -104 -58.5t-150 -26.5q-77 0 -165.5 33t-161.5 97.5t-122 163t-49 234.5zM260 514q0 -93 31.5 -160t78 -113t99.5 -69.5 t99 -23.5q72 0 132 22t102 51q52 32 93 74v471q-44 40 -96 71q-43 28 -101 51t-127 23q-43 0 -97.5 -19.5t-102.5 -65.5t-79.5 -121.5t-31.5 -190.5z" />
<glyph unicode="r" horiz-adv-x="687" d="M106 0v1064h198v-284q25 82 63 150q32 57 80.5 102.5t113.5 45.5q20 0 40.5 -3t35.5 -8q17 -6 31 -9v-196q-20 3 -37 10q-16 6 -35 8.5t-43 2.5q-43 0 -87.5 -42t-81.5 -89q-44 -58 -80 -130v-622h-198z" />
<glyph unicode="s" horiz-adv-x="939" d="M106 52v166q35 -22 83 -40q41 -14 95.5 -27.5t120.5 -13.5q232 0 232 164q0 66 -39 101.5t-99.5 60t-127.5 43.5t-127.5 52t-99 86t-38.5 144q0 69 34.5 125t87.5 96.5t117.5 61.5t124.5 21q80 0 139 -12.5t97 -26.5q43 -17 71 -41v-166q-35 22 -80 40q-40 14 -97.5 27.5 t-129.5 13.5q-65 0 -115.5 -42t-50.5 -97q0 -52 38.5 -77.5t98.5 -44t128 -38.5t128 -57.5t98.5 -100.5t38.5 -169q0 -66 -24.5 -124.5t-76 -105t-131.5 -71.5t-189 -25q-66 0 -122 11t-96 25q-49 17 -89 41z" />
<glyph unicode="t" horiz-adv-x="709" d="M20 869v168h186v485h199v-485h287v-168h-287v-508q0 -123 42.5 -165.5t113.5 -42.5q33 0 56 2.5t40 8.5q19 5 35 14v-172q-14 -6 -38 -9q-41 -8 -137 -8q-164 0 -237.5 101.5t-73.5 270.5v508h-186z" />
<glyph unicode="u" horiz-adv-x="1111" d="M106 378v686h198v-683q0 -104 70 -158t165 -54q66 0 116.5 23.5t83.5 51.5q41 32 70 77v743h198v-1061h-198v183q-22 -54 -67 -98q-38 -38 -96 -67t-142 -29q-104 0 -179.5 30t-123.5 83t-71.5 123t-23.5 150z" />
<glyph unicode="v" horiz-adv-x="1040" d="M20 1064h226l290 -804l287 804h198l-370 -1064h-230z" />
<glyph unicode="w" horiz-adv-x="1538" d="M20 1064h226l201 -791l259 791h142l230 -791l227 791h214l-326 -1064h-203l-216 763l-241 -763h-218z" />
<glyph unicode="x" horiz-adv-x="974" d="M20 0l355 531l-355 533h218l249 -370l247 370h218l-356 -547l359 -517h-221l-247 356l-249 -356h-218z" />
<glyph unicode="y" horiz-adv-x="1108" d="M22 -441l70 157q20 -14 40 -25q16 -9 39.5 -16.5t46.5 -7.5q63 0 106 31.5t75 115.5l83 203l-454 1047h216l344 -780l287 780h214l-490 -1253q-32 -77 -65 -136t-75.5 -98t-98.5 -57t-136 -18q-52 0 -89 8t-64 20q-32 11 -49 29z" />
<glyph unicode="z" horiz-adv-x="991" d="M106 0v71l570 826h-515v167h811v-81l-565 -816h556v-167h-857z" />
<glyph unicode="{" horiz-adv-x="638" d="M63 438v161q85 9 131.5 56.5t46.5 164.5v335q0 181 86 277.5t292 104.5v-178q-72 -5 -125 -52.5t-53 -157.5v-344q0 -115 -51 -190.5t-152 -103.5q95 -22 149 -98.5t54 -196.5v-331q0 -123 50.5 -163t127.5 -40v-180q-195 0 -286.5 93t-91.5 271v340q0 117 -46.5 169 t-131.5 63z" />
<glyph unicode="|" horiz-adv-x="411" d="M106 -358v2035h201v-2035h-201z" />
<glyph unicode="}" horiz-adv-x="638" d="M20 -318q74 0 125.5 40t51.5 163v331q0 120 55 195.5t150 99.5q-101 28 -153 104.5t-52 189.5v344q0 110 -52.5 157.5t-124.5 52.5v178q203 -8 289.5 -104.5t86.5 -277.5v-335q0 -117 47 -164.5t134 -56.5v-161q-86 -11 -133.5 -63t-47.5 -169v-340q0 -178 -91.5 -271 t-284.5 -93v180z" />
<glyph unicode="~" horiz-adv-x="1108" d="M106 473q0 58 15.5 112.5t47 95.5t79 67t113.5 26q60 0 109 -23t93.5 -51.5t87.5 -52t91 -23.5q92 0 101 150h161q-6 -137 -67.5 -219t-191.5 -82q-63 0 -114 23t-96 50.5t-85 50t-83 22.5q-55 0 -79.5 -34.5t-24.5 -111.5h-157z" />
<glyph unicode="&#xa9;" horiz-adv-x="1883" d="M106 694q0 175 66 327t179.5 265t265.5 178t327 65t326.5 -65t265 -178t178 -265t64.5 -327t-64.5 -326.5t-178 -263.5t-265 -176.5t-326.5 -64.5t-327 64.5t-265.5 176.5t-179.5 263.5t-66 326.5zM206 694q0 -152 57.5 -285t158 -232.5t235 -157t287.5 -57.5 q152 0 286.5 57.5t233 157t156 232.5t57.5 285q0 153 -57.5 286t-156 231.5t-233.5 156t-286 57.5q-153 0 -287.5 -57.5t-235 -156t-158 -231.5t-57.5 -286zM468 679q0 123 37 222.5t104 168t161.5 105.5t209.5 37q66 0 142 -8t128 -28l-38 -84q-51 22 -113 31.5t-119 9.5 q-95 0 -170.5 -34.5t-128 -96t-81.5 -145t-29 -178.5q0 -200 110 -320.5t299 -120.5q74 0 124.5 14t107.5 46l38 -88q-57 -32 -132 -43.5t-152 -11.5q-227 0 -362.5 140t-135.5 384z" />
<glyph unicode="&#xad;" horiz-adv-x="810" d="M106 545v175h600v-175h-600z" />
<glyph unicode="&#xae;" horiz-adv-x="1883" d="M106 694q0 175 66 327t179.5 265t265.5 178t327 65t326.5 -65t265 -178t178 -265t64.5 -327t-64.5 -326.5t-178 -263.5t-265 -176.5t-326.5 -64.5t-327 64.5t-265.5 176.5t-179.5 263.5t-66 326.5zM206 692q0 -153 57.5 -286t158 -232.5t235 -155.5t287.5 -56 q155 0 288 56t231.5 155.5t156 232.5t57.5 286q0 155 -57.5 288t-156 231.5t-232 156t-287.5 57.5q-153 0 -287.5 -57.5t-235 -156t-158 -231.5t-57.5 -288zM643 197v1031h306q63 0 119 -17.5t99 -52t68.5 -86t25.5 -120.5t-20 -118t-54.5 -81.5t-80 -51.5t-94.5 -28 q52 -28 97.5 -74t69.5 -85l197 -317h-126l-175 287q-46 75 -112 119.5t-106 44.5h-108v-451h-106zM749 731h143q52 0 98.5 13t83 42t59 69t22.5 97q0 85 -61.5 137t-170.5 52h-174v-410z" />
<glyph unicode="&#xbc;" horiz-adv-x="2052" d="M126 1502v101q38 14 69.5 34.5t56.5 42.5q28 25 55 52h106v-788h-115v632q-25 -16 -74 -39.5t-98 -34.5zM447 0l1044 1757h200l-1043 -1757h-201zM1422 270v94l359 508h109v-502h97v-100h-97v-187h-115v187h-353zM1554 370h221v319z" />
<glyph unicode="&#xbd;" horiz-adv-x="2086" d="M126 1502v101q38 14 69.5 34.5t56.5 42.5q28 25 55 52h106v-788h-115v632q-25 -16 -74 -39.5t-98 -34.5zM447 0l1044 1757h200l-1043 -1757h-201zM1483 83v86q0 72 57 133.5t126 121.5t126 120.5t57 128.5q0 72 -37 99t-89 27q-49 0 -109 -16.5t-101 -57.5v101 q75 74 210 74q110 0 177 -58.5t67 -159.5q0 -88 -52 -155.5t-115 -123.5t-121.5 -107.5t-69.5 -112.5h389v-100h-515z" />
<glyph unicode="&#xbe;" horiz-adv-x="2066" d="M106 993v102q41 -32 88 -43.5t99 -11.5q63 0 119 30t56 98q0 74 -63 109.5t-219 35.5v98q69 3 123 14q49 11 87.5 37t38.5 81q0 68 -34 92.5t-80 24.5q-49 0 -97.5 -11.5t-86.5 -37.5v98q38 23 82 37t102 14q88 0 158.5 -54t70.5 -141q0 -82 -47 -130t-122 -67 q74 -11 137.5 -60t63.5 -132q0 -109 -79 -170.5t-210 -61.5q-55 0 -104 14t-83 35zM459 0l1046 1757h202l-1048 -1757h-200zM1436 270v94l359 508h109v-502h98v-100h-98v-187h-115v187h-353zM1568 370h221v319z" />
<glyph unicode="&#xe01;" horiz-adv-x="1269" d="M63 960q49 93 123 167q63 63 162 115t237 52q107 0 209.5 -26t184.5 -78t133 -131t51 -184v-689q0 -40 -21 -73t-44 -58q-28 -33 -63 -55h-80v818q0 88 -34.5 146.5t-87.5 90t-117.5 45t-124.5 13.5q-77 0 -133 -24.5t-97 -53.5q-46 -33 -77 -75l175 -142 q-22 -23 -38 -55q-14 -28 -24.5 -71.5t-10.5 -109.5v-582h-205v588q0 55 7 96t18 73q11 35 26 61q-49 40 -86 71q-33 25 -58 47t-25 24z" />
<glyph unicode="&#xe02;" horiz-adv-x="1068" d="M63 1084v180h178q155 0 237.5 -72.5t82.5 -201.5q0 -72 -34 -131.5t-76 -101.5q-23 -22 -58 -83t-35 -143v-115q0 -55 8.5 -102.5t30.5 -83t60.5 -56.5t95.5 -21t94.5 22t60.5 61.5t33.5 85t10.5 94.5v848h211v-848q0 -86 -18 -166.5t-67 -140.5t-131 -97t-205 -37 q-112 0 -187.5 37t-120.5 97t-63 140.5t-18 166.5v115q0 68 12.5 120t34 93t44 72.5t46.5 58.5q17 22 38.5 56.5t21.5 58.5q0 38 -26 66t-83 28h-178z" />
<glyph unicode="&#xe03;" horiz-adv-x="1068" d="M63 1086v178q22 0 46.5 -15.5t45.5 -36.5q23 -22 42 -49q23 26 52 49q23 20 55 36t71 16q80 0 145 -61.5t65 -181.5q0 -86 -34 -142t-78 -99q-11 -11 -30 -33t-38 -52t-33 -67t-14 -81v-131q0 -55 8.5 -102.5t30.5 -83t60.5 -56.5t98.5 -21q54 0 93.5 23.5t60.5 64 t31.5 87.5t10.5 96v840h211v-829q0 -95 -20 -177.5t-67 -145.5t-125 -100t-195 -37q-121 0 -198 37t-124.5 97t-66.5 140.5t-19 166.5v134q0 95 39.5 177t99.5 148q22 22 56.5 55t34.5 88q0 38 -26 56t-57 10q-14 -6 -34 -20t-34 -29q-20 -17 -38 -40q-20 26 -41 45 q-16 17 -39.5 31.5t-45.5 14.5z" />
<glyph unicode="&#xe04;" horiz-adv-x="1283" d="M106 0v875q0 98 44.5 175t120.5 131.5t172 83.5t200 29q100 0 196 -29t171.5 -82t122 -132t46.5 -176v-875h-213v875q0 55 -26 99t-71.5 75.5t-104 47.5t-121.5 16q-66 0 -123.5 -16t-103.5 -46t-72 -74.5t-26 -101.5v-316q40 46 92 81q44 32 101 57t123 25v-208 q-74 0 -133.5 -22t-98.5 -45q-49 -33 -87 -66v-381h-209z" />
<glyph unicode="&#xe05;" horiz-adv-x="1283" d="M106 0v875q0 74 27.5 148.5t74.5 134.5t110 98t136 38q35 0 67 -24.5t61 -57.5q33 -35 61 -79q25 46 57 79q25 33 59.5 57.5t72.5 24.5q74 0 137 -38t110.5 -98t73.5 -134.5t26 -148.5v-875h-213v875q0 43 -10 86t-30 76t-47.5 54.5t-63.5 21.5q-23 0 -53.5 -28.5 t-55.5 -63.5q-33 -41 -63 -89q-35 49 -66 89q-28 35 -57.5 63.5t-51.5 28.5q-35 0 -64 -21.5t-48.5 -54.5t-30 -76.5t-10.5 -85.5v-316q41 46 92 81q44 32 100.5 57t126.5 25v-208q-74 0 -133.5 -22t-98.5 -45q-49 -33 -87 -66v-381h-209z" />
<glyph unicode="&#xe06;" horiz-adv-x="1297" d="M63 1086v178q22 0 46.5 -15.5t45.5 -36.5q23 -22 42 -49q23 26 52 49q23 20 55 36t71 16q93 -3 154.5 -70t61.5 -176q0 -98 -37 -153.5t-80.5 -99t-79.5 -89t-36 -120.5l3 -217q41 -46 93 -81q43 -33 102.5 -55t135.5 -22q145 0 216.5 74.5t71.5 245.5v763h213v-840 q0 -85 -29 -167t-82 -143.5t-128.5 -100t-173.5 -38.5q-109 0 -187.5 33t-130.5 72q-60 46 -104 106v-186h-210v577q0 101 36.5 156t79.5 95.5t78.5 80.5t35.5 106q0 35 -21 54.5t-53 19.5q-14 0 -34.5 -15.5t-37.5 -33.5q-19 -19 -43 -45q-22 26 -43 45q-20 17 -40.5 31.5 t-42.5 14.5z" />
<glyph unicode="&#xe07;" horiz-adv-x="1089" d="M66 860h213l168 -677q63 0 129.5 30.5t119.5 86.5t86 139t33 192q0 107 -35 191t-95.5 142.5t-137.5 89t-163 30.5v180q128 0 244.5 -41t205.5 -123t140.5 -199.5t51.5 -269.5q0 -140 -51.5 -256.5t-134.5 -199.5t-186.5 -129t-209.5 -46h-171z" />
<glyph unicode="&#xe08;" horiz-adv-x="1226" d="M57 1032q38 71 104 129q57 49 149 91t237 42q140 0 253.5 -53.5t194 -141t124.5 -202t44 -238.5q0 -134 -37 -253t-109.5 -209.5t-180.5 -143.5t-251 -53h-144l-115 456q-8 23 -20.5 25.5t-35.5 2.5h-57v181h113q66 0 111 -21.5t77 -96.5l102 -364q80 0 143.5 40 t106.5 106.5t66 152.5t23 177q0 124 -40 210t-100 140.5t-132.5 79t-132.5 24.5q-115 0 -193 -40.5t-130 -89.5q-60 -58 -98 -129z" />
<glyph unicode="&#xe09;" horiz-adv-x="1269" d="M63 542v180h137q95 0 140.5 -61.5t45.5 -164.5v-80q0 -129 42 -182t163 -53q74 0 140 24.5t115 54.5q57 35 106 82v418q0 74 -19 138.5t-57.5 112t-100 75t-146.5 27.5q-86 0 -162 -27.5t-134 -59.5q-66 -38 -120 -82l-76 175q58 49 133 85q66 32 155 61t204 29 q266 0 400 -139.5t134 -366.5v-788h-211v186q-52 -60 -115 -106q-57 -41 -132.5 -73t-173.5 -32q-173 0 -261.5 115.5t-88.5 305.5v72q0 22 -6 48t-32 26h-80z" />
<glyph unicode="&#xe0a;" horiz-adv-x="1131" d="M63 1084v180h164q166 0 250 -72.5t84 -201.5q0 -72 -32.5 -130t-74.5 -100q-23 -22 -59.5 -80t-36.5 -149v-147q0 -49 8.5 -90.5t34.5 -73t69.5 -49.5t111.5 -18q69 0 114.5 31.5t75.5 77t43.5 98.5t13.5 99q0 153 -56 253t-157 100v183q55 0 101 41.5t76 114.5t47 168 t17 203h213q0 -184 -38.5 -303t-86.5 -187.5t-92 -97t-54 -31.5q6 -3 45 -23t82 -70t78.5 -136t35.5 -218q0 -92 -23.5 -178t-78.5 -153.5t-142.5 -108.5t-215.5 -41q-129 0 -211 34t-131 93t-67 134.5t-18 159.5v135q0 65 12.5 118.5t34 93.5t44 72.5t46.5 59.5 q17 22 38.5 56.5t21.5 58.5q0 40 -31.5 67t-91.5 27h-164z" />
<glyph unicode="&#xe0b;" horiz-adv-x="1131" d="M63 1086v178q22 0 46.5 -15.5t45.5 -36.5q23 -22 42 -49q23 26 52 49q23 20 55 36t71 16q93 0 151.5 -68.5t58.5 -177.5q0 -93 -39 -145.5t-81 -98.5q-11 -11 -28.5 -31.5t-35 -49t-30.5 -64t-13 -79.5v-166q0 -49 8.5 -90.5t34.5 -73t71 -49.5t116 -18q63 0 108.5 31.5 t75.5 77t43.5 98.5t13.5 96q0 153 -56 254.5t-157 101.5v183q55 0 101 41.5t76 114.5t47 168t17 203h213q0 -184 -38.5 -303t-86.5 -187.5t-90.5 -97t-52.5 -31.5q6 -3 43.5 -23t80.5 -70t78.5 -136t35.5 -218q0 -85 -22.5 -172t-75.5 -155.5t-140.5 -111t-213.5 -42.5 q-134 0 -219 34t-132.5 93t-65.5 134.5t-18 159.5v149q0 92 37 176t97 151q20 23 55.5 57t35.5 89q0 38 -24 56t-56 12q-17 -5 -35.5 -19t-35.5 -30q-20 -16 -41 -39l-43 42q-20 17 -40 31.5t-40 14.5z" />
<glyph unicode="&#xe0c;" horiz-adv-x="2014" d="M63 960q49 93 123 167q66 63 165.5 115t242.5 52q100 0 201.5 -26t183.5 -78t133 -131t51 -184v-536q28 -46 76 -81q38 -33 94.5 -55t132.5 -22q145 0 189.5 74.5t44.5 245.5v763h210v-848q0 -74 -19 -153.5t-60.5 -143.5t-108.5 -104t-165 -40q-109 0 -182 33t-122 72 q-55 46 -90 106v-186h-208v818q0 85 -33 142.5t-85 90.5t-116 47.5t-127 14.5q-83 0 -139 -24.5t-97 -53.5q-46 -33 -74 -75l175 -142q-22 -20 -38 -52q-14 -28 -24.5 -71.5t-10.5 -106.5v-347q0 -23 5 -39t28 -19h85v-183h-118q-85 0 -146.5 42.5t-61.5 173.5v372 q0 55 7 96t18 73q11 35 29 61q-49 40 -86 71q-33 25 -58 47t-25 24z" />
<glyph unicode="&#xe0d;" horiz-adv-x="2017" d="M63 960q49 93 123 167q66 63 163.5 115t241.5 52q103 0 204.5 -26t183.5 -78t133 -131t51 -184v-451q0 -129 61 -186t182 -57q71 0 125.5 23t91.5 54q43 35 74 81v925h213l2 -1100q0 -123 -47.5 -222.5t-121.5 -168t-166 -106t-178 -37.5q-93 0 -164.5 23.5t-121.5 53.5 q-60 35 -106 80l60 144q35 -40 80 -71q40 -28 96 -50.5t130 -22.5q138 0 231 101t93 281v17q-38 -60 -88 -106q-47 -41 -114 -73t-159 -32q-110 0 -182.5 35.5t-116.5 97t-64.5 146.5t-20.5 181v383q0 92 -34.5 148.5t-87.5 89.5t-117.5 45t-121.5 12q-83 0 -140.5 -24.5 t-94.5 -53.5q-44 -33 -72 -75l172 -142q-19 -20 -35 -52q-14 -28 -24.5 -71.5t-10.5 -106.5v-347q0 -23 3.5 -39t26.5 -19h88v-183h-129q-103 0 -150 53t-47 163v372q0 55 7 96t18 73q11 35 29 61q-49 40 -86 71q-33 25 -58 47t-25 24z" />
<glyph unicode="&#xe0e;" horiz-adv-x="1269" d="M63 960q49 93 123 167q63 63 162 115t240 52q98 0 199.5 -26t185 -78t137 -131t53.5 -184v-1075q0 -35 -7 -87t-39.5 -101.5t-97 -86t-176.5 -36.5q-66 0 -125 21.5t-102 51.5q-52 32 -91 74q-52 -43 -118 -74q-57 -28 -136 -50.5t-176 -22.5v181q98 0 176.5 23t135.5 52 q66 32 115 74q44 -40 88 -71q41 -28 89.5 -49.5t102.5 -21.5q93 0 123 41t30 129v971q0 85 -33 142.5t-85 90.5t-117.5 47.5t-128.5 14.5q-80 0 -136 -24.5t-97 -53.5q-46 -33 -74 -75l175 -142q-19 -20 -35 -52q-14 -28 -22.5 -70t-8.5 -108v-372q0 -121 -51.5 -168.5 t-152.5 -47.5h-123v181h87q22 2 23.5 18.5t1.5 38.5v350q0 55 7 96t18 73q11 35 29 61q-49 40 -86 71q-33 25 -58 47t-25 24z" />
<glyph unicode="&#xe0f;" horiz-adv-x="1269" d="M63 960q49 93 123 167q66 63 165.5 115t244.5 52q101 0 201 -26t182 -78t133 -131t51 -184v-1056q0 -32 -5.5 -87t-35.5 -108.5t-91.5 -94t-173.5 -40.5q-46 0 -86 21.5t-71 51.5q-38 32 -71 74l-104 -134l-106 134q-55 -43 -110 -74q-49 -28 -106 -50.5t-108 -22.5v181 q60 0 117.5 23t102.5 52q52 32 104 77l106 -137l104 146q2 -6 17.5 -32t43 -54.5t63 -51.5t76.5 -23q71 0 98.5 39t27.5 85v1024q0 85 -31.5 141t-83.5 90.5t-116.5 49t-127.5 14.5q-82 0 -139.5 -24.5t-98.5 -53.5q-46 -33 -74 -75l178 -142q-20 -20 -35 -52 q-14 -28 -24 -70t-10 -108v-372q0 -216 -196 -216h-131v181h87q22 2 23.5 18.5t1.5 35.5v356q0 54 7 94t18 72q11 33 29 61q-49 40 -86 71q-33 25 -58 47t-25 24z" />
<glyph unicode="&#xe10;" horiz-adv-x="1226" d="M55 1029q32 74 98 132q54 49 148.5 91t243.5 42q63 0 123 -12t112 -32q28 9 58.5 25t56 38.5t41.5 51t16 69.5h211q0 -58 -19.5 -105.5t-52.5 -82t-73.5 -56.5t-79.5 -35q109 -88 167 -220.5t58 -275.5q0 -148 -42.5 -270.5t-118 -208t-183.5 -133t-237 -47.5h-141 l-115 451q-8 22 -18 27.5t-32 5.5h-63v181h120q66 0 110 -24.5t74 -98.5l96 -359q80 0 143.5 40t108 106.5t67.5 152.5t23 177q0 124 -40 210t-100 139t-132.5 77.5t-137.5 24.5q-112 0 -192 -42t-129 -91q-57 -57 -95 -129zM92 -419q83 0 140.5 24.5t93.5 55.5q44 35 73 81 l99 -147l104 147q0 -2 17.5 -28t43.5 -55t61.5 -53.5t74.5 -24.5q35 0 54 11.5t29 27.5t12.5 31.5t2.5 27.5v160h210v-165q0 -20 -7.5 -64.5t-36 -91t-82.5 -82t-152 -35.5q-66 0 -108 23t-70 51q-32 32 -52 74l-101 -137l-99 134q-32 -43 -78 -74q-41 -28 -97.5 -49.5 t-131.5 -21.5v180z" />
<glyph unicode="&#xe11;" horiz-adv-x="1289" d="M63 1107v181q22 0 46.5 -16t45.5 -36q23 -22 42 -52q23 28 52 52q23 20 55 36t68 16q63 0 122 -43.5t59 -141.5q32 52 78 95q38 35 92 65.5t120 30.5q77 0 140.5 -42t107.5 -106.5t68.5 -145t24.5 -154.5v-846h-212v760q0 172 -53.5 248t-127.5 76q-71 0 -133 -40 t-111 -103t-84.5 -142t-60 -157t-37 -146.5t-12.5 -109.5v-44v-342h-213v318q0 155 38 271.5t82 202.5t81 144.5t37 100.5q0 35 -21 55.5t-53 20.5q-17 0 -37.5 -16t-36.5 -33q-20 -20 -41 -46q-17 22 -36 43q-17 17 -42.5 31.5t-47.5 14.5z" />
<glyph unicode="&#xe12;" horiz-adv-x="2014" d="M63 645q0 170 31.5 293t83.5 201.5t120.5 116.5t142.5 38q22 0 56 -24.5t62 -57.5q32 -35 70 -79q35 46 65 79q28 33 59.5 57.5t58.5 24.5q74 0 138.5 -33t112 -89t74 -128t26.5 -147v-558q33 -46 79 -81q40 -33 92.5 -55t127.5 -22q74 0 120 17.5t72 56t34.5 100 t8.5 146.5v763h213v-848q0 -74 -19 -153.5t-59 -143.5t-106 -104t-164 -40q-109 0 -183 33t-123 72q-55 49 -93 109v-189h-211v897q0 86 -43.5 151t-109.5 65q-22 0 -52 -28.5t-55 -63.5q-33 -41 -63 -89q-35 49 -68 89q-28 35 -56.5 63.5t-50.5 28.5q-28 0 -60.5 -20.5 t-58.5 -73.5t-42.5 -143.5t-16.5 -230.5q0 -92 14 -181t47 -157.5t90 -111t144 -42.5q58 0 97 19q19 9 38 20v-184q-14 -8 -35 -16q-17 -6 -43 -11.5t-57 -5.5q-117 0 -212.5 48t-161 137t-100 212.5t-34.5 272.5z" />
<glyph unicode="&#xe13;" horiz-adv-x="2014" d="M63 960q49 93 123 167q63 63 160.5 115t238.5 52q98 0 199.5 -23.5t186.5 -73.5t138.5 -130t53.5 -192v-374q0 -85 9.5 -146.5t35 -100t74 -56t126.5 -17.5q69 0 121.5 23t90.5 54q43 35 77 81v925h213v-1264h-213v186q-38 -60 -88 -106q-49 -41 -120.5 -73t-180.5 -32 q-101 0 -168.5 40t-108.5 104t-60 143.5t-19 153.5v402q0 88 -34.5 146.5t-87.5 90t-117.5 45t-124.5 13.5q-80 0 -137.5 -24.5t-94.5 -53.5q-44 -33 -72 -75l172 -142q-19 -20 -35 -52q-14 -28 -24.5 -71.5t-10.5 -106.5v-347q0 -23 5 -39t28 -19h85v-183h-113 q-86 0 -149.5 42.5t-63.5 173.5v372q0 55 7 96t18 73q11 35 29 61q-49 40 -86 71q-33 25 -58 47t-25 24z" />
<glyph unicode="&#xe14;" horiz-adv-x="1269" d="M63 645q0 173 50.5 296t129 200t180.5 115t206 38q103 0 198.5 -26t171.5 -78t120 -131t44 -184v-875h-211v862q0 66 -28.5 113.5t-75 78t-103 45t-116.5 14.5q-58 0 -120 -26t-113.5 -82t-85.5 -145t-34 -215q0 -95 14 -184t48 -157.5t90 -109.5t143 -41q63 0 102 19 q20 9 33 20v-181q-12 -11 -33 -19q-16 -6 -42 -11.5t-63 -5.5q-114 0 -208 48t-160 135.5t-101.5 211t-35.5 275.5z" />
<glyph unicode="&#xe15;" horiz-adv-x="1269" d="M63 645q0 170 31.5 293t83.5 201.5t120.5 116.5t142.5 38q32 0 65 -24.5t62 -57.5q33 -35 61 -79q25 46 56 79q25 33 58.5 57.5t68.5 24.5q66 0 129 -33t112.5 -89t79.5 -128t30 -147v-897h-211v897q0 89 -50.5 152.5t-104.5 63.5q-20 0 -48.5 -28.5t-54.5 -63.5 q-32 -41 -65 -89q-35 49 -68 89q-28 35 -56.5 63.5t-50.5 28.5q-26 0 -58 -20.5t-59.5 -73.5t-45.5 -143.5t-18 -230.5q0 -109 17 -199t52.5 -154.5t93 -101.5t135.5 -37q58 0 97 19q19 9 38 20v-184q-17 -8 -38 -16q-17 -6 -44.5 -11.5t-62.5 -5.5q-117 0 -210 49.5 t-157.5 140t-97.5 213.5t-33 267z" />
<glyph unicode="&#xe16;" horiz-adv-x="1269" d="M63 960q49 93 123 167q66 63 165.5 115t242.5 52q100 0 201.5 -26t183.5 -78t133 -131t51 -184v-689q0 -40 -21 -73t-44 -58q-28 -33 -63 -55h-80v818q0 85 -33 142.5t-85 91.5t-116 47.5t-127 13.5q-83 0 -139 -24.5t-97 -53.5q-46 -33 -74 -75l175 -142 q-22 -20 -38 -52q-14 -28 -24.5 -71.5t-10.5 -106.5v-347q0 -23 3.5 -39t26.5 -19h88v-183h-140q-85 0 -135.5 50.5t-50.5 165.5v372q0 55 7 96t18 73q11 35 29 61q-49 40 -86 71q-33 25 -58 47t-25 24z" />
<glyph unicode="&#xe17;" horiz-adv-x="1255" d="M106 0v1264h212v-189q40 60 101 109q51 41 128 75.5t187 34.5q98 0 173.5 -41t130 -105t83 -142.5t28.5 -159.5v-846h-211v760q0 153 -63 238.5t-235 85.5q-72 0 -130.5 -24.5t-102.5 -55.5q-51 -35 -89 -81l-3 -923h-209z" />
<glyph unicode="&#xe18;" horiz-adv-x="1169" d="M63 960q0 98 50.5 162.5t129 103t173.5 54.5t183 16q95 0 180.5 -18.5t152.5 -41.5q77 -28 146 -60v-186q-66 35 -140 63q-66 22 -153.5 42.5t-185.5 20.5q-43 0 -99 -3t-106 -17.5t-84 -46t-34 -89.5q0 -68 61.5 -94t153 -37t200 -23t200.5 -55t154 -130.5t62 -248.5 q0 -71 -27 -142.5t-87.5 -127.5t-157 -91.5t-230.5 -35.5q-60 0 -149 8.5t-171 49.5t-139.5 124.5t-57.5 228.5v178h216v-178q0 -85 31.5 -134t77.5 -70t96 -25t90 -4q129 0 212.5 63t83.5 159q0 118 -62 171t-153.5 76t-200.5 33t-201 36t-153.5 84.5t-61.5 184.5z" />
<glyph unicode="&#xe19;" horiz-adv-x="1255" d="M106 419v840h212v-763q0 -173 77.5 -244t212.5 -71q74 0 134 24.5t104 54.5q51 35 92 82v917h211v-1259h-211v189q-43 -60 -104 -109q-51 -41 -130.5 -73t-186.5 -32q-98 0 -174.5 40t-129 103t-80 143.5t-27.5 157.5z" />
<glyph unicode="&#xe1a;" horiz-adv-x="1226" d="M106 435v829h212v-840q0 -49 13 -97t42 -87.5t70 -63t99 -23.5h120q60 0 108 23.5t78 63t45.5 87.5t15.5 97v840h212v-829q0 -82 -25.5 -164t-77.5 -148t-129 -107t-181 -41h-201q-104 0 -179.5 41t-125 107t-73 148t-23.5 164z" />
<glyph unicode="&#xe1b;" horiz-adv-x="1226" d="M106 435v829h212v-840q0 -49 14.5 -97t42 -87.5t70 -63t102.5 -23.5h121q60 0 105 23.5t75 63t45.5 87.5t15.5 97v1213h212v-1202q0 -82 -25.5 -164t-77.5 -148t-130.5 -107t-184.5 -41h-202q-101 0 -175 41t-122.5 107t-73 148t-24.5 164z" />
<glyph unicode="&#xe1c;" horiz-adv-x="1472" d="M106 958q0 57 10 111.5t34.5 97.5t64.5 70t100 27h139v-183l-90 3q-20 0 -31.5 -13t-16 -34.5t-6 -43t-1.5 -38.5q3 -129 22 -239.5t41 -193.5q26 -98 61 -180l229 561h104l227 -561q37 68 68 194q28 107 54 283t40 445h213q-14 -304 -59 -537.5t-91 -396.5 q-55 -189 -118 -330h-140l-243 582l-247 -582h-140q-63 137 -112 295q-43 135 -77.5 305.5t-34.5 357.5z" />
<glyph unicode="&#xe1d;" horiz-adv-x="1470" d="M106 958q0 57 10 111.5t33 97.5t63 70t100 27h139v-183l-87 3q-20 0 -31.5 -13t-17.5 -33t-7 -42t-1 -38q0 -129 20 -241t43 -195q28 -98 63 -180l229 561h104l227 -561q46 114 79 298q28 158 54 407t26 613h213q0 -418 -42 -727t-90 -517q-57 -244 -133 -416h-140 l-246 582l-244 -582h-140q-63 137 -112 295q-43 135 -77.5 305.5t-34.5 357.5z" />
<glyph unicode="&#xe1e;" horiz-adv-x="1547" d="M20 1264h204l246 -859l238 859h132l235 -859l249 859h205l-361 -1264h-150l-244 881l-243 -881h-147z" />
<glyph unicode="&#xe1f;" horiz-adv-x="1659" d="M20 1264h204l246 -859l238 859h132l235 -859l361 1255h203l-471 -1660h-150l-244 875l-241 -875h-149z" />
<glyph unicode="&#xe20;" horiz-adv-x="1269" d="M63 960q49 93 123 167q63 63 160.5 115t238.5 52q107 0 211 -26t186 -78t131.5 -131t49.5 -184v-689q0 -40 -21 -73t-44 -58q-28 -33 -63 -55h-80v818q0 88 -33 145.5t-86 90t-119 46t-132 13.5q-74 0 -128.5 -24.5t-95.5 -53.5q-46 -33 -77 -75l175 -142 q-19 -20 -35 -52q-14 -28 -22.5 -70t-8.5 -108v-372q0 -110 -50 -163t-137 -53h-140v181h87q22 2 25 18.5t3 38.5l-3 350q0 55 7 96t18 73q11 35 29 61q-49 40 -86 71q-33 25 -58 47t-25 24z" />
<glyph unicode="&#xe21;" horiz-adv-x="1255" d="M106 0v1264h212v-908q40 -47 92 -80q44 -32 101 -56.5t126 -24.5q169 0 235 80.5t66 235.5v753h211v-848q0 -74 -27 -152t-78 -142.5t-129 -105.5t-179 -41q-109 0 -187.5 33t-129.5 72q-61 46 -101 106v-186h-212z" />
<glyph unicode="&#xe22;" horiz-adv-x="1183" d="M63 372q0 101 46 168.5t104 107.5q66 46 151 69q-77 14 -137 49q-52 32 -93.5 84.5t-41.5 139.5q0 80 28 137t73 94.5t98 55t102 17.5q58 0 99 -6.5t69 -12.5q33 -8 58 -16v-187q-23 9 -55 20q-25 6 -58 13.5t-73 7.5q-52 0 -90.5 -35t-38.5 -88q0 -93 89 -137t226 -44 v-180q-93 0 -156.5 -26t-105.5 -65.5t-61.5 -83.5t-19.5 -82q0 -106 64.5 -162.5t218.5 -56.5q79 0 138.5 23.5t97 63t54 87.5t16.5 97v840h213v-829q0 -82 -27.5 -164t-89 -148t-160 -107t-242.5 -41q-140 0 -234.5 31.5t-153.5 84t-83.5 126t-24.5 155.5z" />
<glyph unicode="&#xe23;" horiz-adv-x="1054" d="M106 85v175q55 -32 115 -54q52 -23 120.5 -38t142.5 -15q138 0 195 61.5t57 157.5q0 77 -46.5 115t-116 62.5t-152 44t-152 60t-116.5 110.5t-47 196q0 75 34.5 136.5t93.5 105t136 68t161 24.5q88 0 156 -17.5t112 -40.5q52 -25 93 -57v-186q-38 32 -90 60 q-46 22 -113 41t-158 19q-86 0 -149.5 -39t-63.5 -116q0 -69 47.5 -106t116 -63t152 -49t152 -64.5t116 -112t47.5 -191.5q0 -68 -17.5 -139.5t-67 -129t-137 -93t-229.5 -35.5q-92 0 -163.5 15.5t-121.5 37.5q-60 25 -107 57z" />
<glyph unicode="&#xe24;" horiz-adv-x="1269" d="M63 960q49 93 123 167q66 63 165.5 115t239.5 52q103 0 204.5 -26t183.5 -78t133 -131t51 -184v-1288q0 -41 -21 -73.5t-44 -58.5q-28 -32 -63 -54h-80v1417q0 88 -33 145.5t-87.5 90t-120.5 46t-129 13.5q-77 0 -133 -24.5t-94 -53.5q-43 -33 -74 -75l172 -142 q-19 -20 -35 -52q-14 -28 -24.5 -71.5t-10.5 -106.5v-347q0 -23 3.5 -39t26.5 -19h88v-183h-134q-93 0 -142.5 52t-49.5 164v372q0 55 7 96t18 73q11 35 29 61q-49 40 -86 71q-33 25 -58 47t-25 24z" />
<glyph unicode="&#xe25;" horiz-adv-x="1155" d="M63 330q0 107 46 181t117.5 121t160.5 67.5t174 20.5q98 0 153 7t83 15q32 11 40 27v65q0 118 -65.5 197t-210.5 79q-98 0 -172 -39t-123 -84q-60 -55 -102 -125l-76 178q41 72 107 128q57 49 147.5 87.5t218.5 38.5q255 0 372 -134t117 -372v-788h-213v588 q-17 -11 -52 -24q-32 -8 -84.5 -15t-139.5 -7q-43 0 -92.5 -11.5t-92.5 -37t-71.5 -66.5t-28.5 -97q0 -92 61.5 -134.5t146.5 -42.5q33 0 60 5.5t50 10.5q22 9 43 17v-183q-17 -9 -41 -17q-43 -14 -117 -14q-195 0 -305.5 90.5t-110.5 267.5z" />
<glyph unicode="&#xe26;" horiz-adv-x="1269" d="M63 960q49 93 123 167q66 63 163.5 115t244.5 52q98 0 198 -26t183 -78t135.5 -131t52.5 -184v-1288q0 -41 -21 -73.5t-44 -58.5q-28 -32 -63 -54h-80v1417q0 82 -31.5 139.5t-83.5 92t-116.5 49t-127.5 14.5q-82 0 -139.5 -24.5t-98.5 -53.5q-46 -33 -74 -75l175 -142 q-19 -20 -35 -52q-14 -28 -22.5 -70t-8.5 -108v-372q0 -110 -49 -163t-141 -53h-137v181h87q22 2 25 18.5t3 38.5l-3 350q0 55 7 96t18 73q11 35 29 61q-49 40 -86 71q-33 25 -58 47t-25 24z" />
<glyph unicode="&#xe27;" horiz-adv-x="1141" d="M63 132l71 180q41 -46 93 -80q46 -32 112 -55.5t151 -23.5q74 0 143.5 32.5t120.5 94.5t83 150.5t32 200.5t-32 197.5t-83 141.5t-120.5 85t-143.5 29q-85 0 -151 -22t-112 -44q-52 -28 -93 -63l-71 178q35 46 92 79q49 33 129 57.5t200 24.5q124 0 233 -45t189.5 -131 t126 -209.5t45.5 -277.5q0 -155 -45.5 -278t-124.5 -206.5t-187 -127.5t-231 -44q-120 0 -202 22.5t-130 54.5q-60 35 -95 80z" />
<glyph unicode="&#xe28;" horiz-adv-x="1283" d="M106 0v875q0 101 45.5 178t120.5 131.5t169.5 82t192.5 27.5q49 0 99 -6.5t93 -20.5q57 22 98.5 61.5t41.5 105.5h213q0 -96 -50.5 -160t-116.5 -95q77 -49 122 -131t45 -173v-875h-213v875q0 57 -27.5 101.5t-74 74.5t-107 46t-123.5 16q-66 0 -123 -17.5t-100.5 -47.5 t-69.5 -74t-26 -99v-311q41 44 92 79q44 32 100.5 55.5t126.5 23.5v-208q-74 0 -133.5 -22t-98.5 -45q-49 -33 -87 -66v-381h-209z" />
<glyph unicode="&#xe29;" horiz-adv-x="1226" d="M106 435v829h212v-834q0 -52 14.5 -100.5t42 -89t70 -64t102.5 -23.5h121q60 0 105 23.5t75 63t44 87.5t14 97l3 175h-258v161h258v504h212v-504h86v-161h-88v-164q0 -92 -27.5 -176t-79.5 -147t-127.5 -100t-173.5 -37h-200q-98 0 -174.5 38.5t-127.5 101.5t-77 146 t-26 174z" />
<glyph unicode="&#xe2a;" horiz-adv-x="1160" d="M63 330q0 107 45 181t113.5 121t156 67.5t172.5 20.5q98 0 154 7t87 15q35 11 49 27v65q0 118 -67 197t-212 79q-98 0 -172 -39t-123 -84q-60 -55 -102 -125l-72 181q41 69 105 125q58 49 147 87.5t217 38.5q86 0 156 -19q57 26 91.5 63.5t34.5 95.5h213 q0 -86 -48 -143.5t-119 -92.5q164 -123 164 -410l-3 -788h-210v588q-22 -14 -60 -27q-32 -8 -87.5 -15t-142.5 -7q-40 0 -88.5 -12.5t-90 -38.5t-68.5 -65t-27 -93q0 -92 63 -134.5t148 -42.5q32 0 59.5 5.5t49.5 10.5q23 9 44 20v-186q-20 -9 -44 -17q-49 -14 -109 -14 q-194 0 -309 88t-115 270z" />
<glyph unicode="&#xe2b;" horiz-adv-x="1138" d="M106 0v1264h212v-512l516 512h282l-431 -430q57 -11 127.5 -38t133.5 -80.5t104.5 -141t41.5 -216.5v-358h-211l-3 318q0 115 -38 191t-86 121.5t-100 67.5t-83 27l-253 -257l-3 -468h-209z" />
<glyph unicode="&#xe2c;" horiz-adv-x="1659" d="M22 1264h205l243 -859l241 859h132l235 -859l189 648q11 32 11 68q0 55 -28.5 95t-59.5 65q-38 32 -87 52q93 28 167 78q63 41 114.5 102t51.5 147h208q0 -109 -52 -172t-115 -98q-74 -40 -167 -57q47 -17 83 -48q32 -25 58 -64t29 -94q3 -28 -4 -57.5t-14 -43.5 l-292 -1026h-152l-241 875l-241 -875h-152z" />
<glyph unicode="&#xe2d;" horiz-adv-x="1255" d="M63 862q22 121 90 216q54 80 162.5 148t294.5 68q164 0 276 -63t180.5 -160t97.5 -214.5t29 -225.5q0 -166 -46.5 -289.5t-124.5 -205t-184.5 -121.5t-227.5 -40q-117 0 -217 33t-173.5 96t-113.5 153t-40 202q0 109 35.5 157.5t122.5 48.5h280v-181h-183q-49 6 -42 -43 q2 -57 23 -109.5t63 -93.5t104 -63t144 -22q192 0 281 126t89 352q0 222 -101.5 352t-271.5 130q-109 0 -174.5 -39t-102.5 -87q-43 -55 -63 -125h-207z" />
<glyph unicode="&#xe2e;" horiz-adv-x="1255" d="M63 862q22 121 90 216q54 80 162.5 148t294.5 68q47 0 93 -6.5t91 -20.5q57 17 103.5 57.5t46.5 109.5h200q0 -101 -60.5 -164t-125.5 -88q63 -49 107.5 -112t73.5 -136.5t41.5 -150.5t12.5 -152q0 -166 -46.5 -289.5t-124.5 -205t-184.5 -121.5t-227.5 -40 q-117 0 -217 33t-173.5 96t-113.5 153t-40 202q0 95 31.5 150.5t126.5 55.5h280v-181h-183q-44 0 -42 -43q2 -57 23 -108.5t63 -92t104 -64t144 -23.5q189 0 279.5 126t90.5 352q0 222 -101.5 352t-271.5 130q-106 0 -172 -39t-102 -87q-46 -55 -66 -125h-207z" />
<glyph unicode="&#xe2f;" horiz-adv-x="1157" d="M63 1264h210q28 -120 78.5 -188.5t170.5 -68.5q112 0 201 65.5t120 191.5h210v-829q0 -232 -72 -333.5t-253 -101.5v181q28 0 49.5 4t36.5 30t20.5 79t5.5 150v554q-32 -49 -80 -87q-40 -32 -102 -58.5t-147 -26.5q-101 0 -177 33t-132 91.5t-90.5 139t-48.5 174.5z" />
<glyph unicode="&#xe30;" horiz-adv-x="777" d="M106 416v106h198v-103q0 -38 23 -53.5t97 -15.5h247l-75 -178h-226q-138 0 -201 56t-63 188zM106 1047v102h198v-106q0 -38 23 -53.5t97 -15.5h247l-75 -177h-232q-137 0 -197.5 58.5t-60.5 191.5z" />
<glyph unicode="&#xe31;" d="M-720 1726v101h201v-104q0 -37 23 -52.5t97 -15.5h514l-74 -175h-500q-121 0 -191 51t-70 195z" />
<glyph unicode="&#xe32;" horiz-adv-x="1010" d="M63 987v181q35 35 85 63q44 22 105.5 42.5t139.5 20.5q93 0 184 -29t164.5 -89t119 -149t45.5 -209v-818h-212v788q0 86 -27 148t-73.5 100.5t-103.5 57.5t-118 19q-65 0 -122.5 -20.5t-96.5 -42.5q-52 -28 -90 -63z" />
<glyph unicode="&#xe33;" horiz-adv-x="1010" d="M-596 1726q0 104 71 175.5t172 71.5q104 0 176.5 -71.5t72.5 -175.5q0 -52 -19.5 -96t-53 -77.5t-79 -53t-97.5 -19.5t-96 19.5t-77 53t-51.5 77.5t-18.5 96zM-438 1726q0 -38 23.5 -62.5t61.5 -24.5q35 0 61 24.5t26 62.5q0 35 -26 60.5t-61 25.5q-38 0 -61.5 -25.5 t-23.5 -60.5zM63 987v181q35 35 85 63q44 22 105.5 42.5t139.5 20.5q93 0 184 -29t164.5 -89t119 -149t45.5 -209v-818h-212v788q0 86 -27 148t-73.5 100.5t-103.5 57.5t-118 19q-65 0 -122.5 -20.5t-96.5 -42.5q-52 -28 -90 -63z" />
<glyph unicode="&#xe34;" d="M-1018 1480l74 175h777v-175h-851z" />
<glyph unicode="&#xe35;" d="M-1018 1480l74 178h566v169h211v-347h-851z" />
<glyph unicode="&#xe36;" d="M-1018 1480l72 178h372q-3 14 -3 42q6 79 66 131.5t139 52.5q95 0 150 -62t55 -142q0 -88 -64 -144t-141 -56h-646zM-416 1683q0 -17 12.5 -30.5t31.5 -13.5q16 0 29 13.5t13 30.5t-13 30t-29 13q-17 0 -30.5 -13t-13.5 -30z" />
<glyph unicode="&#xe37;" d="M-1018 1480l74 178h336v169h164v-169h86v169h191v-347h-851z" />
<glyph unicode="&#xe38;" d="M-459 -213h133q101 0 161.5 -56.5t60.5 -160.5v-215h-211v183q0 25 -17.5 47t-45.5 22h-81v180z" />
<glyph unicode="&#xe39;" d="M-818 -213h142q92 0 153 -54t61 -146q0 -83 71 -83q75 0 76 83v200h211v-228q0 -41 -9.5 -82t-41 -76t-89 -56t-152.5 -21q-83 0 -136 18t-84.5 48t-43 68.5t-11.5 79.5q0 25 -17.5 47t-45.5 22h-84v180z" />
<glyph unicode="&#xe3a;" d="M-315 -213h211v-203h-211v203z" />
<glyph unicode="&#xe3f;" horiz-adv-x="1141" d="M106 0v1436h275v241h204l-3 -243q173 -14 270 -112t97 -233q0 -112 -64.5 -205t-178.5 -124q137 -22 233 -111.5t96 -232.5q0 -86 -33 -159.5t-93.5 -128t-143.5 -88.5t-180 -40v-238h-204v238h-275zM318 181h199q145 0 225.5 71t80.5 164q0 112 -83 183.5t-256 71.5 h-166v-490zM318 851h150q51 0 99.5 12t86.5 36t60 64.5t22 97.5q0 101 -71 148t-181 47h-166v-405z" />
<glyph unicode="&#xe40;" horiz-adv-x="495" d="M106 216v1048h212v-1026q0 -22 2.5 -38.5t26.5 -18.5h86v-181h-135q-85 0 -138.5 47.5t-53.5 168.5z" />
<glyph unicode="&#xe41;" horiz-adv-x="1002" d="M106 216v1048h212v-1026q0 -22 2.5 -38.5t26.5 -18.5h86v-181h-143q-86 0 -135 52t-49 164zM613 216v1048h213v-1026q0 -22 3 -38.5t25 -18.5h87v-181h-142q-85 0 -135.5 52t-50.5 164z" />
<glyph unicode="&#xe42;" horiz-adv-x="646" d="M200 1628q0 129 99.5 198.5t310.5 69.5h304v-181h-220q-152 0 -216.5 -21.5t-64.5 -79.5q0 -38 8.5 -76.5t20.5 -88.5t20 -116t8 -154v-941q0 -22 3 -38.5t25 -18.5h87v-181h-144q-85 0 -134 53t-49 163v963q0 88 -8.5 155t-20 119t-20.5 94t-9 81z" />
<glyph unicode="&#xe43;" horiz-adv-x="824" d="M0 1754q28 46 71 84q38 32 95.5 59t140.5 27q175 0 287 -92t112 -295q0 -66 -8.5 -105t-20.5 -80.5t-20.5 -96t-8.5 -148.5v-866q0 -23 3 -39t25 -19h87v-183h-139q-186 0 -186 216v891q0 86 9 146t19 109t18.5 90.5t8.5 84.5q0 206 -195 206q-57 0 -98.5 -26t-70.5 -57 q-32 -37 -58 -84z" />
<glyph unicode="&#xe44;" horiz-adv-x="848" d="M0 1715v181q49 0 90.5 -17.5t73 -41t51.5 -44.5t26 -26q19 35 52 63q25 22 65.5 44t97.5 22q72 0 114.5 -36t64.5 -93.5t29 -133.5t7 -156v-1236q0 -23 2.5 -39t26.5 -19h85v-183h-137q-189 0 -189 216v1261q0 28 1.5 71.5t-4 83.5t-23 65.5t-52.5 17.5q-23 -6 -44.5 -33 t-38.5 -57q-19 -35 -38 -74q-32 46 -68 80q-35 32 -82 58t-110 26z" />
<glyph unicode="&#xe45;" horiz-adv-x="1010" d="M63 987v181q38 35 90 63q43 22 104 42.5t145 20.5q88 0 178.5 -29t162.5 -89t117.5 -149t45.5 -209v-1231q0 -41 -22 -73.5t-44 -58.5q-28 -32 -63 -54h-83v1387q0 88 -28.5 150.5t-74.5 101t-103.5 56t-115.5 17.5q-65 0 -122.5 -20.5t-96.5 -42.5q-52 -28 -90 -63z" />
<glyph unicode="&#xe46;" horiz-adv-x="1183" d="M63 932q0 75 21.5 140.5t63 114.5t97.5 78t125 29q32 0 66 -24.5t65 -57.5q35 -35 70 -79q35 46 69 79q32 33 65.5 57.5t65.5 24.5q77 0 136 -33t96 -85t56 -116.5t19 -127.5v-1345q0 -41 -21.5 -73.5t-44.5 -58.5q-28 -32 -63 -54h-84v1474q0 109 -26.5 173.5 t-96.5 64.5q-20 0 -48.5 -30t-56.5 -65q-32 -44 -66 -95q-38 51 -70 95q-28 35 -56.5 65t-48.5 30q-49 0 -84.5 -47.5t-35.5 -133.5q0 -51 12.5 -89t29.5 -60q19 -28 46 -47l-69 -172q-65 20 -117 70q-44 41 -79.5 111t-35.5 187z" />
<glyph unicode="&#xe47;" d="M-987 1697q0 74 27.5 123t69.5 76.5t90 38t92 10.5h229q66 0 112 15t77 38q35 25 60 57v-186q-25 -17 -60 -28q-32 -11 -77.5 -20t-111.5 -9h-200q-85 0 -114.5 -37.5t-29.5 -77.5q0 -25 21.5 -55.5t65.5 -30.5q37 0 58 14t35 33t24 49h60q6 -28 17 -49q9 -17 25 -32 t41 -15q43 0 64 31.5t21 64.5h161q0 -93 -60 -160t-157 -67q-32 0 -59 11t-47 25q-22 14 -41 38q-16 -22 -43 -38q-22 -14 -53.5 -25t-75.5 -11q-38 0 -76.5 11t-71 37t-53 67.5t-20.5 101.5z" />
<glyph unicode="&#xe48;" d="M-315 1480v347h211v-347h-211z" />
<glyph unicode="&#xe49;" d="M-791 1649v178h232q44 0 79.5 -35t35.5 -77q0 -22 17 -39.5t41 -17.5h414l-69 -178h-460q-60 0 -101 31.5t-41 80.5q0 38 -16.5 47.5t-34.5 9.5h-97z" />
<glyph unicode="&#xe4a;" d="M-883 1611q0 98 65.5 158.5t152.5 60.5q32 0 56 -12t41 -26q18 -18 32 -38q11 20 32 35q14 14 40 26t57 12q82 0 134 -43.5t52 -97.5q0 -23 9 -25.5t23 -2.5h217l-69 -178h-203q-79 0 -106.5 44t-27.5 87q0 33 -14.5 59.5t-42.5 26.5q-38 0 -52 -26.5t-14 -59.5h-67 q0 28 -13 57t-56 29q-22 0 -39.5 -26.5t-17.5 -59.5q0 -32 11.5 -55.5t25.5 -42.5q17 -19 41 -33h-202q-19 14 -33 33q-14 17 -23 41.5t-9 56.5z" />
<glyph unicode="&#xe4b;" d="M-459 1562v181h144v84h211v-84h142v-181h-142v-82h-211v82h-144z" />
<glyph unicode="&#xe4c;" d="M-605 1480v77q0 52 20.5 101t56 86t85.5 60t110 23h178l-75 -178h-51q-61 0 -86.5 -33.5t-25.5 -86.5v-49h-212z" />
<glyph unicode="&#xe4d;" d="M-596 1726q0 52 18.5 96t51.5 77t77 53.5t96 20.5t97.5 -20.5t79 -53.5t53 -77t19.5 -96t-19.5 -96t-53 -77.5t-79 -53t-97.5 -19.5t-96 19.5t-77 53t-51.5 77.5t-18.5 96zM-438 1726q0 -38 23.5 -62.5t61.5 -24.5q35 0 61 24.5t26 62.5q0 35 -26 60.5t-61 25.5 q-38 0 -61.5 -25.5t-23.5 -60.5z" />
<glyph unicode="&#xe4e;" d="M-700 1606q0 109 79 168t180 59q0 92 78.5 136t222.5 44v-115q-43 0 -79 -5.5t-62 -28.5t-40.5 -68t-14.5 -119q-60 0 -111 -21.5t-51 -87.5q0 -43 19 -69q11 -11 23 -19h-203q-14 22 -27.5 53.5t-13.5 72.5z" />
<glyph unicode="&#xe4f;" horiz-adv-x="1332" d="M106 531q0 117 44.5 218.5t119 178t176 120.5t219.5 44t220 -44t177.5 -120.5t120.5 -178t45 -218.5q0 -118 -45 -218t-120.5 -176.5t-177.5 -119t-220 -42.5t-219.5 42.5t-176 119t-119 176.5t-44.5 218zM281 531q0 -77 30.5 -148t83 -124t123 -83t147.5 -30 q80 0 150.5 30t122.5 83t82 124t30 148q0 79 -30 150t-82 122t-122.5 81t-150.5 30q-77 0 -147.5 -30t-123 -81t-83 -122t-30.5 -150zM405 531q0 54 19.5 101t56 83.5t83 56t101.5 19.5q109 0 185.5 -75.5t76.5 -184.5q0 -55 -20.5 -102.5t-56 -83.5t-83 -55.5t-102.5 -19.5 q-109 0 -184.5 75.5t-75.5 185.5z" />
<glyph unicode="&#xe50;" horiz-adv-x="1255" d="M63 531q0 114 45 217t122 179.5t179 120.5t215 44q115 0 218.5 -44t180.5 -120.5t123.5 -179.5t46.5 -217q0 -118 -46.5 -218t-123.5 -176.5t-182 -119t-219 -42.5q-118 0 -219.5 42.5t-175.5 119t-119 176.5t-45 218zM273 531q0 -77 26.5 -148t75.5 -122t113.5 -82 t140.5 -31q71 0 137 31t113.5 82t75.5 122t28 148t-28 147.5t-75.5 121.5t-113.5 81t-137 30q-75 0 -140 -30t-114 -81t-75.5 -121.5t-26.5 -147.5z" />
<glyph unicode="&#xe51;" horiz-adv-x="1255" d="M63 634q0 88 40 170t113.5 146.5t173.5 103t220 38.5q121 0 226 -40t184.5 -117.5t126 -189t46.5 -258.5q0 -143 -61.5 -255t-157.5 -188t-213.5 -116t-232.5 -40h-38.5t-42.5 3l49 175h11q77 0 161 28.5t152.5 83t114 134t45.5 175.5q0 107 -30 187.5t-80 133t-117.5 78 t-142.5 25.5q-95 0 -159.5 -30t-103 -74t-55 -91.5t-16.5 -81.5q0 -101 48 -164t100 -63q58 0 78 31.5t20 80.5v55h212v-76q0 -37 -13 -84t-47 -88.5t-94.5 -70t-155.5 -28.5q-60 0 -124.5 26t-116 77t-86 127t-34.5 177z" />
<glyph unicode="&#xe52;" horiz-adv-x="1556" d="M20 1485v178h43q106 0 180.5 -44.5t122 -109t69 -140t21.5 -138.5v-838q0 -71 24 -118.5t59 -75t75 -37t71 -9.5h376q38 0 76.5 9.5t71.5 35.5t52.5 68.5t19.5 108.5v310q0 37 -7 80.5t-22.5 80.5t-42.5 61.5t-68 24.5q-28 0 -51 -17.5t-40 -39.5q-20 -25 -41 -57 q-16 32 -37 57q-17 22 -40 39.5t-49 17.5q-54 0 -84 -39t-30 -88q0 -60 24.5 -93t61.5 -48.5t78 -19.5t74 -4v-184q-69 0 -145.5 10t-138 47t-102.5 106.5t-41 185.5q0 38 14 88.5t45.5 94.5t81.5 75.5t122 31.5q43 0 73 -15.5t53 -36.5q25 -22 43 -48q17 26 46 48 q23 20 57 36t78 16q80 0 137 -38.5t94.5 -97.5t53.5 -131.5t16 -142.5v-310q0 -106 -34.5 -181.5t-90.5 -124.5t-128.5 -71.5t-151.5 -22.5h-455q-63 0 -131 22.5t-124 71.5t-91.5 125t-35.5 181v864q0 46 -8.5 90t-33 78.5t-70 56t-120.5 21.5z" />
<glyph unicode="&#xe53;" horiz-adv-x="1541" d="M63 536q0 266 103.5 411t289.5 145q86 0 146 -42.5t101 -94.5q46 -60 71 -137q25 77 72 137q37 52 97.5 94.5t145.5 42.5q170 0 280.5 -141.5t110.5 -414.5q0 -126 -24.5 -224.5t-54.5 -168.5q-35 -80 -77 -143h-205q43 63 74 146q28 71 51 170.5t23 219.5 q0 164 -54 269.5t-155 105.5q-82 0 -139 -105.5t-57 -321.5h-183q0 198 -55.5 312.5t-139.5 114.5q-37 0 -74.5 -19.5t-67.5 -64t-48 -116t-18 -175.5q0 -80 18 -150.5t52.5 -121.5t85 -81t115.5 -30q52 0 90 14q20 5 39 14v-173q-17 -8 -36 -16q-17 -6 -40 -11.5t-55 -5.5 q-89 0 -175 38.5t-155 110t-110.5 176.5t-41.5 236z" />
<glyph unicode="&#xe54;" horiz-adv-x="1499" d="M63 519q0 98 24.5 195.5t75 174.5t127.5 126t186 49h473q46 0 87.5 8.5t73 31.5t52 67t20.5 117v378h211l-3 -405q0 -103 -31.5 -174.5t-83 -115.5t-120.5 -64.5t-143 -20.5h-505q-60 0 -104.5 -33t-71.5 -84.5t-41 -117.5t-14 -134q0 -69 12.5 -131.5t40 -106.5 t71.5 -71t104 -27h470q-79 43 -142 103q-55 52 -99 130.5t-44 184.5h217q0 -92 31.5 -167.5t80.5 -131.5t110.5 -87.5t121.5 -31.5h143v-181h-911q-98 0 -175 42.5t-132 113.5t-83.5 165.5t-28.5 197.5z" />
<glyph unicode="&#xe55;" horiz-adv-x="1499" d="M63 517q0 98 24.5 195t76.5 175.5t129 127.5t183 49h104q-16 36 -16 74q0 101 72 172.5t173 71.5q49 0 93 -18.5t77 -52t52 -77.5t19 -96q0 -38 -10 -66q72 23 107 73.5t35 164.5v356h211v-396q0 -107 -28.5 -179.5t-80 -118t-119 -66t-144.5 -20.5h-510q-60 0 -105 -33 t-73.5 -84.5t-42.5 -117.5t-14 -134q0 -69 12.5 -130t40 -106.5t70 -72.5t102.5 -27h476q-82 43 -145 103q-55 52 -99 130.5t-44 184.5h217q0 -92 33 -167.5t83 -131.5t110.5 -87.5t112.5 -31.5h148v-181h-911q-98 0 -175 44t-132 116t-83.5 165.5t-28.5 191.5zM722 1133 q0 -38 24.5 -62t62.5 -24h9q32 6 54.5 28.5t22.5 57.5t-26 60t-60 25q-38 0 -62.5 -25t-24.5 -60z" />
<glyph unicode="&#xe56;" horiz-adv-x="1699" d="M20 1485v181h60q148 0 244.5 -67t161 -176.5t108 -248.5t82.5 -282q32 54 87 101q46 40 121.5 71t187.5 31q135 0 241.5 -43t177.5 -117.5t108.5 -172t37.5 -203.5q0 -118 -37.5 -223.5t-110 -186t-177.5 -127.5t-240 -47q-98 0 -179 30t-147.5 81t-113.5 120.5 t-76 146.5h213q40 -98 129 -149t174 -51q63 0 127.5 26.5t113.5 78t80.5 128t31.5 173.5q0 74 -26 139t-73.5 112t-112 74t-141.5 27q-74 0 -128.5 -25.5t-94.5 -68.5t-66 -99t-41 -119h-203q-57 233 -105 398.5t-103 275t-128.5 161t-182.5 51.5z" />
<glyph unicode="&#xe57;" horiz-adv-x="2006" d="M63 536q0 132 30 230.5t79 166.5t115 101t137 33q83 0 141.5 -40t98 -90.5t57.5 -95t21 -53.5q0 6 19 50.5t56 94.5t97 92t144 42q72 0 137.5 -31.5t116 -97.5t80.5 -166.5t30 -235.5q0 -120 -17.5 -200.5t-45.5 -149.5q35 3 67.5 19t58.5 45t43.5 73t17.5 110v837 q0 77 23 149t71 126.5t124.5 87.5t182.5 33h40v-181q-75 0 -121 -16t-70 -44.5t-31.5 -67t-7.5 -84.5v-863q0 -106 -37 -184t-94.5 -127.5t-124.5 -74t-130 -24.5h-313q44 63 75 146q28 71 52.5 170.5t24.5 219.5q0 164 -40 255.5t-141 91.5q-83 0 -146 -84.5t-63 -256.5 h-155q0 152 -64.5 246.5t-144.5 94.5q-37 0 -70 -16t-57.5 -54.5t-38.5 -105.5t-14 -171q0 -80 18 -150.5t52.5 -121.5t85 -81t113.5 -30q49 0 92 14q22 8 39 16v-175q-19 -8 -42 -16q-19 -6 -44.5 -11.5t-47.5 -5.5q-98 0 -183.5 41t-152 115.5t-105 178t-38.5 226.5z" />
<glyph unicode="&#xe58;" horiz-adv-x="1499" d="M63 536q0 98 31.5 194t91.5 169t152 119t212 46h402q46 0 87.5 8.5t73 33t51.5 68.5t20 117v375h209v-388q0 -115 -33 -190.5t-86 -120t-123 -63t-144 -18.5h-422q-77 0 -134.5 -31.5t-96.5 -82t-58.5 -114.5t-19.5 -130q0 -161 54 -268t154 -107q52 0 89 35.5t61 81.5 q28 52 48 116q32 -65 78 -116q41 -46 95 -81.5t128 -35.5q35 0 70.5 9.5t64.5 34t46.5 64.5t17.5 103v74h211v-74q0 -186 -104.5 -287.5t-305.5 -101.5q-80 0 -136 22.5t-92 54.5q-44 32 -73 77q-20 -46 -51 -77q-28 -32 -70 -54.5t-107 -22.5q-69 0 -138.5 37t-125.5 108.5 t-91.5 176.5t-35.5 239z" />
<glyph unicode="&#xe59;" horiz-adv-x="1814" d="M63 536q0 132 38.5 235.5t98.5 175t131 108.5t137 37q103 0 167.5 -45.5t113.5 -100.5q22 110 86.5 173t159.5 63q69 0 122 -31.5t100 -71t87.5 -71t82.5 -31.5q61 0 85.5 95.5t24.5 243.5v350h212v-350q0 -88 -13 -180.5t-46 -166.5t-93 -122t-156 -48q-82 0 -141 31.5 t-106 69.5t-84.5 68t-76.5 30q-58 0 -94.5 -42t-36.5 -94q0 -19 3 -28l46 -158q23 -74 67.5 -231.5t124.5 -444.5h-203l-203 731q-8 28 -25.5 61.5t-45 62t-61.5 45.5t-78 17q-32 0 -69 -21t-68.5 -66t-52.5 -117.5t-21 -176.5q0 -77 15.5 -147.5t47 -123t79 -82.5 t110.5 -30q22 0 45 5.5t40 10.5q20 9 35 17v-178q-8 -5 -38 -19t-91 -14q-88 0 -170.5 41t-145.5 115.5t-101.5 178t-38.5 226.5z" />
<glyph unicode="&#xe5a;" horiz-adv-x="1530" d="M63 1264h210q32 -120 80.5 -188.5t165.5 -68.5q115 0 204 65.5t120 191.5h210v-829q0 -103 -13.5 -183t-47.5 -136t-97 -86t-167 -30v181q32 0 53 4t34.5 30t19 82t5.5 162v539q-32 -49 -80 -87q-40 -32 -103 -58.5t-150 -26.5q-98 0 -173.5 33t-131.5 91.5t-90.5 139 t-48.5 174.5zM1212 0v1264h213v-1264h-213z" />
<glyph unicode="&#xe5b;" horiz-adv-x="2086" d="M106 514q0 115 36 219t104.5 183t169.5 126t227 47q166 0 266 -65.5t149 -142.5q58 -96 77 -210h-205q-17 68 -52 120q-32 46 -88 83t-147 37q-69 0 -128 -30t-102 -84.5t-69 -126t-26 -156.5q0 -164 98 -261.5t238 -99.5q66 0 120.5 22t94.5 52q47 32 80 77l149 -143 l112 143l135 -143l117 146q32 -47 64 -77q28 -33 63.5 -55t76.5 -22q66 0 87.5 32.5t21.5 58.5q0 35 -12 63.5t-26 48.5q-14 22 -33 40h206q19 -14 35 -38q14 -19 25 -49t11 -74q0 -28 -11 -72.5t-41.5 -86t-85 -71.5t-139.5 -30q-55 0 -98.5 22.5t-73.5 54.5q-38 32 -66 77 l-118 -140l-133 140l-112 -140l-148 140q-35 -46 -80 -77q-41 -32 -95.5 -54.5t-125.5 -22.5q-121 0 -221 44t-173.5 119t-113.5 172t-40 204z" />
<glyph unicode="&#x2000;" horiz-adv-x="1290" />
<glyph unicode="&#x2001;" horiz-adv-x="2580" />
<glyph unicode="&#x2002;" horiz-adv-x="1290" />
<glyph unicode="&#x2003;" horiz-adv-x="2580" />
<glyph unicode="&#x2004;" horiz-adv-x="860" />
<glyph unicode="&#x2005;" horiz-adv-x="645" />
<glyph unicode="&#x2006;" horiz-adv-x="430" />
<glyph unicode="&#x2007;" horiz-adv-x="430" />
<glyph unicode="&#x2008;" horiz-adv-x="322" />
<glyph unicode="&#x2009;" horiz-adv-x="516" />
<glyph unicode="&#x200a;" horiz-adv-x="143" />
<glyph unicode="&#x2010;" horiz-adv-x="810" d="M106 545v175h600v-175h-600z" />
<glyph unicode="&#x2011;" horiz-adv-x="810" d="M106 545v175h600v-175h-600z" />
<glyph unicode="&#x2012;" horiz-adv-x="810" d="M106 545v175h600v-175h-600z" />
<glyph unicode="&#x2013;" horiz-adv-x="1111" d="M106 545v175h901v-175h-901z" />
<glyph unicode="&#x2014;" horiz-adv-x="1656" d="M106 545v175h1445v-175h-1445z" />
<glyph unicode="&#x2018;" horiz-adv-x="424" d="M106 1032v186q0 69 33 129.5t74 105.5q46 52 105 98h199q-58 -49 -101 -103q-38 -49 -68 -108t-30 -122v-186h-212z" />
<glyph unicode="&#x2019;" horiz-adv-x="424" d="M-92 1032q54 49 98 103q37 49 68.5 106.5t31.5 120.5v189h212v-189q0 -68 -34.5 -128.5t-73.5 -106.5q-49 -52 -106 -95h-196z" />
<glyph unicode="&#x201c;" horiz-adv-x="767" d="M106 1032v186q0 69 33 129.5t74 105.5q46 52 105 98h186q-55 -49 -97 -103q-37 -49 -66 -108t-29 -122v-186h-206zM454 1032v186q0 69 34 129.5t73 105.5q49 52 112 98h187q-58 -49 -100 -103q-38 -49 -68 -108t-30 -122v-186h-208z" />
<glyph unicode="&#x201d;" horiz-adv-x="767" d="M-92 1032q54 49 98 103q37 49 68.5 106.5t31.5 120.5v189h206v-189q0 -68 -35.5 -128.5t-76.5 -106.5q-49 -52 -108 -95h-184zM260 1032q52 49 96 103q37 49 67.5 106.5t30.5 120.5v189h208v-189q0 -68 -34 -128.5t-75 -106.5q-49 -52 -106 -95h-187z" />
<glyph unicode="&#x2022;" horiz-adv-x="764" d="M106 637q0 120 80 198.5t198 78.5q117 0 196 -78.5t79 -198.5q0 -115 -79 -195.5t-196 -80.5q-118 0 -198 80.5t-80 195.5z" />
<glyph unicode="&#x2026;" horiz-adv-x="1628" d="M106 0v203h212v-203h-212zM708 0v203h212v-203h-212zM1310 0v203h212v-203h-212z" />
<glyph unicode="&#x202f;" horiz-adv-x="516" />
<glyph unicode="&#x205f;" horiz-adv-x="645" />
<glyph unicode="&#x20ac;" horiz-adv-x="1486" d="M106 470v161h143v72v42.5t3 42.5h-146v164h175q75 252 257 381t436 129q129 0 234 -15.5t174 -47.5l-72 -181q-82 41 -162.5 54t-173.5 13q-172 0 -293.5 -89t-176.5 -244h560v-164h-599q-3 -22 -3 -42.5v-42.5v-37.5t3 -34.5h542v-161h-506q58 -161 187.5 -239 t285.5 -78q110 0 182 25t154 68l72 -177q-83 -49 -190.5 -71.5t-239.5 -22.5q-126 0 -235 33t-198 97t-150.5 156t-89.5 209h-173z" />
<glyph unicode="&#x2122;" horiz-adv-x="1114" d="M106 1368v57h341v-57h-135v-438h-66v438h-140zM507 930v495h84l166 -393l178 393h74v-495h-54v394l-184 -394h-29l-171 394v-394h-64z" />
<glyph unicode="&#x25fc;" horiz-adv-x="1059" d="M0 0v1061h1061v-1061h-1061z" />
<glyph horiz-adv-x="1226" d="M60 1026q32 74 95 132q55 49 148 92.5t242 43.5q63 0 123 -12t112 -32q28 9 58.5 25t56 38.5t41.5 51t16 69.5h211q0 -58 -19.5 -105.5t-52.5 -82t-73.5 -56.5t-79.5 -35q109 -88 167 -220.5t58 -275.5q0 -148 -42.5 -270.5t-118 -208t-183.5 -133t-237 -47.5h-141 l-115 451q-8 22 -18 27.5t-32 5.5h-63v181h120q66 0 110 -24.5t74 -98.5l96 -359q80 0 143.5 40t108 106.5t67.5 152.5t23 177q0 124 -40 210t-100 139t-132.5 77.5t-137.5 24.5q-112 0 -192 -42t-129 -91q-57 -57 -95 -129z" />
<glyph horiz-adv-x="2014" d="M63 960q49 93 123 167q63 63 162 115t237 52q104 0 207 -26t186 -78t134 -131t51 -184v-451q0 -49 9.5 -97t30.5 -87.5t61.5 -63t100.5 -23.5h120q61 0 100.5 23.5t65.5 63t36 87.5t10 97v840h213v-829q0 -82 -22 -164t-69 -148t-120.5 -107t-179.5 -41h-228 q-98 0 -164 38.5t-105 103t-54.5 147.5t-15.5 171v383q0 85 -33 142.5t-84.5 90.5t-116 47.5t-127.5 14.5q-83 0 -140.5 -24.5t-94.5 -53.5q-44 -33 -72 -75l172 -142q-19 -20 -35 -52q-14 -28 -24.5 -70t-10.5 -108v-347q0 -23 3.5 -39t26.5 -19h88v-183h-129 q-103 0 -150 53t-47 163v372q0 55 7 96t18 73q11 35 29 61q-49 40 -86 71q-33 25 -58 47t-25 24z" />
<glyph d="M-1089 1697q0 74 26 123t67 76.5t90 38t94 10.5h172q66 0 112 15t77 35q35 22 60 55v-181q-25 -17 -60 -28q-32 -11 -77.5 -20t-111.5 -9h-143q-85 0 -114.5 -37.5t-29.5 -77.5q0 -25 13.5 -55.5t44.5 -30.5q32 0 51 14t27 33q11 19 11 49h55q5 -28 17 -49q8 -17 24 -32 t44 -15q44 0 65.5 36t21.5 60h160q0 -98 -60.5 -162.5t-156.5 -64.5q-33 0 -58.5 11t-45.5 25q-22 14 -41 38q-11 -22 -28 -38q-16 -14 -43.5 -25t-70.5 -11q-33 0 -65.5 11t-61.5 37t-47 67.5t-18 101.5z" />
<glyph d="M-591 2125v181h230q43 0 79 -35t36 -77q0 -23 16.5 -40.5t40.5 -17.5h274l-74 -180h-309q-66 0 -104.5 34t-38.5 78q0 38 -17.5 47.5t-34.5 9.5h-98z" />
<glyph d="M-706 2065q0 52 19 92t50.5 67t70 42.5t79.5 15.5q32 0 49 -11t31 -25q12 -19 23 -38q9 19 23 38q14 14 34 25t51 11q80 0 125 -41.5t53 -98.5q6 -22 13.5 -25.5t21.5 -3.5h148l-74 -178h-131q-80 0 -107.5 36.5t-27.5 78.5q0 32 -13 66t-44 34q-23 0 -33.5 -27 t-10.5 -58h-57q0 28 -10 56.5t-33 28.5t-40.5 -27t-17.5 -58q0 -32 10.5 -58t24.5 -40q14 -20 35 -32h-193q-20 11 -34 32q-14 14 -24.5 40t-10.5 58z" />
<glyph horiz-adv-x="2112" d="M63 960q49 93 123 167q66 63 165.5 115t239.5 52q145 0 287.5 -50.5t219.5 -159.5q16 25 47 62.5t79.5 69t117.5 55t160 23.5q88 0 179 -29t162.5 -89t118 -149t46.5 -209v-1231q0 -41 -22 -73.5t-46 -58.5q-28 -32 -63 -54h-82v1387q0 88 -29 150.5t-74.5 101t-102.5 56 t-115 17.5q-112 0 -175 -38t-93 -84.5t-36.5 -87.5t-6.5 -43v-1273q0 -41 -21 -73.5t-44 -58.5q-28 -32 -63 -54h-80v1417q0 88 -33 145.5t-87.5 90t-120.5 46t-129 13.5q-77 0 -133 -24.5t-94 -53.5q-43 -33 -74 -75l172 -142q-19 -23 -35 -55q-14 -28 -24.5 -71.5 t-10.5 -103.5v-347q0 -28 12 -41.5t29 -16t37 -1.5t40 1v-183h-134q-93 0 -142.5 52t-49.5 164v372q0 55 7 96t18 73q11 35 29 61q-49 40 -86 71q-33 25 -58 47t-25 24z" />
<glyph horiz-adv-x="2112" d="M63 960q49 93 123 167q66 63 163.5 115t244.5 52q140 0 282 -52t222 -161q16 25 47 63t78 70.5t116 56t163 23.5q88 0 179 -29t162.5 -89t118 -149t46.5 -209v-1231q0 -41 -22 -73.5t-46 -58.5q-28 -32 -63 -54h-82v1387q0 88 -29 150.5t-74.5 101t-102.5 56t-115 17.5 q-71 0 -121.5 -16t-85 -42t-56 -57.5t-32.5 -65.5q-28 -77 -16 -177v-1168q0 -41 -21 -73.5t-44 -58.5q-28 -32 -63 -54h-80v1417q0 82 -31.5 139.5t-83.5 92t-116.5 49t-127.5 14.5q-82 0 -139.5 -24.5t-98.5 -53.5q-46 -33 -74 -75l175 -142q-19 -20 -35 -52 q-14 -28 -22.5 -70t-8.5 -108v-372q0 -107 -49 -161.5t-141 -54.5h-137v181h87q14 2 19.5 18.5t8 38.5t1.5 48t-1 47l-3 255q-3 55 5.5 96t19.5 73q11 35 29 61q-49 40 -86 71q-33 25 -58 47t-25 24z" />
</font>
</defs>
</svg>
